<svg xmlns="http://www.w3.org/2000/svg" width="202.001" height="202" viewBox="0 0 202.001 202"><g fill="none" stroke="#000" stroke-width="2" stroke-linecap="round" stroke-linejoin="round" stroke-miterlimit="10"><path d="M-273.465 1329.946c2.427 16.776 3.327 33.55 1.633 50.514-1.125 11.273-2.675 22.455-6.773 32.932-6.11 15.62-14.705 29.278-29.172 39.324-12.602 8.75-25.752 14.904-40.68 17.766-9.37 1.796-18.252-.432-26.986-3.104-18.51-5.665-33.37-16.16-44.702-32.304-9.793-13.95-15.133-29.54-17.968-45.688-2.904-16.536-3.89-33.542-1.39-50.444.437-2.96.372-5.994.538-8.994"/><path clip-rule="evenodd" d="M-468.965 1310.946c-8.834 3.834-17.686 7.624-26.496 11.51-13.517 5.963-27.253 11.497-40.44 18.12-14.786 7.43-29.18 15.675-43.522 23.945-8.24 4.752-16.016 10.303-24.068 15.387-1.492.94-3.31 1.373-4.975 2.04M-607.965 1216.446c2.666 1.334 5.546 2.36 7.967 4.047 22.4 15.603 46.33 28.496 71.062 39.89 19.855 9.146 39.97 17.73 59.97 26.563M-449.465 1326.446c-4.334 9.5-9.207 18.797-12.875 28.547-5.7 15.153-10.642 30.562-14.25 46.424-3.957 17.385-4.45 34.91-3.754 52.524.238 6.03 1.88 12.006 2.88 18.006M-428.465 1329.446c4.166-2.166 8.916-3.65 12.396-6.62 13.29-11.343 14.544-27.627 6.09-41.872-9.415-15.868-23.78-17.515-36.87-13.624-9.783 2.907-16.646 10.993-19.095 21.62-2.62 11.365-.447 21.538 7.98 29.994 8.032 8.056 17.497 11.99 29 10.002M-252.965 1320.446c12.22 8.5 22.064 19.587 32.44 30.06 8.792 8.876 17.395 17.99 25.47 27.517 8.895 10.498 17.328 21.414 25.512 32.482 6.066 8.204 11.48 16.896 17.035 25.47 1.61 2.485 2.71 5.306 4.043 7.972M-149.965 1135.946c-9.44 7.15-14.52 17.406-20.104 27.44-5.523 9.933-11.667 19.545-17.955 29.02-7.413 11.17-14.988 22.255-23.034 32.97-6.024 8.023-12.772 15.52-19.44 23.04-7.514 8.468-15.3 16.696-22.965 25.03M-263.965 1325.446c4.166 8.5 8.585 16.888 12.438 25.528 4.926 11.05 10.22 22.046 13.838 33.542 3.835 12.186 6.23 24.865 8.608 37.452 1.615 8.55 2.38 17.292 3.006 25.985.31 4.287-.555 8.658-.89 12.992M-404.965 1140.946c-6.744 3.028-10.47 9.175-15.008 14.492-11.49 13.46-17.25 29.625-20.26 46.55-2.566 14.43-3.795 29.174-2.292 43.964.538 5.296.394 10.66.56 15.994M-481.465 1343.446c-3.834 4-8.018 7.723-11.44 12.05-14.145 17.884-28.59 35.57-41.892 54.07-10.584 14.723-19.81 30.44-26.697 47.368-1.12 2.753-2.637 5.345-3.97 8.012M-130.465 1219.946c-2.834 2.5-5.305 5.73-8.573 7.353-7.442 3.693-12.162 10.796-19.837 14.34-9.047 4.176-17.31 10.02-26.12 14.75-10.372 5.57-20.848 10.983-31.506 15.98-9.664 4.53-19.63 8.41-29.465 12.576M-284.465 1327.446c-3.334 10.166-5.828 20.71-10.184 30.418-7.767 17.31-17.93 33.098-35.335 42.545-8.213 4.456-17.125 7.405-26.463 6.772-4.17-.283-5.986 3.42-9.518 3.264M-545.965 1173.946c9.666 13.666 18.936 27.64 29.117 40.91 9.28 12.092 19.254 23.69 29.477 35.006 8.204 9.083 17.24 17.418 25.905 26.084"/><path clip-rule="evenodd" d="M-287.965 1262.946c-1.334-5-2.167-10.202-4.094-14.963-5.886-14.55-13.2-28.484-24.006-39.942-19.257-20.418-47.774-27.822-73.893-10.584-12.744 8.412-21.847 19.93-27.422 34.023-4.418 11.167-8.084 22.632-12.084 33.966M-248.465 1308.446c16 6.166 32.13 12.022 47.963 18.588 15.502 6.428 30.706 13.574 46.033 20.42 1.36.607 2.67 1.326 4.005 1.992M-481.965 1122.946c-.834 11.166-2.864 22.398-2.262 33.486 1.45 26.697 6.504 52.793 17.262 77.514 4.498 10.334 9.006 20.664 13.486 31.006.27.622.35 1.328.515 1.994M-237.965 1143.946c.666 1.5 1.938 3.013 1.907 4.498-.33 15.934-1.38 31.84-4.51 47.482-1.59 7.948-3.803 15.836-6.49 23.487-5.186 14.776-10.907 29.366-16.407 44.032M-428.465 1329.946c3.166 9.166 5.78 18.572 9.616 27.45 7.787 18.017 18.496 34.003 36.465 43.397 5.994 3.133 12.92 4.486 19.42 6.652"/><path clip-rule="evenodd" d="M-119.465 1286.446l-6.16 6.713c-7.998.405-16.666.898-25.34 1.274-12.665.547-25.33 1.134-38 1.477-12.163.33-24.334.343-36.5.548-5.834.1-11.67.252-17.498.535-1.544.074-3.06.717-4.81 1.154-.147 12.062-6.28 20.257-16.245 25.7-2.988 1.634-6.557 2.66-9.957 3.007-21.506 2.205-40.882-17.21-34.068-40.432 5.595-19.068 33.018-29.83 50.27-14.19 7.922 7.183 9.494 15.952 11.31 25.214M-295.465 1325.446c-5.334 6.666-10.548 13.434-16.027 19.978-9.27 11.073-20.863 18.6-34.98 21.992-2.95.71-5.982 1.29-8.997 1.41-1.304.052-2.77-1.06-3.97-1.915-1.925-1.368-3.69-2.964-5.524-4.464M-418.465 1268.946c6.68-10.174 14.577-19.28 24.016-26.98 6.917-5.645 14.855-9.34 23.49-11.494 3.296-.822 6.704-2.094 9.987-1.9 16.067.94 30.296 6.87 41.908 17.98 6.717 6.424 12.434 13.895 18.6 20.895M-416.965 1327.946c3.166 4.334 6.16 8.807 9.533 12.973 9.34 11.536 20.445 20.7 34.97 25.013 3.14.93 6.33 1.68 9.497 2.514"/><path clip-rule="evenodd" d="M-301.965 1316.946c-8.166 5.334-16.138 11.002-24.55 15.913-9.938 5.8-21.01 7.887-32.45 8.086M-295.465 1160.446c13.22 19.103 18.713 40.692 19.908 63.505.54 10.306.055 20.663.115 30.996.017 3 .31 6 .477 9M-408.965 1319.946c14.168 11.97 30.09 19.648 48.912 20.387-.848 3.74-.848 3.74-6.912 5.113M-365.965 1285.446c2.334-2 4.637-4.036 7.02-5.977.676-.552 1.58-.824 2.705-2.007l46.775 10.482M-467.465 1299.946c-21.834.166-43.666.393-65.5.482-19.833.082-39.667-.026-59.5.062-3.168.014-6.334.62-9.5.955M-305.465 1277.946c-8.5-7.04-17.745-12.937-28.02-16.945-16.087-6.274-32.133-6.91-48.548-.22-9.704 3.953-17.75 10.24-26.432 15.666M-361.465 1279.946c-8.5.834-17.053 1.32-25.48 2.624-5.436.84-10.686 2.876-16.02 4.376M-321.965 1135.946c-11.965-7.365-24.654-12.322-39-12.02-6.928.144-13.634 1.187-20 4.02M-359.215 1300.446c-.25-.5-.504-1.44-.75-1.438-12.666.096-25.334.26-38 .457-1.002.016-2 .314-3 .48M-570.465 1124.946c6.666 13.834 13.338 27.664 19.994 41.502.872 1.814 1.67 3.664 2.505 5.498M-310.465 1298.446c-.334.166-.665.476-1 .48-15.666.19-31.334.353-47 .52M-469.965 1083.946h-7.26c-1.27-2.804-2.318-5.11-3.455-7.616-5.04 3.958-5.04 7.473-.266 11l2.48-3.384M-517.465 1496.946c-1.32-2.737-2.86-5.448-6.47-3.443-3.163 1.758-3.526 5.126-.972 7.89.787.85 2.402 1.653 3.416 1.437 2.673-.568 4.392-2.313 4.024-5.384M-319.965 1136.946c9.316 5.95 16.86 13.752 23.5 22.5M-332.965 1316.446l-25.902 2.874-.006-.735-5.592 3.86M-459.965 1321.946l-20.5 20.5M-540.965 1076.946l-1 1.5c-2-2.248-4.248-2.414-5.907.062-1.003 1.496-1.938 3.914-1.405 5.37.913 2.49 3.424 3.645 6.31 3.055.353-.072.67-.32 1.98-.974-.64-1.3-1.31-2.657-1.977-4.015M-596.965 1077.946c-.654 3.115 1.91 7.303-2.64 9.06-4.616-.257-3.727-3.412-3.892-6.058-.105-1.694 1.166-4.42-2.47-4.002M-524.965 1528.946c3.463-1.907.373-5.125 1.92-7.834l-7.713-1.39-.398 1.55 5.37 3.06c-3.6 2.3-3.625 2.297-5.18-.386M-360.465 1318.446c-4-.334-8.01-.587-11.998-1.023-3.512-.386-7.002-.977-10.502-1.477M-221.965 1528.946c3.463-1.907.373-5.125 1.92-7.834l-7.713-1.39-.398 1.55 5.37 3.06c-3.6 2.3-3.625 2.297-5.18-.386M-310.465 1309.446l-19.5 5.5M-238.465 1125.946c1 5.5 2.04 10.994 2.94 16.51.1.596-.606 1.324-.94 1.99M-149.465 1350.446l17 10M-457.465 1082.446l-1.568-5.81c-.604-.083-1.21-.167-1.814-.253l-3.8 5.918 6.683.646M-266.465 1295.446l-22 .75M-393.965 1498.946l-1.683-2.52-4.258 2.473c5.607 6.02 17.318 4.48 20.44-.954M-152.965 1125.946l-6.5 14.5M-148.465 1445.946c.666 1.834 1.24 3.707 2.02 5.49 1.255 2.868 2.646 5.676 3.98 8.51M-389.965 1314.446l-15-4M-598.965 1304.446c-4.832-1.843-9.328-5.362-15-3M-137.965 1107.946l-7.035 1.563 6.588-7.928-4.088-4.09c-1.22 2.207-1.843 3.33-2.465 4.453M-95.965 1107.946l-7.035 1.563 6.588-7.928-4.088-4.09c-1.22 2.206-1.844 3.33-2.465 4.453M-325.465 1498.946c-2.61-3.32-4.485-2.246-6.388.85 1.93 3.24 3.685 5.034 6.388 1.15M-416.965 1498.946l-1.428-2.137c-3.307 1.88-5.09 3.745-.47 5.46 1.798.226 3.593.504 5.4.66 1.755.152 3.506.16 2.997-2.484M-490.965 1085.946l-7.035 1.563 6.588-7.928-4.088-4.09c-1.22 2.206-1.844 3.33-2.465 4.453M-110.965 1371.446c-2.52.37-5.038.738-6.844 1.002-4.527-3.1-8.84-6.05-13.155-9.002M-302.965 1498.946l-1.392-2.083c-4.03 3.087-4.03 3.087-.43 6.24 1.054-.524 2.188-1.09 3.32-1.657M-201.965 1521.946l-1.392-2.083c-4.03 3.087-4.03 3.087-.43 6.24 1.054-.524 2.188-1.09 3.32-1.657M-273.965 1515.946c-4.584 5.468-4.684 6.76-1 13M-486.965 1076.946l-3 13M-465.965 1076.946l-3 13M-192.965 1515.946c4.91 5.855 4.91 7.757 0 13M-145.965 1098.946c-4.584 5.468-4.684 6.76-1 13M-120.965 1098.946c4.91 5.855 4.91 7.757 0 13M-369.965 1501.946l6.076 1.733c.034.376.07.752.103 1.13-2.145.44-4.29.883-6.433 1.325-.08-.396-.163-.793-.244-1.188l1-1.5M-590.965 1081.946l5.963-1.322c-2.037-5.244-6.008-3.023-8.963-3.678M-68.965 1080.946l5.963-1.322c-2.037-5.244-6.008-3.023-8.963-3.678M-79.965 1080.946l5.963-1.322c-2.037-5.244-6.008-3.023-8.963-3.678M-613.965 1081.946l5.963-1.322c-2.037-5.244-6.008-3.023-8.963-3.678M-425.465 1299.196l-12 .25M-605.965 1375.946c-1.203 2.818-2.404 5.637-3.622 8.488l4.43 1.096 5.192-2.084M-231.465 1129.946l-3 11.5M-262.465 1497.946c-2.445-1.557-3.37-.07-4.508 2.754 1.76.896 3.42 1.74 5.508 2.805v-9.06M-492.465 1520.946c-2.445-1.557-3.37-.07-4.508 2.754 1.76.896 3.42 1.74 5.508 2.805v-9.06M-505.465 1497.946c-2.445-1.557-3.37-.07-4.213 2.022 1.248 2.84 2.874 4.076 5.713 1.978M-219.965 1525.946l5.584-2.03-3-3.865-2.585.897"/><path clip-rule="evenodd" d="M-53.965 1078.946l-3.088-4.48-2.83 4.548 5.473 4.36c-2.746 3.464-2.746 3.464-6.874-.755-2.333 5.046-6.895 2.763-10.68 3.325M-250.965 1525.946l5.584-2.03-3-3.865-2.585.897M-568.465 1130.946l-2.5 11M-343.965 1502.946l5.584-2.03-3-3.865-2.585.897M-522.965 1525.946l5.584-2.03-3-3.865-2.585.897M-72.965 1102.946c3.186-1.48 4.455.556 5.76 2.982-1.172 2.36-2.515 3.84-5.26 2.518M-438.465 1284.946c.166 6.5.307 13 .516 19.5.065 2.003.32 4 .485 6M-355.465 1498.946l4.738 2.348c-4.14 2.645-8.514 2.264-11.883-.987l1.613-4.033 4.057 2.65-.02-.978h5.995M-229.465 1498.946l4.738 2.348c-4.14 2.645-8.514 2.264-11.883-.987l1.613-4.033 4.057 2.65-.02-.978h5.995M-122.965 1075.946c2.16 2.585 2.16 7.415 0 10M-455.965 1492.946c2.16 2.585 2.16 7.415 0 10M-406.965 1492.946c2.16 2.585 2.16 7.415 0 10M-124.465 1206.946c-1.166 3.5-2.265 7.025-3.56 10.478-.247.657-1.274 1.022-1.94 1.522M-354.965 1519.946l2.463 5.75h3.688l-2.15-5.75M-270.965 1492.946c2.16 2.585 2.16 7.415 0 10M-253.965 1492.946c.5 1.167 1.27 2.296 1.437 3.51.245 1.8.063 3.657.063 5.49M-386.965 1519.946l2.463 5.75h3.688l-2.15-5.75M-215.965 1493.946c-.23 2.828-.457 5.657-.686 8.498 5.927-.044 12.38 2.438 16.185-4.498M-435.965 1493.946c-.23 2.828-.457 5.657-.686 8.5h5.185v-4.5M-411.965 1516.946c-.23 2.828-.457 5.657-.686 8.5h13.185v-4.5M-335.965 1516.946c-.23 2.828-.457 5.657-.684 8.47l8.935.54v-6.01h-2.75M-391.965 1131.946l-10 6M-315.965 1496.946l2.568 5.997 4.932-.497M-473.965 1458.946l-4.582 7.722c-1.846-1.584-3.38-2.903-4.918-4.222M-568.465 1458.946l1.686 9.143 1.607.684 5.708-5.327M-283.965 1502.946l2.51-6h-8.51M-89.965 1098.946l-5.817 7h11.817M-123.965 1098.946l-5.817 7h7.817M-138.965 1450.946l-9-6M-448.965 1525.946l2.512-6h-8.512M-117.965 1215.446l-6.732 2.72c-.3-.16-1.283-.69-2.268-1.22M-368.965 1181.946c2.848 2.485 8.387 2.28 8.004 8.133l-6.505 4.366M-438.465 1524.946v-5.153l-4 .488v4.666M-108.965 1103.946h2.99c.097 5.398.097 5.398-3.99 4M-78.965 1103.946h2.99c.097 5.398.097 5.398-3.99 4M-371.465 1118.446l8 5.5M-457.465 1524.946v-5.153l-4 .488v4.666M-509.465 1521.946h4.307c-3.826-2.37-3.826-2.37-5.307 1.5 3.368 3.25 8.347 2.12 11-2.5M-312.465 1521.946h4.307c-3.826-2.37-3.826-2.37-5.348 1.607 2.1 3.916 4.554 2.382 7.04.393M-491.465 1501.946v-5.153l-4 .488v4.666M-111.965 1292.946c-3.166.166-6.332.385-9.5.47-.996.026-2-.304-3-.47M-243.965 1135.446l5 8M-365.465 1274.446l7.5 4M-244.965 1502.946h5.25v-6.123l-3.75.458v4.666M-446.965 1498.446c-3.02-1.87-3.02-1.87-4.52 2.05 1.377 3.018 3.715 3.314 5.942 1.362 1.527-1.338 2.33-3.506 3.71-5.71l1.867 2.798M-599.965 1212.446l-8.5 1M-259.465 1524.946v-5.3c-1.95.562-3.225.93-4.5 1.3M-97.465 1081.946h4.307c-3.826-2.37-3.826-2.37-5.348 1.607 2.1 3.916 4.554 2.38 7.04.393"/><path clip-rule="evenodd" d="M-447.465 1516.446l-4.398-1.845-.87 11.346h-10.23M-462.465 1498.946h4.307c-3.826-2.37-3.826-2.37-5.383 1.698 2.005 3.04 4.164 3.312 6.575.302M-299.465 1498.946h4.307c-3.826-2.37-3.826-2.37-5.383 1.698 2.005 3.04 4.164 3.312 6.575.302M-277.465 1498.946h4.307c-3.826-2.37-3.826-2.37-5.383 1.698 2.005 3.04 4.164 3.312 6.575.302M-482.965 1516.946c-.188 2.99-.374 5.98-.56 8.97l1.99.968 1.07-2.438M-198.465 1521.946h4.307c-3.826-2.37-3.826-2.37-5.383 1.698 2.005 3.04 4.164 3.312 6.575.302M-538.965 1076.946c.834.166 2.38.295 2.393.506.158 2.992.158 5.996 0 8.988-.012.21-1.56.34-2.393.506M-323.465 1521.946h4.307c-3.826-2.37-3.826-2.37-5.383 1.698 2.005 3.04 4.164 3.312 6.575.302M-363.465 1124.946l-7.5 6M-110.965 1075.946l2 .373c0 2.634.148 5.144-.092 7.617-.07.724-1.242 1.343-1.908 2.01M-160.965 1132.946l1.5 10M-488.965 1133.946c1.344-2.806 3.18-5.03 6.967-5.867 1.53 2.484 3.03 4.925 4.533 7.366M-242.965 1516.946c-.188 2.99-.374 5.98-.56 8.97l1.182.178 1.378-1.147M-360.465 1229.446l-6 6.5M-367.465 1250.946l7.04 5.865c-2.608 2.25-4.574 3.942-6.54 5.636M-195.965 1493.946c-.188 2.99-.374 5.98-.56 8.97l1.182.178 1.378-1.147M-136.465 1081.946h11.307c-3.684-2.283-3.684-2.283-5.388 1.69 2.01 3.05 4.17 3.32 6.58.31M-428.965 1516.946c-.188 2.99-.374 5.98-.56 8.97l1.182.178 1.378-1.147"/><path clip-rule="evenodd" d="M-132.965 1081.446c-3.02-1.87-3.02-1.87-4.576 2.2 1.687 2.463 3.55 3.614 6.075.8M-115.465 1373.946l6 6M-121.465 1294.946l7 4.5M-344.965 1516.946c-.188 2.99-.374 5.98-.56 8.97l1.182.178 1.378-1.147M-210.465 1496.946c4.58-.48 2.52 3.02 3 5M-586.465 1082.446c.682.48 1.363.957 2.176 1.527-1.95 5.38-6.634 1.572-9.675 2.973M-609.465 1082.446c.682.48 1.363.957 2.176 1.527-1.95 5.38-6.634 1.572-9.675 2.973M-267.965 1521.446c-3.02-1.87-3.02-1.87-4.55 2.13 2.24 4.01 5.116 2.678 8.32-1.29l-.15 2.822-2.12.338M-559.965 1130.946l-.406 1.197c-1.904-.236-3.75-.467-5.595-.697M-260.965 1525.946h5.25v-6.188l-2.75.688M-389.465 1496.946c4.58-.48 2.52 3.02 3 5M-292.465 1521.946h4.307c-3.826-2.37-3.826-2.37-5.368 1.66 2.276 3.788 5.075 3.06 8.4-1.88l-.218 3.382-2.12.338M-75.465 1081.446c.682.48 1.363.957 2.176 1.527-1.95 5.38-6.634 1.572-9.675 2.973M-368.465 1519.946h2.75v5.94l-4.32-.377c-2.382 2.065-4.537 5.206-8.516 2.566l1.085-1.63M-52.965 1098.946l-.5 9M-578.965 1076.946l-.5 9M-558.965 1076.946l-.5 9M-299.465 1519.946h2.75v5.5h-8.904c.22-2.84.438-5.67.655-8.5M-501.965 1076.946l-.5 9M-364.965 1400.946l6 5.5M-406.465 1519.946c4.58-.48 2.52 3.02 3 5M-132.965 1098.946l-.5 9M-599.965 1294.446l-6.5 4.5M-101.965 1076.946v9M-524.965 1078.946c-.666-.666-1.268-1.806-2.013-1.908-1.962-.27-3.987-.092-5.987-.092M-227.465 1452.446l-5 5.5M-66.965 1098.946c-2.06.158-4.97-.954-4.5 3M-435.965 1519.946l2.512 6h-10.512M-467.965 1519.946c2.115 2.183 2.115 3.817 0 6M-118.465 1373.446l1.5 6M-377.965 1524.946l6 2M-501.965 1496.946l2.235 5.98c-4.916-1.908-4.916-1.908-4.735-8.48M-426.965 1496.946c2.115 2.183 2.115 3.817 0 6M-107.965 1077.446l5 6M-359.465 1368.446l-4.5 3.5M-311.965 1496.946c3.08.893.756 3.406 1.5 5M-249.965 1496.946l2.377 5.68-6.377.32M-458.465 1083.946l-4.5 3M-237.965 1519.946c-.5.17-.998.34-1.628.552l3.26 4.884c-.943.927-2.288 2.246-3.632 3.564M-365.465 1335.446l5 4M-473.965 1496.946l-1.628.552 3.26 4.884c-.942.927-2.288 2.246-3.632 3.564M-116.965 1079.946l-1.628.552 3.26 4.884c-.943.927-2.288 2.246-3.632 3.564M-423.965 1519.946l-1.628.552 3.26 4.884c-.942.927-2.288 2.246-3.632 3.564M-106.965 1103.446c.485-.842.97-1.686 1.515-2.63-1.515-.844-3.015-4.506-4.515.13M-369.965 1224.446l5 3.5M-76.965 1103.446c.485-.842.97-1.686 1.515-2.63-1.515-.844-3.015-4.506-4.515.13M-443.965 1501.446c1.387 2.973 3.3.672 5 .5M-323.465 1500.946l5 2.535v-9.034M-367.965 1500.946l4.002-1.576-3.602-3.72-1.9 3.796M-384.965 1128.946l-5 2M-375.965 1523.946l4.002-1.576-3.602-3.72-1.9 3.796M-148.465 1451.946l-.5 5M-607.465 1220.946c-1.53-2.832-.324-7.323-5-8.25M-286.965 1492.946c-.166 2.667-.156 5.364-.607 7.98-.137.788-1.56 1.353-2.393 2.02M-407.465 1517.446v7.5M-369.465 1517.446v7.5M-211.465 1494.446v7.5M-331.465 1517.446v7.5M-390.465 1494.446v7.5M-300.465 1517.446v7.5M-503.465 1524.946c2.05 1.407 3.956 2.438 4-1.5M-251.465 1521.446c-.824 2.435 1.912 5.582-1.5 7.5M-515.465 1520.946c-.744 1.594 1.58 4.107-1.5 5M-450.965 1076.946l-.5 10M-471.965 1076.946l-.5 10M-530.465 1077.946c0 2.334.205 4.695-.115 6.984-.107.768-1.55 1.35-2.385 2.016M-336.465 1497.946c-.744 1.594 1.58 4.107-1.5 5M-452.465 1078.946l-3 3.5M-514.465 1497.946c-.744 1.594 1.58 4.107-1.5 5M-473.465 1078.946l-3 3.5M-480.465 1497.946v5.018l-7.5-.518M-90.465 1101.446v7.5M-124.465 1101.446v7.5M-375.465 1497.946v5.02c-2.523-.176-5.012-.348-7.5-.52M-344.465 1498.446c-.824 2.435 1.912 5.582-1.5 7.5"/><path clip-rule="evenodd" d="M-319.465 1497.946l-2.584-1.513-1.415 2.513M-139.965 1075.946c-2.14 1.703-4.277 3.408-6.46 5.146-2.576-.854 1.077-5.894-3.54-5.146M-614.465 1077.946v8M-89.965 1076.946c-.166 2.5-.56 5.012-.432 7.496.11 2.166 1.32 1.725 2.432.504M-591.465 1077.946v8M-209.465 1520.946l-3.764 4.5h5.765M-203.965 1502.446c2.04.86 3.73 1.107 3.5-2M-80.465 1076.946v8M-360.465 1301.446l-5.5 2M-69.465 1076.946v8M-144.965 1081.446c1.38 1.125 2.76 2.25 4.484 3.658l-2.485.842M-147.465 1081.446v4.033l-2.5.466M-571.465 1080.446l-2.5 6M-120.465 1209.446l-2.5 3.5M-450.465 1498.946l5.5.5M-496.965 1502.946c4.098.013 8.21.018 11.475-3.026.512-.477.69-1.307 1.025-1.974M-569.965 1076.946l3.498 9.496c-.5.166-1 .335-1.498.504M-271.465 1521.946l7.062-.703-.562 2.703M-419.965 1520.946l-1.5 2.5M-396.965 1520.946l-4-1M-333.965 1497.946l-4-1M-372.965 1497.946l-4-1M-282.965 1520.946l-4-1M-469.965 1497.946l-1.5 2.5M-477.965 1497.946l-4-1M-511.965 1497.946l-5-.5M-112.965 1080.946l-1.5 2.5M-233.965 1520.946l-1.5 2.5M-512.965 1520.946l-4-1M-428.965 1497.946l-4-1M-134.965 1108.946h4M-54.965 1108.946h4M-503.965 1086.946h4M-580.965 1086.946h4M-560.965 1086.946h4M-410.465 1497.946l-3.5 3.5M-448.965 1083.946l-9-1M-363.465 1498.446h-1.5M-61.965 1098.946c-3.742 4.298-3.608 6.965.5 10 4.355-3.42 4.355-6.58 0-10M-359.965 1519.946l-2.795 2.602c3.437 4.65 4.004 4.65 6.643-.246-1.055-.74-2.2-1.55-3.348-2.355M-391.965 1519.946l-2.795 2.602c3.437 4.65 4.004 4.65 6.643-.246-1.055-.74-2.2-1.55-3.348-2.355M-476.965 1519.946l-2.795 2.602c3.437 4.65 4.004 4.65 6.643-.246-1.055-.74-2.2-1.55-3.348-2.355"/></g><g fill="none" stroke="#000" stroke-width="2" stroke-linecap="round" stroke-linejoin="round" stroke-miterlimit="10"><path d="M-215.46 5.233c-.404-1.042-.81-2.083-1.356-3.494-2.706 0-5.657-.21-8.584.058-2.702.25-5.38 1.025-8.07 1.55-5.773 1.127-11.388 3.198-16.885 5.925-6.51 3.23-12.692 7.417-18.195 13.445-4.493 4.928-8.528 10.51-11.246 17.74-2.042 5.43-3.08 11.32-2.776 17.457.24 4.818 1.132 9.513 2.948 13.715"/><path clip-rule="evenodd" d="M-216.21 1.2c7.736.954 15.468 1.424 23.105 4.13 6.76 2.398 13.274 5.47 19.47 9.89 6.62 4.72 12.356 11.106 16.91 19.574 3.978 7.407 5.737 15.792 4.98 24.997-.378 4.644-1.698 8.87-3.537 13.044-2.636 5.985-5.83 10.964-9.522 15.463M-165.18 106.31c4.027 4.642 7.695 9.597 10.25 16.305 1.347 3.533 2.74 6.82 3.288 10.837.996 7.376.302 14.325-2.09 20.977-4.09 11.365-10.798 18.718-18.39 24.728-6.893 5.456-14.23 9.022-21.938 11.383-5.966 1.83-11.927 3.094-18.025 3.158-1.376.015-2.75.334-4.125.513"/><path clip-rule="evenodd" d="M-279.812 125.125c-2.303 5.686-2.793 11.92-2.4 18.275.354 5.734 2.08 10.823 4.272 15.6 3.81 8.3 9.207 14.054 15.028 19.05 5.45 4.68 11.332 8.057 17.446 10.45 3.873 1.517 7.872 2.374 11.81 3.567 4.207 1.277 8.463 1.675 12.756 1.637 1.562-.014 3.128.327 4.692.506M-165.18 90.18v16.397h-103.78c.362 6.458 2.498 11.092 5.645 15.074 6.02 7.614 13.285 11.547 20.852 14.42 4.423 1.68 8.962 2.916 13.503 3.738 3.77.682 7.62.46 11.437.64"/><path clip-rule="evenodd" d="M-278.875 125.663c-1.487 9.28.722 17.077 4.902 23.897 4.598 7.508 10.573 12.382 16.9 16.02 5.507 3.166 11.306 5.366 17.052 7.572 2.777 1.066 5.73 1.27 8.612 1.68 4.435.63 8.88 1.116 13.32 1.616.554.062 1.127-.158 1.69-.25M-154.484 124.32c.062 2.24.095 4.48.193 6.72.238 5.578-1.34 10.29-3.387 14.782-3.385 7.43-8.407 12.012-13.693 16.13-6.893 5.37-14.256 8.686-21.942 10.816-4.545 1.26-9.08 2.342-13.705 2.626-2.877.177-5.754.357-8.63.537M-215.834 175.932c-.063.358-.24.777-.17 1.064.26 1.014.605 1.982.92 2.968"/><path clip-rule="evenodd" d="M-272.495 112.222c-.062.538-.038 1.14-.2 1.604-2.786 7.95-1.146 14.782 2.652 20.96 3.394 5.52 7.743 9.107 12.364 12.132 5.488 3.59 11.2 6.262 17.09 7.96 4.003 1.157 8.115 1.568 12.187 2.218 2.808.448 5.624.782 8.44 1.07 1.246.128 2.5.023 3.754.023M-161.24 83.458c.314-2.15.504-4.355.964-6.44 1.026-4.64.04-8.838-1.575-12.603-2.966-6.915-7.65-11.238-12.556-14.732-5.905-4.206-12.216-6.946-18.726-8.727-4.658-1.276-9.332-2.174-14.067-2.758-5.948-.734-11.913-.932-17.822-.32-10.2 1.05-20.252 3.686-29.824 9.066-6.76 3.797-13.005 8.927-17.232 17.738-2.445 5.104-2.7 10.824-.997 16.634.245.826.27 1.784.395 2.68"/><path clip-rule="evenodd" d="M-155.236 71.63c.188-1.97.447-3.934.55-5.914.435-8.248-1.964-14.835-5.783-20.723-5.268-8.123-11.877-13.19-18.994-16.798-5.365-2.718-10.94-4.67-16.5-6.468-3.29-1.065-6.73-1.298-10.117-1.676-3.744-.415-7.506-.863-11.255-.762-4.317.117-8.643.68-12.943 1.312-3.33.49-6.665 1.167-9.94 2.164-3.91 1.19-7.816 2.558-11.625 4.298-7.262 3.316-13.962 8.177-19.73 15.506-3.565 4.533-6.26 9.79-7.468 16.435-.73 4.018-.667 8.083.167 12.09M-161.053 112.222c.375 2.062.69 4.15 1.14 6.177.912 4.114-.022 7.77-1.34 11.286-2.798 7.463-7.544 11.838-12.57 15.558-7.135 5.28-14.756 8.41-22.68 10.327-6.54 1.584-13.107 2.218-19.706 2.62"/><path clip-rule="evenodd" d="M-136.285 49.857c.248 8.25-2.51 14.628-6.193 20.43-5.502 8.663-12.493 14.05-19.89 18.535-.876.528-1.803.875-3.023 1.458.7-4.83-.326-8.376-2.036-11.664-3.442-6.624-8.148-10.745-13.32-13.982-4.84-3.027-9.864-5.17-15.018-6.685-2.666-.785-5.36-1.486-8.067-1.864-4.43-.62-8.874-1.23-13.318-1.303-3.813-.063-7.645.44-11.44 1.046-3.337.53-6.677 1.293-9.94 2.41-9.547 3.266-18.927 7.187-26.072 17.71-2.223 3.277-4.104 6.91-4.136 11.812-.003.717.063 1.438.11 2.415-.35.077-.875.445-1.227.233-6.812-4.102-13.584-8.36-19.13-15.583-3.757-4.892-7.077-10.33-8.26-17.717-.354-2.207-.516-4.476-.768-6.716M-164.617 107.383c-1.03 8.866-5.214 14.338-10.15 18.774-6.777 6.092-14.28 9.516-22.113 11.636-3.797 1.026-7.555 2.14-11.45 2.165-2.562.015-5.12.478-7.953.767l1.2-3.77M-317.71 98.244c.874-.09 1.75-.256 2.626-.258 15.323-.016 30.644-.01 45.965-.01M-164.805 97.437h47.094"/><path clip-rule="evenodd" d="M-165.557 89.104c-.624-.09-1.248-.256-1.874-.257-10.57-.015-21.14-.046-31.71-.002-10.066.044-20.135.18-30.204.257-12.696.1-25.39.18-38.085.282-.312 0-.623.17-.937.258M-269.12 103.35c-4.763.772-9.578.844-14.263 2.656-9.15 3.538-16.077 10.866-20.068 23.42M-303.64 67.33c4.416 12.86 11.73 20.166 21.38 23.16 2.927.905 5.825 1.64 8.827 1.605 1.5-.018 3 .324 4.502.503M-130.468 65.986c-3.48 11.335-9.573 18.415-17.637 22.317-5.487 2.655-11.125 3.583-16.888 3.22"/><path clip-rule="evenodd" d="M-305.89 82.92c4.44 5.14 9.426 8.716 15.01 10.46 1.918.6 3.866 1.157 5.817 1.32 4.118.34 8.25.46 12.38.554 1.248.03 2.5-.327 3.752-.506M-164.805 104.963c1.376.627 2.825 1.035 4.115 1.92 5.358 3.683 10.637 7.554 15.22 13.114 3.11 3.77 5.768 8.072 7.647 13.22 1.328 3.635 2.16 7.572 1.91 11.8M-269.12 105.5c-3.06 1.794-6.274 3.197-9.16 5.464-4.99 3.924-9.68 8.554-13.545 14.69-2.896 4.586-4.812 9.893-5.78 15.878-.21 1.276-.03 2.68-.03 4.023M-164.805 102.814c6.303.596 12.585 1.09 18.59 4.513 7.177 4.09 12.415 11.013 15.933 20.755M-128.406 82.383c-3.715 4.39-7.88 7.435-12.562 9.192-3.59 1.346-7.164 2.516-10.89 2.656-1.816.068-3.63.5-5.44.48-2.505-.025-5.004-.32-7.506-.5M-269.12 101.2c-4 0-8.008-.153-12.005.03-8.51.398-16.494 3.3-23.457 10.715-.472.503-.996.903-1.497 1.352"/><path clip-rule="evenodd" d="M-164.805 100.664c3.88-.09 7.76-.35 11.632-.23 6.533.2 12.895 1.798 18.744 6.193 2.236 1.676 4.272 3.895 6.397 5.864M-269.12 107.115c-2.972 3.912-6.217 7.48-8.233 12.65-.68 1.743-1.144 3.66-1.71 5.51-.063-.052-.308-.246-1.076-.855l1.266-.906M-278.875 72.975c-.28-.303-.563-.604-.857-.92.294-.424.483-.693.705-1.01 1.6 7.895 5.878 12.7 9.908 17.79M-215.273 33.19c-.498 1.343-1 2.688-1.5 4.032M-215.46 15.45c-.438 1.162-.874 2.328-1.313 3.492M-216.022 194.48l1.126 3.226M-216.022 158.46c.312 1.074.624 2.15.938 3.225M-215.646-2.294l-1.127 4.034M-215.646 52.007c-.318.803-.634 1.607-1.015 2.568.384 1.237.792 2.56 1.2 3.883M-268.744 90.717c-.062 4.928-.133 9.856-.17 14.784-.003.358.232.72.36 1.077"/></g><g fill="none" stroke="#000" stroke-width="2" stroke-linecap="round" stroke-linejoin="round" stroke-miterlimit="10"><path d="M193.495 52.25c.535 1.37 1.247 2.7 1.578 4.115 1.382 5.935 2.943 11.85 3.88 17.86 1.18 7.55 1.998 15.166 1.875 22.846-.067 4.286.174 8.582-.062 12.855-.255 4.595-.757 9.19-1.416 13.747-.79 5.438-1.716 10.87-2.872 16.242-.718 3.337-1.993 6.552-2.962 9.84-.205.697-.15 1.47-.272 2.114-4.828 13.266-11.085 25.697-21.643 35.838-4.422-4.677-8.897-9.14-13.06-13.882-6.488-7.39-12.766-14.972-19.134-22.47"/><path clip-rule="evenodd" d="M100.67 14.396c-3.77-2.963-8.007-5.11-12.315-7.15-4.36-2.066-8.868-3.724-13.57-4.804C62.907-.285 51.435.694 40.723 6.772c-3.69 2.093-7.02 4.82-10.33 7.13-4.463-3.35-8.936-6.944-13.667-10.157-2.575-1.75-5.52-2.938-8.886-2.603-2.65.264-4.14 1.75-5.173 3.967C1.125 8.405.88 11.953 1.117 15.462c.292 4.302.786 8.62 1.605 12.85 1.078 5.52 2.5 10.978 3.906 16.43.467 1.812 1.393 3.5 1.986 5.288.204.617.246 1.452-.003 2.027-2.586 5.948-3.678 12.288-4.85 18.59-1.64 8.843-2.64 17.766-2.518 26.78.085 6.072-.05 12.165.432 18.207.456 5.686 1.604 11.313 2.414 16.97.757 5.3 2.102 10.455 3.756 15.535.22.66.668 1.31.666 1.964-.006 1.012-.225 2.05-.505 3.03-1.155 4.06-2.51 8.065-3.517 12.157-1.12 4.543-2.244 9.12-2.814 13.75-.65 5.265-1.232 10.616.274 15.885.61 2.127 1.467 4.012 3.555 5.208 2.363 1.352 4.686.908 6.97.12 4.46-1.54 8.188-4.345 11.783-7.303 2.056-1.688 4.025-3.474 6.104-5.275 4.014 3.62 8.308 6.76 13.187 9.032 5.207 2.425 10.657 3.782 16.418 4.145 9.493.6 18.36-1.7 26.95-5.41 4.987-2.154 9.735-4.765 14.1-8 6.044 4.362 12.645 7.644 19.646 10.166 5.947 2.143 12.074 3.34 18.39 3.37 11.257.052 21.15-3.755 29.808-10.877.948-.778 1.875-1.583 2.576-2.174 4.69 3.52 9.165 7.114 13.893 10.327 2.578 1.75 5.522 2.94 8.888 2.603 2.646-.265 4.13-1.75 5.174-3.966 1.5-3.18 1.763-6.612 1.542-9.997-.28-4.36-.76-8.744-1.606-13.026-1.115-5.646-2.633-11.214-4.07-16.79-.424-1.652-1.163-3.223-1.76-4.83"/><path clip-rule="evenodd" d="M193.406 149.926c-.74-1.726-1.524-3.437-2.223-5.18-2.4-6.005-4.63-12.082-7.186-18.016-2.748-6.382-5.762-12.65-8.728-18.936-.954-2.02-2.173-3.914-3.16-5.92-.237-.477-.237-1.267-.005-1.752 3.35-7.045 6.833-14.024 10.115-21.098 2.403-5.173 4.626-10.433 6.786-15.712 1.335-3.273 2.4-6.656 3.602-9.987.168-.46.412-.89.76-1.64.025-.3-.088-1.048.152-1.655 2.495-6.277 3.98-12.84 5.478-19.39 1.168-5.1 1.913-10.287 1.963-15.528.03-3.013-.184-5.99-1.16-8.948-1.648-5.01-5.604-6.04-10.224-4.427-4.454 1.556-8.188 4.34-11.782 7.312-2.05 1.692-4.026 3.474-6.1 5.27-4.03-3.593-8.294-6.774-13.186-9.03-5.218-2.41-10.66-3.786-16.424-4.14-9.486-.583-18.372 1.65-26.95 5.41-4.848 2.125-9.318 4.917-13.8 7.767-10.244 6.52-18.888 14.835-27.227 23.5-4.007 4.16-7.617 8.702-11.254 12.894 12.45 16.396 24.775 32.626 37.11 48.85.3.397.703.718 1.06 1.075M101.027 101.356c-2.5 3.214-5.016 6.416-7.494 9.645-10.004 13.03-19.995 26.07-29.994 39.104-.206.27-.423.53-.77.956 2.63 3.117 5.266 6.437 8.113 9.557 3.404 3.728 6.935 7.348 10.52 10.9 5.453 5.398 11.302 10.34 17.657 14.663.56.38 1.073.827 1.608 1.245"/><path clip-rule="evenodd" d="M101.562 14.574c3.987 3.155 8.166 6.098 11.913 9.514 5.532 5.045 10.856 10.332 16.08 15.697 3.44 3.534 6.553 7.386 9.697 10.964-12.865 16.836-25.6 33.5-38.394 50.246l38.318 50.154c-9.638 11.94-20.23 23.128-32.618 32.52-1.7 1.286-3.448 2.504-5.174 3.755M62.824 51.358c-2.32 2.917-4.708 5.782-6.948 8.76C48.488 69.94 41.976 80.34 35.872 91c-1.67 2.914-3.33 5.834-5.007 8.745-.125.21-.35.362-.53.54M171.72 101.714c-1.37 2.262-2.797 4.49-4.098 6.79-8.228 14.534-17.244 28.54-27.685 41.6-.154.195-.35.36-.53.537M139.407 51.358c3.45 4.584 6.95 9.13 10.343 13.758 6.34 8.646 11.803 17.856 17.147 27.135 1.436 2.496 2.85 5.002 4.294 7.496.12.21.35.362.53.54"/><path clip-rule="evenodd" d="M8.735 52.072c.95 2.38 1.898 4.764 2.857 7.143 2.14 5.3 4.184 10.638 6.453 15.882 2.746 6.355 5.66 12.642 8.56 18.93.844 1.836 1.843 3.604 2.846 5.36 4.388 7.69 8.644 15.458 13.242 23.015 6 9.86 12.573 19.34 19.955 28.238M30.335 101.714c-1.188 2.023-2.52 3.98-3.542 6.084-2.756 5.674-5.565 11.337-8.017 17.147-3.274 7.78-6.23 15.695-9.333 23.55-.193.493-.47.954-.708 1.43M62.824 151.354c-2.082 2.442-4.15 4.893-6.25 7.32-5.05 5.84-10.043 11.73-15.195 17.48-3.51 3.917-7.243 7.63-10.944 11.506-5.77-5.417-10.107-11.615-13.845-18.27-2.88-5.134-5.098-10.565-7.15-16.068-.164-.444-.466-.837-.704-1.253M193.406 49.93c-.623-1.37-1.32-2.71-1.862-4.11-4.427-11.45-10.294-21.997-19.102-30.72-.21-.208-.264-.57-.545-1.21-4.984 5.353-9.65 10.156-14.075 15.174-5.472 6.206-10.736 12.594-16.095 18.902-.765.9-1.548 1.786-2.32 2.68M8.735 49.93c.833-1.964 1.716-3.91 2.49-5.896 4.188-10.738 11.4-22.768 19.32-29.643 4.327 4.58 8.812 9.038 12.964 13.785 6.145 7.025 12.054 14.258 18.074 21.39.35.413.826.722 1.24 1.08"/></g><g clip-rule="evenodd" fill="none" stroke="#000" stroke-width="2" stroke-linecap="round" stroke-linejoin="round" stroke-miterlimit="10"><circle cx="-513.229" cy="97.742" r="99.994"/><circle cx="-513.229" cy="97.742" r="41.31"/><path d="M-513.465-2.554v200M-457.843 14.58c-16.817-10.076-28.3 13.75-55.784 13.75M-569.81 15.456c14.798-10.75 28.298 12.874 55.783 12.874M-457.843 181.006c-16.817 10.075-28.3-14.468-55.784-14.468M-570.027 179.93c16.817 10.075 28.516-13.392 56-13.392"/><g><path d="M-413.236 97.43c.748-15.048-27.614-14.66-38.138-34.92M-457.843 14.58c17.26 10.22-4.367 27.07 6.314 47.63"/><g><path d="M-413.236 97.43c.312 15.422-27.615 15.41-38.138 35.665M-457.598 180.843c15.79-9.132-4.612-26.888 6.07-47.45"/></g></g><g><path d="M-612.944 98.164c-1.85-17.108 26.6-15.828 37.28-36.39M-569.44 15.277c-17.065 9.524 4.612 25.637-6.068 46.2"/><g><path d="M-612.944 95.97c-3.01 17.1 26.6 15.826 37.28 36.388M-570.027 179.93c-16.587-10.697 5.2-26.71-5.48-47.272"/></g></g></g></svg>