<svg xmlns="http://www.w3.org/2000/svg" width="202.001" height="202.288" viewBox="0 0 202.001 202.288"><g fill="none" stroke="#000" stroke-width="2" stroke-linecap="round" stroke-linejoin="round" stroke-miterlimit="10"><path d="M340.758 1333.5c2.427 16.776 3.327 33.55 1.633 50.514-1.124 11.273-2.674 22.455-6.772 32.932-6.11 15.62-14.705 29.278-29.172 39.324-12.602 8.75-25.752 14.904-40.68 17.766-9.37 1.796-18.252-.432-26.986-3.104-18.51-5.665-33.37-16.16-44.702-32.304-9.793-13.95-15.133-29.54-17.968-45.688-2.904-16.536-3.89-33.542-1.39-50.444.437-2.96.372-5.994.538-8.994"/><path clip-rule="evenodd" d="M145.258 1314.5c-8.834 3.834-17.686 7.624-26.496 11.51-13.516 5.963-27.252 11.497-40.438 18.12-14.787 7.43-29.18 15.675-43.523 23.945-8.238 4.75-16.015 10.302-24.067 15.386-1.492.942-3.31 1.374-4.975 2.04M6.258 1220c2.666 1.334 5.546 2.36 7.967 4.047 22.4 15.603 46.33 28.496 71.062 39.89 19.855 9.146 39.97 17.73 59.97 26.563M164.758 1330c-4.334 9.5-9.207 18.797-12.875 28.547-5.7 15.153-10.642 30.562-14.25 46.424-3.957 17.386-4.45 34.91-3.754 52.525.237 6.03 1.878 12.005 2.878 18.005M185.758 1333c4.166-2.166 8.916-3.65 12.396-6.62 13.288-11.343 14.543-27.627 6.09-41.872-9.416-15.868-23.78-17.515-36.872-13.624-9.782 2.907-16.645 10.993-19.094 21.62-2.62 11.365-.447 21.538 7.98 29.994 8.032 8.056 17.497 11.99 29 10.002M361.258 1324c12.22 8.5 22.064 19.587 32.44 30.06 8.792 8.876 17.395 17.99 25.47 27.517 8.895 10.498 17.328 21.414 25.512 32.482 6.066 8.203 11.48 16.895 17.035 25.468 1.61 2.486 2.71 5.307 4.043 7.973M464.258 1139.5c-9.44 7.15-14.52 17.406-20.104 27.44-5.524 9.933-11.668 19.545-17.956 29.02-7.413 11.17-14.988 22.255-23.034 32.97-6.025 8.023-12.773 15.52-19.44 23.04-7.515 8.468-15.3 16.696-22.966 25.03M350.258 1329c4.166 8.5 8.585 16.888 12.438 25.528 4.926 11.05 10.22 22.046 13.838 33.542 3.834 12.186 6.23 24.865 8.607 37.452 1.616 8.55 2.38 17.292 3.007 25.985.31 4.287-.555 8.658-.89 12.992M209.258 1144.5c-6.744 3.028-10.47 9.175-15.008 14.492-11.49 13.46-17.25 29.625-20.26 46.55-2.566 14.43-3.795 29.174-2.292 43.964.538 5.296.394 10.66.56 15.994M132.758 1347c-3.834 4-8.018 7.723-11.44 12.05-14.145 17.884-28.59 35.57-41.892 54.07-10.584 14.723-19.81 30.44-26.697 47.368-1.122 2.753-2.638 5.345-3.972 8.012M483.758 1223.5c-2.834 2.5-5.305 5.73-8.573 7.353-7.442 3.694-12.162 10.797-19.837 14.34-9.047 4.177-17.31 10.02-26.12 14.752-10.372 5.57-20.848 10.982-31.506 15.98-9.663 4.528-19.63 8.41-29.464 12.575M329.758 1331c-3.334 10.166-5.828 20.71-10.184 30.418-7.768 17.31-17.932 33.098-35.336 42.545-8.213 4.457-17.125 7.406-26.463 6.773-4.17-.283-5.986 3.42-9.518 3.264M68.258 1177.5c9.666 13.666 18.936 27.64 29.117 40.91 9.28 12.092 19.254 23.69 29.477 35.006 8.205 9.083 17.24 17.418 25.906 26.084"/><path clip-rule="evenodd" d="M326.258 1266.5c-1.334-5-2.167-10.202-4.094-14.963-5.887-14.55-13.2-28.484-24.007-39.942-19.257-20.42-47.774-27.823-73.893-10.585-12.745 8.412-21.848 19.93-27.423 34.023-4.417 11.168-8.083 22.633-12.083 33.967M365.758 1312c16 6.166 32.13 12.022 47.963 18.588 15.503 6.428 30.707 13.574 46.034 20.42 1.36.607 2.67 1.326 4.004 1.992M132.258 1126.5c-.834 11.166-2.864 22.398-2.262 33.486 1.45 26.697 6.504 52.793 17.262 77.514 4.498 10.334 9.006 20.664 13.486 31.006.27.622.348 1.328.514 1.994M376.258 1147.5c.666 1.5 1.938 3.013 1.907 4.498-.33 15.934-1.38 31.84-4.51 47.482-1.59 7.948-3.803 15.836-6.49 23.487-5.186 14.776-10.907 29.366-16.407 44.032M185.758 1333.5c3.166 9.166 5.78 18.572 9.616 27.45 7.786 18.017 18.495 34.003 36.464 43.397 5.994 3.133 12.92 4.486 19.42 6.652"/><path clip-rule="evenodd" d="M494.758 1290l-6.16 6.713c-7.998.406-16.666.9-25.34 1.275-12.665.547-25.33 1.134-38 1.477-12.163.33-24.334.342-36.5.547-5.834.1-11.67.252-17.498.535-1.544.074-3.06.717-4.81 1.154-.147 12.063-6.28 20.258-16.245 25.702-2.988 1.633-6.557 2.658-9.957 3.006-21.506 2.205-40.882-17.21-34.068-40.432 5.595-19.068 33.018-29.83 50.27-14.19 7.922 7.183 9.494 15.952 11.31 25.214M318.758 1329c-5.334 6.666-10.548 13.434-16.027 19.978-9.27 11.073-20.862 18.6-34.98 21.992-2.948.71-5.98 1.29-8.996 1.41-1.305.052-2.77-1.06-3.97-1.915-1.926-1.37-3.69-2.965-5.525-4.465M195.758 1272.5c6.68-10.174 14.577-19.28 24.016-26.98 6.916-5.645 14.854-9.34 23.49-11.494 3.295-.822 6.703-2.094 9.986-1.9 16.067.94 30.296 6.87 41.908 17.98 6.717 6.424 12.434 13.895 18.6 20.895M197.258 1331.5c3.166 4.334 6.16 8.807 9.533 12.973 9.34 11.537 20.446 20.7 34.972 25.014 3.138.93 6.33 1.68 9.496 2.514"/><path clip-rule="evenodd" d="M312.258 1320.5c-8.166 5.334-16.138 11.002-24.55 15.913-9.938 5.802-21.01 7.888-32.45 8.087M318.758 1164c13.22 19.103 18.713 40.692 19.908 63.505.54 10.305.055 20.662.115 30.995.018 3 .312 6 .478 9M205.258 1323.5c14.168 11.97 30.09 19.648 48.912 20.387-.848 3.74-.848 3.74-6.912 5.113M248.258 1289c2.334-2 4.637-4.036 7.02-5.977.676-.55 1.58-.823 2.705-2.006l46.775 10.482M146.758 1303.5c-21.834.166-43.666.393-65.5.482-19.833.082-39.667-.026-59.5.062-3.168.014-6.334.62-9.5.955M308.758 1281.5c-8.5-7.04-17.745-12.937-28.02-16.945-16.087-6.275-32.133-6.91-48.548-.222-9.704 3.954-17.75 10.24-26.432 15.667M252.758 1283.5c-8.5.834-17.053 1.32-25.48 2.624-5.436.84-10.686 2.876-16.02 4.376M292.258 1139.5c-11.965-7.365-24.654-12.322-39-12.02-6.928.144-13.634 1.187-20 4.02M255.008 1304c-.25-.5-.504-1.44-.75-1.438-12.666.096-25.334.26-38 .457-1.002.015-2 .313-3 .48M43.758 1128.5c6.666 13.834 13.338 27.664 19.994 41.502.873 1.814 1.672 3.664 2.506 5.498M303.758 1302c-.334.166-.665.476-1 .48-15.666.19-31.334.353-47 .52M144.258 1087.5h-7.26c-1.27-2.804-2.318-5.11-3.455-7.616-5.04 3.958-5.04 7.473-.266 11l2.48-3.384M96.758 1500.5c-1.32-2.737-2.86-5.448-6.47-3.443-3.163 1.758-3.526 5.126-.972 7.89.787.85 2.402 1.653 3.416 1.437 2.674-.568 4.393-2.313 4.025-5.384M294.258 1140.5c9.316 5.95 16.86 13.752 23.5 22.5M281.258 1320l-25.902 2.874-.006-.735-5.592 3.86M154.258 1325.5l-20.5 20.5M73.258 1080.5l-1 1.5c-2-2.248-4.248-2.414-5.907.062-1.002 1.496-1.937 3.914-1.404 5.37.913 2.49 3.424 3.645 6.31 3.055.353-.072.67-.32 1.98-.974-.64-1.298-1.31-2.656-1.977-4.014M17.258 1081.5c-.654 3.115 1.91 7.303-2.64 9.06-4.616-.257-3.727-3.412-3.892-6.058-.105-1.694 1.166-4.42-2.47-4.002M89.258 1532.5c3.463-1.907.373-5.125 1.92-7.834l-7.713-1.39-.398 1.55 5.37 3.06c-3.6 2.3-3.625 2.297-5.18-.386M253.758 1322c-4-.334-8.01-.587-11.998-1.023-3.512-.386-7.002-.977-10.502-1.477M392.258 1532.5c3.463-1.907.373-5.125 1.92-7.834l-7.713-1.39-.398 1.55 5.37 3.06c-3.6 2.3-3.625 2.297-5.18-.386M303.758 1313l-19.5 5.5M375.758 1129.5c1 5.5 2.04 10.994 2.94 16.51.1.596-.606 1.324-.94 1.99M464.758 1354l17 10M156.758 1086l-1.568-5.81c-.604-.083-1.21-.167-1.814-.253l-3.8 5.918 6.683.645M347.758 1299l-22 .75M220.258 1502.5l-1.683-2.52-4.258 2.473c5.607 6.02 17.318 4.48 20.44-.953M461.258 1129.5l-6.5 14.5M465.758 1449.5c.666 1.834 1.24 3.707 2.02 5.49 1.255 2.868 2.646 5.676 3.98 8.51M224.258 1318l-15-4M15.258 1308c-4.832-1.843-9.328-5.362-15-3M476.258 1111.5l-7.035 1.563 6.588-7.927c-1.343-1.346-2.343-2.346-4.087-4.09-1.22 2.207-1.843 3.33-2.465 4.453M518.258 1111.5l-7.035 1.563 6.588-7.927c-1.343-1.346-2.343-2.346-4.087-4.09-1.22 2.206-1.844 3.33-2.465 4.453M288.758 1502.5c-2.61-3.32-4.485-2.246-6.388.85 1.93 3.24 3.685 5.034 6.388 1.15M197.258 1502.5l-1.428-2.137c-3.307 1.88-5.09 3.746-.47 5.462 1.798.225 3.593.503 5.4.66 1.755.15 3.506.16 2.997-2.485M123.258 1089.5l-7.035 1.563 6.588-7.927c-1.343-1.346-2.343-2.346-4.087-4.09-1.22 2.206-1.844 3.33-2.465 4.453M503.258 1375c-2.52.37-5.038.738-6.844 1.002-4.528-3.1-8.842-6.05-13.156-9.002M311.258 1502.5l-1.392-2.083c-4.03 3.087-4.03 3.087-.43 6.24 1.054-.524 2.188-1.09 3.32-1.657M412.258 1525.5l-1.392-2.083c-4.03 3.087-4.03 3.087-.43 6.24 1.054-.524 2.188-1.09 3.32-1.657M340.258 1519.5c-4.584 5.468-4.684 6.76-1 13M127.258 1080.5l-3 13M148.258 1080.5l-3 13M421.258 1519.5c4.91 5.855 4.91 7.757 0 13M468.258 1102.5c-4.584 5.468-4.684 6.76-1 13M493.258 1102.5c4.91 5.855 4.91 7.757 0 13M244.258 1505.5l6.076 1.733c.033.377.068.753.102 1.13l-6.433 1.326c-.08-.397-.163-.794-.244-1.19l.998-1.5M23.258 1085.5l5.963-1.322c-2.036-5.244-6.007-3.023-8.962-3.678M545.258 1084.5l5.963-1.322c-2.036-5.244-6.007-3.023-8.962-3.678M534.258 1084.5l5.963-1.322c-2.036-5.244-6.007-3.023-8.962-3.678M.258 1085.5l5.963-1.322c-2.036-5.244-6.007-3.023-8.962-3.678M188.758 1302.75l-12 .25M8.258 1379.5c-1.203 2.818-2.404 5.637-3.622 8.488l4.43 1.096L14.26 1387M382.758 1133.5l-3 11.5M351.758 1501.5c-2.445-1.557-3.37-.07-4.508 2.754 1.76.896 3.42 1.74 5.508 2.805V1498M121.758 1524.5c-2.445-1.557-3.37-.07-4.508 2.754 1.76.896 3.42 1.74 5.508 2.805V1521M108.758 1501.5c-2.445-1.557-3.37-.07-4.213 2.022 1.248 2.84 2.874 4.076 5.713 1.978M394.258 1529.5l5.584-2.03-2.998-3.865-2.586.896"/><path clip-rule="evenodd" d="M560.258 1082.5l-3.088-4.48-2.83 4.548 5.473 4.36c-2.746 3.464-2.746 3.464-6.874-.755-2.334 5.047-6.896 2.764-10.682 3.326M363.258 1529.5l5.584-2.03-2.998-3.865-2.586.896M45.758 1134.5l-2.5 11M270.258 1506.5l5.584-2.03-2.998-3.865-2.586.896M91.258 1529.5l5.584-2.03-2.998-3.865-2.586.896M541.258 1106.5c3.186-1.48 4.455.556 5.76 2.982-1.172 2.36-2.515 3.84-5.26 2.518M175.758 1288.5c.166 6.5.307 13 .516 19.5.064 2.003.318 4 .484 6M258.758 1502.5l4.738 2.348c-4.14 2.645-8.514 2.264-11.883-.987l1.613-4.032 4.057 2.65-.02-.978h5.995M384.758 1502.5l4.738 2.348c-4.14 2.645-8.514 2.264-11.883-.987l1.613-4.032 4.057 2.65-.02-.978h5.995M491.258 1079.5c2.16 2.585 2.16 7.415 0 10M158.258 1496.5c2.16 2.585 2.16 7.415 0 10M207.258 1496.5c2.16 2.585 2.16 7.415 0 10M489.758 1210.5c-1.166 3.5-2.265 7.025-3.56 10.478-.247.657-1.274 1.022-1.94 1.522M259.258 1523.5l2.463 5.75h3.69c-.838-2.237-1.495-3.993-2.15-5.75M343.258 1496.5c2.16 2.585 2.16 7.415 0 10M360.258 1496.5c.5 1.167 1.27 2.296 1.437 3.51.245 1.8.063 3.657.063 5.49M227.258 1523.5l2.463 5.75h3.69c-.838-2.237-1.495-3.993-2.15-5.75M398.258 1497.5c-.23 2.828-.457 5.657-.686 8.498 5.928-.044 12.38 2.438 16.186-4.498M178.258 1497.5c-.23 2.828-.457 5.657-.686 8.5h5.186v-4.5M202.258 1520.5c-.23 2.828-.457 5.657-.686 8.5h13.186v-4.5M278.258 1520.5c-.23 2.828-.457 5.657-.684 8.47l8.934.54v-6.01h-2.75M222.258 1135.5l-10 6M298.258 1500.5l2.568 5.997 4.932-.497M140.258 1462.5l-4.582 7.722c-1.846-1.584-3.38-2.903-4.918-4.222M45.758 1462.5l1.686 9.143c.535.23 1.07.457 1.606.685l5.708-5.327M330.258 1506.5l2.51-6h-8.51M524.258 1102.5l-5.817 7h11.818M490.258 1102.5l-5.817 7h7.818M475.258 1454.5l-9-6M165.258 1529.5l2.512-6h-8.512M496.258 1219l-6.732 2.72c-.3-.16-1.283-.69-2.268-1.22M245.258 1185.5c2.848 2.485 8.387 2.28 8.004 8.133l-6.504 4.367M175.758 1528.5v-5.153l-4 .488v4.665M505.258 1107.5h2.99c.097 5.398.097 5.398-3.99 4M535.258 1107.5h2.99c.097 5.398.097 5.398-3.99 4M242.758 1122l8 5.5M156.758 1528.5v-5.153l-4 .488v4.665M104.758 1525.5h4.307c-3.826-2.37-3.826-2.37-5.307 1.5 3.368 3.25 8.347 2.12 11-2.5M301.758 1525.5h4.307c-3.826-2.37-3.826-2.37-5.348 1.607 2.1 3.916 4.554 2.382 7.04.393M122.758 1505.5v-5.153l-4 .488v4.665M502.258 1296.5c-3.166.166-6.332.385-9.5.47-.996.026-2-.304-3-.47M370.258 1139l5 8M248.758 1278l7.5 4M369.258 1506.5h5.25v-6.123l-3.75.458v4.665M167.258 1502c-3.02-1.87-3.02-1.87-4.52 2.05 1.377 3.018 3.715 3.314 5.942 1.362 1.527-1.338 2.33-3.506 3.71-5.71l1.867 2.798M14.258 1216l-8.5 1M354.758 1528.5v-5.3c-1.95.562-3.225.93-4.5 1.3M516.758 1085.5h4.307c-3.826-2.37-3.826-2.37-5.348 1.607 2.1 3.916 4.554 2.38 7.04.393"/><path clip-rule="evenodd" d="M166.758 1520l-4.398-1.845-.87 11.345h-10.23M151.758 1502.5h4.307c-3.826-2.37-3.826-2.37-5.383 1.698 2.006 3.04 4.165 3.312 6.576.302M314.758 1502.5h4.307c-3.826-2.37-3.826-2.37-5.383 1.698 2.006 3.04 4.165 3.312 6.576.302M336.758 1502.5h4.307c-3.826-2.37-3.826-2.37-5.383 1.698 2.006 3.04 4.165 3.312 6.576.302M131.258 1520.5c-.188 2.99-.374 5.98-.56 8.97l1.99.968 1.07-2.438M415.758 1525.5h4.307c-3.826-2.37-3.826-2.37-5.383 1.698 2.006 3.04 4.165 3.312 6.576.302M75.258 1080.5c.834.166 2.38.295 2.393.506.16 2.992.16 5.996 0 8.988-.01.21-1.558.34-2.392.506M290.758 1525.5h4.307c-3.826-2.37-3.826-2.37-5.383 1.698 2.006 3.04 4.165 3.312 6.576.302M250.758 1128.5l-7.5 6M503.258 1079.5l2 .373c0 2.635.148 5.145-.092 7.618-.07.725-1.242 1.344-1.908 2.01M453.258 1136.5l1.5 10M125.258 1137.5c1.344-2.806 3.18-5.03 6.967-5.867l4.533 7.367M371.258 1520.5c-.188 2.99-.374 5.98-.56 8.97l1.182.178 1.378-1.147M253.758 1233l-6 6.5M246.758 1254.5l7.04 5.865-6.54 5.635M418.258 1497.5c-.188 2.99-.374 5.98-.56 8.97l1.182.178 1.378-1.147M477.758 1085.5h11.307c-3.684-2.283-3.684-2.283-5.388 1.69 2.01 3.05 4.17 3.32 6.58.31M185.258 1520.5c-.188 2.99-.374 5.98-.56 8.97l1.182.178 1.378-1.147"/><path clip-rule="evenodd" d="M481.258 1085c-3.02-1.87-3.02-1.87-4.576 2.2 1.688 2.463 3.55 3.614 6.076.8M498.758 1377.5l6 6M492.758 1298.5l7 4.5M269.258 1520.5c-.188 2.99-.374 5.98-.56 8.97l1.182.178 1.378-1.147M403.758 1500.5c4.58-.48 2.52 3.02 3 5M27.758 1086c.682.48 1.363.957 2.176 1.527-1.95 5.38-6.635 1.572-9.676 2.973M4.758 1086c.682.48 1.363.957 2.176 1.527-1.95 5.38-6.635 1.572-9.676 2.973M346.258 1525c-3.02-1.87-3.02-1.87-4.55 2.13 2.24 4.01 5.116 2.678 8.32-1.29l-.15 2.822-2.12.338M54.258 1134.5l-.406 1.197c-1.903-.236-3.748-.467-5.594-.697M353.258 1529.5h5.25v-6.188l-2.75.688M224.758 1500.5c4.58-.48 2.52 3.02 3 5M321.758 1525.5h4.307c-3.826-2.37-3.826-2.37-5.368 1.66 2.276 3.788 5.075 3.06 8.4-1.88l-.218 3.382-2.122.338M538.758 1085c.682.48 1.363.957 2.176 1.527-1.95 5.38-6.635 1.572-9.676 2.973M245.758 1523.5h2.75v5.94l-4.32-.377c-2.382 2.066-4.537 5.207-8.516 2.567l1.086-1.63M561.258 1102.5l-.5 9M35.258 1080.5l-.5 9M55.258 1080.5l-.5 9M314.758 1523.5h2.75v5.5h-8.904c.22-2.84.437-5.67.654-8.5M112.258 1080.5l-.5 9M249.258 1404.5l6 5.5M207.758 1523.5c4.58-.48 2.52 3.02 3 5M481.258 1102.5l-.5 9M14.258 1298l-6.5 4.5M512.258 1080.5v9M89.258 1082.5c-.666-.666-1.268-1.806-2.013-1.908-1.962-.27-3.987-.092-5.987-.092M386.758 1456l-5 5.5M547.258 1102.5c-2.06.158-4.97-.954-4.5 3M178.258 1523.5l2.512 6h-10.512M146.258 1523.5c2.115 2.183 2.115 3.817 0 6M495.758 1377l1.5 6M236.258 1528.5l6 2M112.258 1500.5l2.235 5.98c-4.916-1.908-4.916-1.908-4.735-8.48M187.258 1500.5c2.115 2.183 2.115 3.817 0 6M506.258 1081l5 6M254.758 1372l-4.5 3.5M302.258 1500.5c3.08.893.756 3.406 1.5 5M364.258 1500.5l2.377 5.68-6.377.32M155.758 1087.5l-4.5 3M376.258 1523.5c-.5.17-.998.34-1.628.552l3.26 4.884c-.943.927-2.288 2.246-3.632 3.564M248.758 1339l5 4M140.258 1500.5l-1.628.552 3.26 4.884c-.942.927-2.288 2.246-3.632 3.564M497.258 1083.5l-1.628.552 3.26 4.884c-.943.927-2.288 2.246-3.632 3.564M190.258 1523.5l-1.628.552 3.26 4.884c-.942.927-2.288 2.246-3.632 3.564M507.258 1107c.485-.842.97-1.686 1.515-2.63-1.515-.844-3.015-4.506-4.515.13M244.258 1228l5 3.5M537.258 1107c.485-.842.97-1.686 1.515-2.63-1.515-.844-3.015-4.506-4.515.13M170.258 1505c1.387 2.973 3.3.672 5 .5M290.758 1504.5l5 2.535V1498M246.258 1504.5l4.002-1.576-3.602-3.72-1.9 3.796M229.258 1132.5l-5 2M238.258 1527.5l4.002-1.576-3.602-3.72-1.9 3.796M465.758 1455.5l-.5 5M6.758 1224.5c-1.53-2.832-.324-7.323-5-8.25M327.258 1496.5c-.166 2.667-.156 5.364-.607 7.98-.136.788-1.558 1.353-2.392 2.02M206.758 1521v7.5M244.758 1521v7.5M402.758 1498v7.5M282.758 1521v7.5M223.758 1498v7.5M313.758 1521v7.5M110.758 1528.5c2.05 1.407 3.956 2.438 4-1.5M362.758 1525c-.824 2.435 1.912 5.582-1.5 7.5M98.758 1524.5c-.744 1.594 1.58 4.107-1.5 5M163.258 1080.5l-.5 10M142.258 1080.5l-.5 10M83.758 1081.5c0 2.334.205 4.695-.115 6.984-.107.768-1.55 1.35-2.385 2.016M277.758 1501.5c-.744 1.594 1.58 4.107-1.5 5M161.758 1082.5l-3 3.5M99.758 1501.5c-.744 1.594 1.58 4.107-1.5 5M140.758 1082.5l-3 3.5M133.758 1501.5v5.018l-7.5-.518M523.758 1105v7.5M489.758 1105v7.5M238.758 1501.5v5.02c-2.523-.176-5.012-.348-7.5-.52M269.758 1502c-.824 2.435 1.912 5.582-1.5 7.5"/><path clip-rule="evenodd" d="M294.758 1501.5l-2.584-1.513-1.416 2.513M474.258 1079.5c-2.14 1.703-4.277 3.408-6.46 5.146-2.576-.854 1.077-5.894-3.54-5.146M-.242 1081.5v8M524.258 1080.5c-.166 2.5-.56 5.012-.432 7.496.11 2.166 1.32 1.725 2.432.504M22.758 1081.5v8M404.758 1524.5l-3.764 4.5h5.764M410.258 1506c2.04.86 3.73 1.107 3.5-2M533.758 1080.5v8M253.758 1305l-5.5 2M544.758 1080.5v8M469.258 1085c1.38 1.125 2.76 2.25 4.484 3.658l-2.484.842M466.758 1085v4.033c-.83.155-1.665.31-2.5.467M42.758 1084l-2.5 6M493.758 1213l-2.5 3.5M163.758 1502.5l5.5.5M117.258 1506.5c4.098.013 8.21.018 11.475-3.026.512-.477.69-1.307 1.025-1.974M44.258 1080.5l3.498 9.496c-.5.166-1 .335-1.498.504M342.758 1525.5l7.062-.703-.562 2.703M194.258 1524.5l-1.5 2.5M217.258 1524.5l-4-1M280.258 1501.5l-4-1M241.258 1501.5l-4-1M331.258 1524.5l-4-1M144.258 1501.5l-1.5 2.5M136.258 1501.5l-4-1M102.258 1501.5l-5-.5M501.258 1084.5l-1.5 2.5M380.258 1524.5l-1.5 2.5M101.258 1524.5l-4-1M185.258 1501.5l-4-1M479.258 1112.5h4M559.258 1112.5h4M110.258 1090.5h4M33.258 1090.5h4M53.258 1090.5h4M203.758 1501.5l-3.5 3.5M165.258 1087.5l-9-1M250.758 1502h-1.5M552.258 1102.5c-3.742 4.298-3.608 6.965.5 10 4.355-3.42 4.355-6.58 0-10M254.258 1523.5l-2.795 2.602c3.437 4.65 4.004 4.65 6.643-.246-1.055-.74-2.2-1.55-3.348-2.355M222.258 1523.5l-2.795 2.602c3.437 4.65 4.004 4.65 6.643-.246-1.055-.74-2.2-1.55-3.348-2.355M137.258 1523.5l-2.795 2.602c3.437 4.65 4.004 4.65 6.643-.246-1.055-.74-2.2-1.55-3.348-2.355"/></g><g fill="none" stroke="#000" stroke-width="2" stroke-linecap="round" stroke-linejoin="round" stroke-miterlimit="10"><path d="M398.762 8.787c-.403-1.042-.808-2.083-1.355-3.494-2.706 0-5.657-.21-8.584.06-2.702.25-5.38 1.024-8.07 1.55-5.773 1.126-11.388 3.197-16.885 5.924-6.51 3.23-12.692 7.417-18.195 13.445-4.493 4.928-8.528 10.51-11.246 17.74-2.042 5.43-3.08 11.32-2.776 17.457.24 4.817 1.133 9.512 2.95 13.714"/><path clip-rule="evenodd" d="M398.014 4.755c7.735.953 15.467 1.423 23.104 4.13 6.76 2.397 13.274 5.47 19.47 9.888 6.62 4.72 12.356 11.107 16.91 19.575 3.978 7.407 5.737 15.792 4.98 24.997-.378 4.643-1.698 8.868-3.537 13.043-2.635 5.985-5.83 10.964-9.52 15.463M449.044 109.862c4.026 4.643 7.694 9.598 10.25 16.306 1.346 3.533 2.74 6.82 3.287 10.837.997 7.376.303 14.325-2.09 20.977-4.088 11.366-10.797 18.72-18.39 24.73-6.892 5.455-14.23 9.02-21.937 11.382-5.966 1.828-11.927 3.093-18.025 3.157-1.376.016-2.75.335-4.125.514"/><path clip-rule="evenodd" d="M334.41 128.68c-2.303 5.685-2.793 11.918-2.4 18.274.354 5.734 2.08 10.823 4.272 15.6 3.81 8.3 9.207 14.054 15.028 19.05 5.45 4.68 11.332 8.057 17.446 10.45 3.873 1.517 7.872 2.374 11.81 3.567 4.207 1.278 8.463 1.676 12.756 1.638 1.562-.014 3.128.327 4.692.506M449.044 93.733v16.398H345.262c.363 6.46 2.5 11.093 5.646 15.075 6.02 7.613 13.285 11.546 20.852 14.418 4.423 1.68 8.962 2.917 13.503 3.74 3.77.68 7.62.46 11.437.64"/><path clip-rule="evenodd" d="M335.348 129.216c-1.487 9.28.722 17.077 4.902 23.897 4.598 7.508 10.573 12.382 16.9 16.02 5.507 3.166 11.306 5.366 17.052 7.572 2.778 1.066 5.73 1.27 8.613 1.68 4.435.63 8.88 1.116 13.32 1.616.554.063 1.127-.157 1.69-.248M459.738 127.874c.062 2.24.095 4.48.193 6.72.24 5.578-1.338 10.29-3.385 14.782-3.385 7.43-8.407 12.012-13.693 16.13-6.893 5.37-14.256 8.686-21.942 10.816-4.545 1.26-9.08 2.342-13.705 2.626-2.877.177-5.754.357-8.63.537M398.39 179.486c-.064.358-.242.777-.17 1.064.26 1.014.604 1.982.92 2.968"/><path clip-rule="evenodd" d="M341.728 115.776c-.062.538-.038 1.14-.2 1.604-2.786 7.95-1.146 14.782 2.652 20.96 3.394 5.52 7.743 9.107 12.364 12.132 5.487 3.59 11.2 6.262 17.09 7.96 4.002 1.157 8.114 1.568 12.186 2.218 2.808.448 5.624.782 8.44 1.07 1.246.128 2.5.023 3.754.023M452.983 87.012c.313-2.15.503-4.355.963-6.44 1.026-4.64.04-8.838-1.575-12.603-2.964-6.916-7.648-11.24-12.554-14.733-5.905-4.206-12.216-6.946-18.726-8.727-4.658-1.276-9.332-2.174-14.067-2.758-5.95-.734-11.914-.932-17.823-.32-10.2 1.05-20.252 3.686-29.824 9.066-6.76 3.797-13.005 8.927-17.232 17.738-2.445 5.104-2.7 10.824-.997 16.634.245.826.27 1.784.395 2.68"/><path clip-rule="evenodd" d="M458.986 75.185c.188-1.97.447-3.935.55-5.915.435-8.248-1.964-14.835-5.783-20.723-5.27-8.123-11.878-13.19-18.995-16.798-5.365-2.72-10.94-4.67-16.5-6.47-3.29-1.064-6.73-1.297-10.117-1.675-3.742-.416-7.504-.864-11.253-.763-4.317.117-8.643.68-12.943 1.312-3.33.49-6.665 1.167-9.94 2.164-3.91 1.19-7.816 2.558-11.625 4.298-7.263 3.316-13.963 8.177-19.732 15.506-3.564 4.533-6.26 9.79-7.467 16.435-.73 4.018-.665 8.083.17 12.09M453.17 115.776c.375 2.062.69 4.15 1.14 6.177.912 4.115-.022 7.77-1.34 11.287-2.798 7.463-7.544 11.838-12.57 15.558-7.135 5.28-14.756 8.41-22.68 10.327-6.54 1.583-13.107 2.217-19.706 2.62"/><path clip-rule="evenodd" d="M477.938 53.41c.248 8.25-2.51 14.63-6.193 20.43-5.502 8.664-12.493 14.05-19.89 18.536-.876.528-1.803.875-3.023 1.458.7-4.83-.325-8.376-2.035-11.664-3.442-6.624-8.148-10.745-13.32-13.982-4.84-3.027-9.864-5.17-15.018-6.685-2.667-.784-5.362-1.485-8.068-1.863-4.428-.62-8.873-1.23-13.317-1.303-3.813-.063-7.645.44-11.44 1.046-3.337.532-6.677 1.294-9.94 2.41-9.547 3.267-18.927 7.188-26.072 17.712-2.223 3.276-4.104 6.91-4.136 11.81-.003.718.063 1.44.11 2.416-.35.078-.875.446-1.227.234-6.812-4.102-13.584-8.36-19.13-15.583-3.757-4.89-7.077-10.33-8.26-17.716-.354-2.207-.516-4.476-.768-6.716M449.605 110.937c-1.03 8.866-5.214 14.338-10.15 18.774-6.777 6.093-14.28 9.517-22.113 11.637-3.797 1.026-7.555 2.14-11.45 2.165-2.562.015-5.12.478-7.953.767.477-1.5.837-2.635 1.2-3.772M296.512 101.798c.875-.09 1.752-.256 2.627-.258 15.322-.016 30.643-.01 45.964-.01M449.418 100.99h47.094"/><path clip-rule="evenodd" d="M448.666 92.657c-.624-.09-1.248-.256-1.874-.257-10.57-.015-21.138-.046-31.708-.002-10.067.044-20.136.18-30.205.257-12.697.1-25.392.18-38.086.282-.313 0-.624.17-.938.258M345.104 106.904c-4.764.77-9.58.843-14.264 2.655-9.15 3.537-16.077 10.865-20.068 23.42M310.583 70.883c4.416 12.86 11.73 20.166 21.38 23.16 2.927.905 5.825 1.64 8.827 1.605 1.5-.018 3 .324 4.502.503M483.755 69.54c-3.48 11.335-9.573 18.415-17.637 22.317-5.487 2.655-11.125 3.583-16.888 3.22"/><path clip-rule="evenodd" d="M308.333 86.475c4.44 5.138 9.426 8.715 15.01 10.46 1.918.598 3.866 1.156 5.817 1.318 4.118.34 8.25.46 12.38.555 1.248.03 2.5-.327 3.752-.506M449.418 108.517c1.376.627 2.825 1.035 4.115 1.92 5.358 3.683 10.637 7.554 15.22 13.114 3.11 3.77 5.768 8.073 7.647 13.22 1.328 3.636 2.16 7.573 1.91 11.802M345.104 109.055c-3.062 1.793-6.275 3.196-9.16 5.463-4.99 3.924-9.68 8.554-13.546 14.69-2.896 4.586-4.812 9.893-5.78 15.878-.21 1.276-.03 2.68-.03 4.023M449.418 106.368c6.303.596 12.585 1.09 18.59 4.513 7.177 4.09 12.415 11.014 15.933 20.756M485.816 85.937c-3.715 4.39-7.88 7.435-12.562 9.192-3.59 1.345-7.164 2.515-10.89 2.655-1.816.067-3.63.5-5.44.48-2.505-.026-5.004-.32-7.506-.5M345.104 104.755c-4 0-8.01-.154-12.006.03-8.51.397-16.494 3.298-23.457 10.714-.47.502-.995.902-1.496 1.35"/><path clip-rule="evenodd" d="M449.418 104.217c3.88-.09 7.76-.35 11.632-.23 6.533.2 12.895 1.798 18.744 6.193 2.235 1.676 4.27 3.895 6.396 5.864M345.104 110.668c-2.973 3.912-6.218 7.48-8.234 12.65-.68 1.743-1.144 3.66-1.71 5.51-.063-.052-.308-.246-1.076-.855l1.265-.906M335.348 76.528c-.28-.303-.563-.604-.857-.92.295-.424.484-.693.706-1.01 1.6 7.895 5.878 12.7 9.908 17.79M398.95 36.744l-1.5 4.032M398.762 19.003c-.437 1.163-.873 2.33-1.312 3.493M398.2 198.034l1.126 3.226M398.2 162.013c.312 1.075.624 2.15.938 3.226M398.576 1.26l-1.127 4.033M398.576 55.56l-1.015 2.57c.386 1.236.794 2.56 1.2 3.882M345.48 94.27c-.063 4.93-.134 9.857-.17 14.785-.004.357.23.718.358 1.076"/></g><g fill="none" stroke="#000" stroke-width="2" stroke-linecap="round" stroke-linejoin="round" stroke-miterlimit="10"><path d="M807.718 55.805c.535 1.37 1.247 2.698 1.578 4.114 1.382 5.934 2.943 11.85 3.88 17.86 1.18 7.55 1.998 15.165 1.875 22.845-.066 4.285.175 8.58-.06 12.854-.256 4.594-.758 9.19-1.417 13.746-.79 5.438-1.716 10.87-2.872 16.242-.717 3.337-1.992 6.552-2.96 9.84-.206.697-.152 1.47-.273 2.114-4.828 13.266-11.085 25.697-21.643 35.838-4.423-4.677-8.898-9.14-13.06-13.882-6.49-7.39-12.767-14.972-19.135-22.47"/><path clip-rule="evenodd" d="M714.892 17.95c-3.77-2.964-8.006-5.11-12.314-7.15-4.36-2.067-8.868-3.725-13.57-4.805-11.878-2.727-23.35-1.748-34.062 4.33-3.69 2.093-7.02 4.82-10.33 7.13-4.463-3.35-8.936-6.944-13.667-10.157-2.576-1.75-5.522-2.938-8.887-2.603-2.648.264-4.138 1.75-5.172 3.967-1.54 3.297-1.785 6.845-1.548 10.354.29 4.302.785 8.62 1.604 12.85 1.078 5.52 2.5 10.978 3.906 16.43.467 1.812 1.393 3.5 1.986 5.288.204.616.246 1.45-.003 2.026-2.587 5.948-3.68 12.288-4.852 18.59-1.64 8.843-2.64 17.766-2.517 26.78.085 6.072-.05 12.165.432 18.207.456 5.686 1.604 11.313 2.414 16.97.757 5.3 2.102 10.455 3.756 15.535.22.662.668 1.312.666 1.965-.006 1.012-.225 2.05-.505 3.03-1.156 4.06-2.512 8.065-3.518 12.157-1.12 4.542-2.244 9.12-2.814 13.75-.65 5.264-1.232 10.615.274 15.884.61 2.127 1.467 4.012 3.555 5.208 2.363 1.352 4.686.908 6.97.12 4.46-1.54 8.188-4.345 11.783-7.303 2.056-1.688 4.025-3.474 6.104-5.275 4.014 3.62 8.308 6.76 13.187 9.032 5.208 2.425 10.658 3.782 16.42 4.145 9.492.6 18.36-1.7 26.948-5.41 4.988-2.154 9.736-4.765 14.1-8 6.045 4.362 12.646 7.644 19.647 10.166 5.946 2.144 12.073 3.34 18.39 3.37 11.256.053 21.148-3.754 29.807-10.876.948-.78 1.875-1.584 2.576-2.175 4.69 3.52 9.165 7.113 13.893 10.326 2.58 1.75 5.523 2.94 8.89 2.603 2.645-.266 4.13-1.752 5.173-3.967 1.5-3.18 1.764-6.612 1.543-9.997-.28-4.36-.76-8.744-1.606-13.026-1.115-5.646-2.633-11.214-4.07-16.79-.424-1.652-1.163-3.223-1.76-4.83"/><path clip-rule="evenodd" d="M807.63 153.48c-.74-1.727-1.525-3.438-2.224-5.182-2.4-6.004-4.63-12.08-7.186-18.015-2.748-6.382-5.762-12.65-8.728-18.936-.953-2.02-2.172-3.914-3.158-5.92-.238-.477-.238-1.267-.006-1.752 3.35-7.045 6.833-14.024 10.115-21.098 2.403-5.173 4.626-10.433 6.786-15.712 1.334-3.273 2.4-6.656 3.6-9.987.17-.46.413-.89.762-1.64.024-.3-.09-1.048.15-1.655 2.496-6.277 3.982-12.84 5.48-19.39 1.167-5.1 1.912-10.287 1.962-15.528.028-3.013-.185-5.99-1.16-8.948-1.65-5.01-5.605-6.04-10.225-4.427-4.455 1.556-8.19 4.34-11.783 7.312-2.05 1.693-4.026 3.475-6.1 5.27-4.03-3.592-8.294-6.773-13.186-9.03-5.217-2.408-10.658-3.785-16.423-4.14-9.486-.582-18.372 1.65-26.95 5.41-4.848 2.126-9.318 4.918-13.8 7.768-10.244 6.52-18.888 14.835-27.227 23.5-4.007 4.16-7.617 8.702-11.254 12.894 12.45 16.395 24.775 32.625 37.11 48.848.3.398.703.72 1.06 1.076M715.25 104.91c-2.5 3.214-5.016 6.416-7.494 9.645-10.004 13.03-19.995 26.07-29.994 39.103-.205.27-.422.53-.77.956 2.63 3.117 5.267 6.437 8.114 9.557 3.404 3.73 6.935 7.35 10.52 10.9 5.453 5.4 11.302 10.34 17.657 14.664.56.38 1.073.827 1.608 1.245"/><path clip-rule="evenodd" d="M715.785 18.128c3.987 3.155 8.166 6.098 11.913 9.514 5.532 5.045 10.856 10.332 16.08 15.697 3.44 3.533 6.553 7.385 9.697 10.963L715.08 104.55l38.32 50.154c-9.64 11.94-20.23 23.128-32.62 32.52-1.698 1.286-3.447 2.504-5.173 3.755M677.047 54.912c-2.32 2.917-4.708 5.782-6.948 8.76-7.39 9.825-13.902 20.223-20.005 30.883-1.67 2.914-3.33 5.834-5.007 8.745-.125.21-.35.362-.53.54M785.942 105.268c-1.37 2.262-2.797 4.49-4.098 6.79-8.228 14.534-17.244 28.54-27.685 41.6-.155.195-.352.36-.53.537M753.63 54.912c3.45 4.584 6.95 9.13 10.343 13.758 6.34 8.646 11.803 17.856 17.147 27.135 1.436 2.495 2.85 5 4.294 7.495.12.21.35.362.528.54"/><path clip-rule="evenodd" d="M622.958 55.626c.95 2.38 1.898 4.764 2.857 7.143 2.14 5.3 4.184 10.637 6.453 15.88 2.746 6.356 5.66 12.643 8.56 18.932.844 1.835 1.843 3.603 2.846 5.36 4.387 7.688 8.643 15.457 13.24 23.014 6.002 9.86 12.574 19.34 19.956 28.238M644.558 105.268c-1.188 2.023-2.52 3.98-3.542 6.084-2.756 5.674-5.565 11.337-8.017 17.147-3.275 7.78-6.23 15.694-9.334 23.548-.193.494-.47.955-.708 1.43M677.047 154.907c-2.082 2.442-4.15 4.893-6.25 7.32-5.05 5.84-10.043 11.73-15.195 17.48-3.508 3.917-7.242 7.63-10.943 11.506-5.772-5.417-10.108-11.615-13.846-18.27-2.88-5.134-5.1-10.565-7.15-16.068-.165-.444-.467-.837-.705-1.253M807.63 53.482c-.624-1.37-1.32-2.71-1.863-4.11-4.427-11.45-10.294-21.996-19.102-30.72-.21-.207-.264-.57-.545-1.208-4.984 5.352-9.65 10.155-14.075 15.173-5.472 6.206-10.736 12.594-16.095 18.902-.765.9-1.548 1.785-2.32 2.68M622.958 53.482c.833-1.963 1.716-3.908 2.49-5.895 4.188-10.738 11.4-22.768 19.32-29.643 4.327 4.578 8.812 9.037 12.964 13.784 6.146 7.025 12.055 14.258 18.075 21.39.35.413.826.722 1.24 1.08"/></g><g clip-rule="evenodd" fill="none" stroke="#000" stroke-width="2" stroke-linecap="round" stroke-linejoin="round" stroke-miterlimit="10"><circle cx="100.994" cy="101.296" r="99.994"/><circle cx="100.994" cy="101.296" r="41.31"/><path d="M100.758 1v200M156.38 18.133c-16.817-10.075-28.3 13.75-55.784 13.75M44.414 19.01C59.21 8.26 72.71 31.884 100.196 31.884M156.38 184.56c-16.817 10.075-28.3-14.468-55.784-14.468M44.195 183.484c16.817 10.074 28.516-13.393 56-13.393"/><g><path d="M200.986 100.983c.748-15.048-27.614-14.66-38.138-34.92M156.38 18.133c17.26 10.222-4.367 27.07 6.314 47.632"/><g><path d="M200.986 100.983c.312 15.422-27.615 15.41-38.138 35.665M156.625 184.396c15.79-9.132-4.612-26.888 6.07-47.45"/></g></g><g><path d="M1.278 101.718c-1.848-17.11 26.6-15.828 37.28-36.39M44.782 18.83c-17.065 9.525 4.612 25.638-6.068 46.2"/><g><path d="M1.278 99.523c-3.01 17.102 26.6 15.827 37.28 36.39M44.195 183.484c-16.587-10.698 5.2-26.71-5.48-47.273"/></g></g></g></svg>