<svg xmlns="http://www.w3.org/2000/svg" width="202" height="202" viewBox="0 0 202 202"><g fill="none" stroke="#000" stroke-width="2" stroke-linecap="round" stroke-linejoin="round" stroke-miterlimit="10"><path d="M45.246 1334.492c2.427 16.776 3.327 33.55 1.633 50.514-1.126 11.273-2.676 22.455-6.774 32.932-6.11 15.62-14.705 29.278-29.172 39.324-12.602 8.75-25.752 14.904-40.68 17.766-9.37 1.796-18.252-.432-26.986-3.104-18.51-5.665-33.37-16.16-44.702-32.304-9.793-13.95-15.133-29.54-17.968-45.688-2.904-16.536-3.89-33.542-1.39-50.444.437-2.96.372-5.994.538-8.994"/><path clip-rule="evenodd" d="M-150.254 1315.492c-8.834 3.834-17.686 7.624-26.496 11.51-13.516 5.963-27.252 11.497-40.438 18.12-14.787 7.43-29.18 15.675-43.523 23.945-8.24 4.75-16.017 10.302-24.07 15.386-1.49.94-3.308 1.373-4.974 2.04M-289.254 1220.992c2.666 1.334 5.546 2.36 7.967 4.047 22.4 15.602 46.33 28.495 71.062 39.89 19.855 9.145 39.97 17.728 59.97 26.562M-130.754 1330.992c-4.334 9.5-9.207 18.797-12.875 28.547-5.7 15.152-10.64 30.56-14.25 46.423-3.956 17.385-4.45 34.91-3.753 52.524.238 6.03 1.88 12.005 2.88 18.005M-109.754 1333.992c4.166-2.166 8.916-3.65 12.396-6.62 13.288-11.343 14.543-27.627 6.09-41.872-9.416-15.868-23.78-17.515-36.872-13.624-9.782 2.907-16.645 10.993-19.094 21.62-2.62 11.365-.447 21.538 7.98 29.994 8.032 8.056 17.497 11.99 29 10.002M65.746 1324.992c12.22 8.5 22.064 19.587 32.44 30.06 8.792 8.876 17.395 17.99 25.47 27.517 8.895 10.497 17.328 21.413 25.512 32.48 6.066 8.205 11.48 16.897 17.035 25.47 1.61 2.486 2.71 5.307 4.043 7.973M168.746 1140.492c-9.44 7.15-14.52 17.406-20.104 27.44-5.524 9.933-11.668 19.545-17.956 29.02-7.413 11.17-14.988 22.255-23.034 32.97-6.025 8.023-12.773 15.52-19.44 23.04-7.515 8.468-15.3 16.696-22.966 25.03M54.746 1329.992c4.166 8.5 8.585 16.888 12.438 25.528 4.926 11.05 10.22 22.046 13.838 33.542 3.834 12.186 6.23 24.865 8.607 37.452 1.614 8.55 2.378 17.292 3.005 25.985.31 4.286-.555 8.657-.89 12.99M-86.254 1145.492c-6.744 3.028-10.47 9.175-15.008 14.492-11.49 13.46-17.25 29.625-20.26 46.55-2.566 14.43-3.795 29.174-2.292 43.964.538 5.296.394 10.66.56 15.994M-162.754 1347.992c-3.834 4-8.018 7.723-11.44 12.05-14.145 17.884-28.59 35.57-41.892 54.07-10.584 14.723-19.81 30.44-26.697 47.368-1.12 2.753-2.637 5.345-3.97 8.012M188.246 1224.492c-2.834 2.5-5.305 5.73-8.573 7.353-7.442 3.694-12.162 10.797-19.837 14.34-9.047 4.177-17.31 10.02-26.12 14.752-10.372 5.57-20.848 10.982-31.506 15.98-9.663 4.528-19.63 8.41-29.464 12.575M34.246 1331.992c-3.334 10.166-5.828 20.71-10.184 30.418-7.768 17.31-17.932 33.098-35.336 42.545-8.213 4.457-17.125 7.406-26.463 6.773-4.17-.283-5.986 3.42-9.518 3.264M-227.254 1178.492c9.666 13.666 18.936 27.64 29.117 40.91 9.28 12.092 19.254 23.69 29.477 35.006 8.205 9.083 17.24 17.418 25.906 26.084"/><path clip-rule="evenodd" d="M30.746 1267.492c-1.334-5-2.167-10.202-4.094-14.963-5.887-14.552-13.2-28.485-24.007-39.943-19.257-20.42-47.774-27.823-73.893-10.585-12.745 8.412-21.848 19.93-27.423 34.023-4.42 11.168-8.085 22.633-12.085 33.967M70.246 1312.992c16 6.166 32.13 12.022 47.963 18.588 15.5 6.428 30.705 13.574 46.032 20.42 1.36.607 2.67 1.326 4.004 1.992M-163.254 1127.492c-.834 11.166-2.864 22.398-2.262 33.486 1.45 26.697 6.504 52.793 17.262 77.514 4.498 10.334 9.006 20.664 13.486 31.006.27.622.348 1.328.514 1.994M80.746 1148.492c.666 1.5 1.938 3.013 1.907 4.498-.33 15.934-1.38 31.84-4.51 47.482-1.59 7.948-3.803 15.836-6.49 23.487-5.186 14.775-10.907 29.365-16.407 44.03M-109.754 1334.492c3.166 9.166 5.78 18.572 9.616 27.45 7.786 18.017 18.495 34.003 36.464 43.397 5.994 3.132 12.92 4.485 19.42 6.65"/><path clip-rule="evenodd" d="M199.246 1290.992l-6.16 6.713c-7.998.406-16.666.9-25.34 1.275-12.665.547-25.33 1.134-38 1.477-12.163.33-24.334.342-36.5.547-5.834.1-11.67.252-17.498.535-1.544.073-3.06.716-4.81 1.153-.147 12.062-6.28 20.257-16.245 25.7-2.988 1.634-6.557 2.66-9.957 3.007-21.506 2.205-40.882-17.21-34.068-40.432 5.595-19.068 33.018-29.83 50.27-14.19 7.922 7.183 9.494 15.952 11.31 25.214M23.246 1329.992c-5.334 6.666-10.548 13.434-16.027 19.978-9.27 11.073-20.864 18.6-34.98 21.992-2.95.71-5.983 1.29-8.998 1.41-1.305.052-2.77-1.06-3.97-1.915-1.926-1.37-3.69-2.965-5.525-4.465M-99.754 1273.492c6.68-10.174 14.577-19.28 24.016-26.98 6.916-5.645 14.854-9.34 23.49-11.494 3.295-.822 6.703-2.094 9.986-1.9 16.067.94 30.296 6.87 41.908 17.98 6.717 6.424 12.434 13.895 18.6 20.895M-98.254 1332.492c3.166 4.334 6.16 8.807 9.533 12.973 9.338 11.537 20.444 20.7 34.97 25.014 3.138.93 6.33 1.68 9.496 2.513"/><path clip-rule="evenodd" d="M16.746 1321.492c-8.166 5.334-16.138 11.002-24.55 15.913-9.938 5.802-21.01 7.888-32.45 8.087M23.246 1164.992c13.22 19.103 18.713 40.692 19.908 63.505.54 10.305.055 20.662.115 30.995.016 3 .31 6 .476 9M-90.254 1324.492c14.168 11.97 30.09 19.648 48.912 20.387-.848 3.738-.848 3.738-6.912 5.112M-47.254 1289.992c2.334-2 4.637-4.036 7.02-5.977.676-.55 1.58-.823 2.705-2.006l46.776 10.48M-148.754 1304.492c-21.834.166-43.666.393-65.5.482-19.833.082-39.667-.026-59.5.062-3.168.014-6.334.62-9.5.955M13.246 1282.492c-8.5-7.04-17.745-12.937-28.02-16.945-16.087-6.275-32.133-6.91-48.548-.222-9.704 3.954-17.75 10.24-26.432 15.667M-42.754 1284.492c-8.5.834-17.053 1.32-25.48 2.624-5.436.84-10.686 2.876-16.02 4.376M-3.254 1140.492c-11.965-7.365-24.654-12.322-39-12.02-6.928.144-13.634 1.187-20 4.02M-40.504 1304.992c-.25-.5-.504-1.44-.75-1.438-12.666.096-25.334.26-38 .457-1.002.017-2 .315-3 .48M-251.754 1129.492c6.666 13.834 13.338 27.664 19.994 41.502.873 1.814 1.672 3.664 2.506 5.498M8.246 1302.992c-.334.166-.665.476-1 .48-15.666.19-31.334.353-47 .52M-151.254 1088.492h-7.26c-1.27-2.804-2.318-5.11-3.455-7.616-5.04 3.958-5.04 7.473-.265 11l2.48-3.384M-198.754 1501.492c-1.32-2.737-2.86-5.448-6.47-3.443-3.163 1.757-3.526 5.125-.972 7.888.787.852 2.402 1.654 3.416 1.438 2.674-.568 4.393-2.313 4.025-5.384M-1.254 1141.492c9.316 5.95 16.86 13.752 23.5 22.5M-14.254 1320.992l-25.902 2.874-.006-.735c-1.863 1.288-3.728 2.575-5.592 3.862M-141.254 1326.492l-20.5 20.5M-222.254 1081.492l-1 1.5c-2-2.248-4.248-2.414-5.907.062-1.004 1.496-1.94 3.914-1.406 5.37.913 2.49 3.424 3.645 6.31 3.055.353-.073.67-.32 1.98-.975-.64-1.298-1.31-2.656-1.977-4.014M-278.254 1082.492c-.654 3.115 1.91 7.303-2.64 9.06-4.616-.257-3.727-3.412-3.892-6.058-.105-1.694 1.166-4.42-2.47-4.002M-206.254 1533.492c3.463-1.907.373-5.125 1.92-7.834l-7.713-1.39-.398 1.55 5.37 3.06c-3.6 2.3-3.625 2.297-5.18-.386M-41.754 1322.992c-4-.334-8.01-.587-11.998-1.023-3.512-.387-7.002-.978-10.502-1.478M96.746 1533.492c3.463-1.907.373-5.125 1.92-7.834l-7.713-1.39-.398 1.55 5.37 3.06c-3.6 2.3-3.625 2.297-5.18-.386M8.246 1313.992l-19.5 5.5M80.246 1130.492c1 5.5 2.04 10.994 2.94 16.51.1.596-.606 1.324-.94 1.99M169.246 1354.992l17 10M-138.754 1086.992l-1.568-5.81c-.604-.083-1.21-.167-1.814-.253l-3.8 5.917 6.683.645M52.246 1299.992l-22 .75M-75.254 1503.492l-1.683-2.52-4.258 2.473c5.607 6.02 17.318 4.48 20.44-.953M165.746 1130.492l-6.5 14.5M170.246 1450.492c.666 1.834 1.24 3.707 2.02 5.49 1.255 2.868 2.646 5.676 3.98 8.51M-71.254 1318.992l-15-4M-280.254 1308.992c-4.832-1.843-9.328-5.362-15-3M180.746 1112.492l-7.035 1.563 6.59-7.927-4.09-4.09c-1.22 2.207-1.842 3.33-2.464 4.453M222.746 1112.492l-7.035 1.563 6.59-7.927-4.09-4.09-2.464 4.453M-6.754 1503.492c-2.61-3.32-4.485-2.246-6.388.85 1.93 3.24 3.685 5.034 6.388 1.15M-98.254 1503.492l-1.428-2.137c-3.307 1.88-5.09 3.746-.47 5.462 1.798.225 3.593.503 5.4.66 1.755.15 3.506.16 2.997-2.485M-172.254 1090.492l-7.035 1.563 6.59-7.927-4.09-4.09-2.464 4.453M207.746 1375.992c-2.52.37-5.038.738-6.844 1.002-4.528-3.1-8.842-6.05-13.156-9.002M15.746 1503.492l-1.392-2.083c-4.03 3.086-4.03 3.086-.43 6.24 1.054-.525 2.188-1.092 3.32-1.658M116.746 1526.492l-1.392-2.083c-4.03 3.086-4.03 3.086-.43 6.24 1.054-.525 2.188-1.092 3.32-1.658M44.746 1520.492c-4.584 5.468-4.684 6.76-1 13M-168.254 1081.492l-3 13M-147.254 1081.492l-3 13M125.746 1520.492c4.91 5.855 4.91 7.757 0 13M172.746 1103.492c-4.584 5.468-4.684 6.76-1 13M197.746 1103.492c4.91 5.855 4.91 7.757 0 13M-51.254 1506.492l6.076 1.733c.033.377.068.753.102 1.13l-6.433 1.326-.243-1.187 1-1.5M-272.254 1086.492l5.963-1.322c-2.038-5.244-6.01-3.023-8.964-3.678M249.746 1085.492l5.963-1.322c-2.038-5.244-6.01-3.023-8.964-3.678M238.746 1085.492l5.963-1.322c-2.038-5.244-6.01-3.023-8.964-3.678M-295.254 1086.492l5.963-1.322c-2.038-5.244-6.01-3.023-8.964-3.678M-106.754 1303.742l-12 .25M-287.254 1380.492c-1.203 2.818-2.404 5.637-3.622 8.488l4.43 1.096 5.192-2.084M87.246 1134.492l-3 11.5M56.246 1502.492c-2.445-1.557-3.37-.07-4.508 2.754 1.76.896 3.42 1.74 5.508 2.805v-9.058M-173.754 1525.492c-2.445-1.557-3.37-.07-4.508 2.754 1.76.896 3.42 1.74 5.508 2.805v-9.058M-186.754 1502.492c-2.445-1.557-3.37-.07-4.213 2.022 1.248 2.84 2.874 4.076 5.713 1.978M98.746 1530.492l5.584-2.03-2.998-3.865-2.586.896"/><path clip-rule="evenodd" d="M264.746 1083.492l-3.088-4.48-2.83 4.548 5.473 4.36c-2.745 3.464-2.745 3.464-6.873-.755-2.333 5.047-6.895 2.764-10.68 3.326M67.746 1530.492l5.584-2.03-2.998-3.865-2.586.896M-249.754 1135.492l-2.5 11M-25.254 1507.492l5.584-2.03-2.998-3.865-2.586.896M-204.254 1530.492l5.584-2.03-2.998-3.865-2.586.896M245.746 1107.492c3.186-1.48 4.455.556 5.76 2.982-1.172 2.36-2.515 3.84-5.26 2.518M-119.754 1289.492c.166 6.5.307 13 .516 19.5.064 2.003.318 4 .484 6M-36.754 1503.492l4.738 2.348c-4.14 2.645-8.514 2.264-11.883-.987l1.614-4.033 4.057 2.65-.02-.978h5.996M89.246 1503.492l4.738 2.348c-4.14 2.645-8.514 2.264-11.883-.987l1.614-4.033 4.057 2.65-.02-.978h5.996M195.746 1080.492c2.16 2.585 2.16 7.415 0 10M-137.254 1497.492c2.16 2.585 2.16 7.415 0 10M-88.254 1497.492c2.16 2.585 2.16 7.415 0 10M194.246 1211.492c-1.166 3.5-2.265 7.025-3.56 10.478-.247.657-1.274 1.022-1.94 1.522M-36.254 1524.492l2.463 5.75h3.687l-2.15-5.75M47.746 1497.492c2.16 2.585 2.16 7.415 0 10M64.746 1497.492c.5 1.167 1.27 2.296 1.437 3.51.245 1.8.063 3.657.063 5.49M-68.254 1524.492l2.463 5.75h3.687l-2.15-5.75M102.746 1498.492c-.23 2.828-.457 5.657-.686 8.498 5.928-.044 12.38 2.438 16.186-4.498M-117.254 1498.492c-.23 2.828-.457 5.657-.686 8.5h5.186v-4.5M-93.254 1521.492c-.23 2.828-.457 5.657-.686 8.5h13.186v-4.5M-17.254 1521.492c-.23 2.828-.457 5.657-.684 8.47l8.934.54v-6.01h-2.75M-73.254 1136.492l-10 6M2.746 1501.492l2.568 5.997 4.932-.498M-155.254 1463.492l-4.582 7.722c-1.846-1.584-3.38-2.903-4.918-4.222M-249.754 1463.492l1.686 9.143c.535.23 1.07.457 1.606.685l5.708-5.327M34.746 1507.492l2.51-6h-8.51M228.746 1103.492l-5.817 7h11.816M194.746 1103.492l-5.817 7h7.816M179.746 1455.492l-9-6M-130.254 1530.492l2.512-6h-8.512M200.746 1219.992l-6.732 2.72c-.3-.16-1.283-.69-2.268-1.22M-50.254 1186.492c2.848 2.485 8.387 2.28 8.004 8.133l-6.504 4.367M-119.754 1529.492v-5.153l-4 .487v4.665M209.746 1108.492h2.99c.097 5.398.097 5.398-3.99 4M239.746 1108.492h2.99c.097 5.398.097 5.398-3.99 4M-52.754 1122.992l8 5.5M-138.754 1529.492v-5.153l-4 .487v4.665M-190.754 1526.492h4.307c-3.826-2.37-3.826-2.37-5.307 1.5 3.368 3.25 8.347 2.12 11-2.5M6.246 1526.492h4.307c-3.826-2.37-3.826-2.37-5.348 1.607 2.1 3.915 4.554 2.38 7.04.392M-172.754 1506.492v-5.153l-4 .487v4.665M206.746 1297.492c-3.166.166-6.332.385-9.5.47-.996.026-2-.304-3-.47M74.746 1139.992l5 8M-46.754 1278.992l7.5 4M73.746 1507.492h5.25v-6.123l-3.75.457v4.665M-128.254 1502.992c-3.02-1.87-3.02-1.87-4.52 2.05 1.377 3.018 3.715 3.314 5.942 1.362 1.527-1.338 2.33-3.506 3.71-5.71l1.867 2.798M-281.254 1216.992l-8.5 1M59.246 1529.492v-5.3c-1.95.562-3.225.93-4.5 1.3M221.246 1086.492h4.307c-3.826-2.37-3.826-2.37-5.348 1.607 2.1 3.915 4.554 2.38 7.04.392"/><path clip-rule="evenodd" d="M-128.754 1520.992l-4.398-1.845-.87 11.345h-10.23M-143.754 1503.492h4.307c-3.826-2.37-3.826-2.37-5.383 1.698 2.006 3.04 4.165 3.312 6.576.302M19.246 1503.492h4.307c-3.826-2.37-3.826-2.37-5.383 1.698 2.006 3.04 4.165 3.312 6.576.302M41.246 1503.492h4.307c-3.826-2.37-3.826-2.37-5.383 1.698 2.006 3.04 4.165 3.312 6.576.302M-164.254 1521.492c-.188 2.99-.374 5.98-.56 8.97l1.99.968 1.07-2.438M120.246 1526.492h4.307c-3.826-2.37-3.826-2.37-5.383 1.698 2.006 3.04 4.165 3.312 6.576.302M-220.254 1081.492c.834.166 2.38.295 2.393.506.157 2.992.157 5.996 0 8.988-.013.21-1.56.34-2.394.506M-4.754 1526.492h4.307c-3.826-2.37-3.826-2.37-5.383 1.698 2.006 3.04 4.165 3.312 6.576.302M-44.754 1129.492l-7.5 6M207.746 1080.492l2 .373c0 2.635.148 5.145-.092 7.618-.07.724-1.242 1.343-1.908 2.01M157.746 1137.492l1.5 10M-170.254 1138.492c1.344-2.806 3.18-5.03 6.967-5.867l4.533 7.367M75.746 1521.492c-.188 2.99-.374 5.98-.56 8.97l1.182.178 1.378-1.147M-41.754 1233.992l-6 6.5M-48.754 1255.492l7.04 5.865-6.54 5.635M122.746 1498.492c-.188 2.99-.374 5.98-.56 8.97l1.182.178 1.378-1.147M182.246 1086.492h11.307c-3.684-2.283-3.684-2.283-5.388 1.69 2.01 3.05 4.17 3.32 6.58.31M-110.254 1521.492c-.188 2.99-.374 5.98-.56 8.97l1.182.178 1.378-1.147"/><path clip-rule="evenodd" d="M185.746 1085.992c-3.02-1.87-3.02-1.87-4.576 2.2 1.688 2.463 3.55 3.614 6.076.8M203.246 1378.492l6 6M197.246 1299.492l7 4.5M-26.254 1521.492c-.188 2.99-.374 5.98-.56 8.97l1.182.178 1.378-1.147M108.246 1501.492c4.58-.48 2.52 3.02 3 5M-267.754 1086.992c.682.48 1.363.957 2.176 1.527-1.95 5.38-6.635 1.57-9.676 2.972M-290.754 1086.992c.682.48 1.363.957 2.176 1.527-1.95 5.38-6.635 1.57-9.676 2.972M50.746 1525.992c-3.02-1.87-3.02-1.87-4.55 2.13 2.24 4.01 5.116 2.678 8.32-1.29l-.15 2.822-2.12.338M-241.254 1135.492l-.406 1.197-5.594-.698M57.746 1530.492h5.25v-6.188l-2.75.688M-70.754 1501.492c4.58-.48 2.52 3.02 3 5M26.246 1526.492h4.307c-3.826-2.37-3.826-2.37-5.368 1.66 2.276 3.788 5.075 3.06 8.4-1.88l-.218 3.382-2.12.338M243.246 1085.992c.682.48 1.363.957 2.176 1.527-1.95 5.38-6.635 1.57-9.676 2.972M-49.754 1524.492h2.75v5.94l-4.32-.377c-2.382 2.066-4.537 5.207-8.516 2.567l1.086-1.63M265.746 1103.492l-.5 9M-260.254 1081.492l-.5 9M-240.254 1081.492l-.5 9M19.246 1524.492h2.75v5.5h-8.904c.22-2.84.437-5.67.654-8.5M-183.254 1081.492l-.5 9M-46.254 1405.492l6 5.5M-87.754 1524.492c4.58-.48 2.52 3.02 3 5M185.746 1103.492l-.5 9M-281.254 1298.992l-6.5 4.5M216.746 1081.492v9M-206.254 1083.492c-.666-.666-1.268-1.806-2.013-1.908-1.962-.27-3.987-.092-5.987-.092M91.246 1456.992l-5 5.5M251.746 1103.492c-2.06.158-4.97-.954-4.5 3M-117.254 1524.492l2.512 6h-10.512M-149.254 1524.492c2.115 2.183 2.115 3.817 0 6M200.246 1377.992l1.5 6M-59.254 1529.492l6 2M-183.254 1501.492l2.235 5.98c-4.915-1.908-4.915-1.908-4.734-8.48M-108.254 1501.492c2.115 2.183 2.115 3.817 0 6M210.746 1081.992l5 6M-40.754 1372.992l-4.5 3.5M6.746 1501.492c3.08.893.756 3.406 1.5 5M68.746 1501.492l2.377 5.68-6.377.32M-139.754 1088.492l-4.5 3M80.746 1524.492c-.5.17-.998.34-1.628.552l3.26 4.884c-.943.927-2.288 2.246-3.632 3.564M-46.754 1339.992l5 4M-155.254 1501.492l-1.628.552 3.26 4.884c-.942.927-2.288 2.246-3.632 3.564M201.746 1084.492l-1.628.552 3.26 4.884c-.943.927-2.288 2.246-3.632 3.564M-105.254 1524.492l-1.628.552 3.26 4.884c-.942.927-2.288 2.246-3.632 3.564M211.746 1107.992c.485-.842.97-1.686 1.515-2.63-1.514-.844-3.014-4.506-4.514.13M-51.254 1228.992l5 3.5M241.746 1107.992c.485-.842.97-1.686 1.515-2.63-1.514-.844-3.014-4.506-4.514.13M-125.254 1505.992c1.387 2.973 3.3.672 5 .5M-4.754 1505.492l5 2.535v-9.035M-49.254 1505.492l4.002-1.576-3.602-3.72-1.9 3.796M-66.254 1133.492l-5 2M-57.254 1528.492l4.002-1.576-3.602-3.72-1.9 3.796M170.246 1456.492l-.5 5M-288.754 1225.492c-1.53-2.832-.324-7.323-5-8.25M31.746 1497.492c-.166 2.667-.156 5.364-.607 7.98-.138.788-1.56 1.353-2.394 2.02M-88.754 1521.992v7.5M-50.754 1521.992v7.5M107.246 1498.992v7.5M-12.754 1521.992v7.5M-71.754 1498.992v7.5M18.246 1521.992v7.5M-184.754 1529.492c2.05 1.407 3.956 2.438 4-1.5M67.246 1525.992c-.824 2.435 1.912 5.582-1.5 7.5M-196.754 1525.492c-.744 1.594 1.58 4.107-1.5 5M-132.254 1081.492l-.5 10M-153.254 1081.492l-.5 10M-211.754 1082.492c0 2.334.205 4.695-.115 6.984-.106.768-1.55 1.35-2.384 2.016M-17.754 1502.492c-.744 1.594 1.58 4.107-1.5 5M-133.754 1083.492l-3 3.5M-195.754 1502.492c-.744 1.594 1.58 4.107-1.5 5M-154.754 1083.492l-3 3.5M-161.754 1502.492v5.018l-7.5-.518M228.246 1105.992v7.5M194.246 1105.992v7.5M-56.754 1502.492v5.02c-2.523-.176-5.012-.348-7.5-.52M-25.754 1502.992c-.824 2.435 1.912 5.582-1.5 7.5"/><path clip-rule="evenodd" d="M-.754 1502.492l-2.584-1.513c-.333.59-.875 1.55-1.416 2.512M178.746 1080.492c-2.14 1.703-4.277 3.408-6.46 5.146-2.576-.854 1.077-5.894-3.54-5.146M-295.754 1082.492v8M228.746 1081.492c-.166 2.5-.56 5.012-.432 7.496.11 2.166 1.32 1.725 2.432.504M-272.754 1082.492v8M109.246 1525.492l-3.764 4.5h5.764M114.746 1506.992c2.04.86 3.73 1.107 3.5-2M238.246 1081.492v8M-41.754 1305.992l-5.5 2M249.246 1081.492v8M173.746 1085.992c1.38 1.125 2.76 2.25 4.484 3.658l-2.484.842M171.246 1085.992v4.033c-.83.155-1.665.31-2.5.467M-252.754 1084.992l-2.5 6M198.246 1213.992l-2.5 3.5M-131.754 1503.492l5.5.5M-178.254 1507.492c4.098.013 8.21.018 11.475-3.026.513-.477.692-1.307 1.026-1.974M-251.254 1081.492l3.498 9.496c-.5.166-1 .335-1.498.504M47.246 1526.492l7.062-.703-.562 2.702M-101.254 1525.492l-1.5 2.5M-78.254 1525.492l-4-1M-15.254 1502.492l-4-1M-54.254 1502.492l-4-1M35.746 1525.492l-4-1M-151.254 1502.492l-1.5 2.5M-159.254 1502.492l-4-1M-193.254 1502.492l-5-.5M205.746 1085.492l-1.5 2.5M84.746 1525.492l-1.5 2.5M-194.254 1525.492l-4-1M-110.254 1502.492l-4-1M183.746 1113.492h4M263.746 1113.492h4M-185.254 1091.492h4M-262.254 1091.492h4M-242.254 1091.492h4M-91.754 1502.492l-3.5 3.5M-130.254 1088.492l-9-1M-44.754 1502.992h-1.5M256.746 1103.492c-3.742 4.298-3.608 6.965.5 10 4.355-3.42 4.355-6.58 0-10M-41.254 1524.492l-2.795 2.602c3.438 4.65 4.005 4.65 6.644-.246-1.055-.74-2.2-1.55-3.348-2.355M-73.254 1524.492l-2.795 2.602c3.438 4.65 4.005 4.65 6.644-.246-1.055-.74-2.2-1.55-3.348-2.355M-158.254 1524.492l-2.795 2.602c3.438 4.65 4.005 4.65 6.644-.246-1.055-.74-2.2-1.55-3.348-2.355"/></g><g fill="none" stroke="#000" stroke-width="2" stroke-linecap="round" stroke-linejoin="round" stroke-miterlimit="10"><path d="M102.502 1c-2.706 0-6.265.34-9.19.62-2.703.262-5.38 1.066-8.07 1.612-5.774 1.17-11.39 3.32-16.886 6.155-6.51 3.355-12.692 7.706-18.196 13.968-4.492 5.12-8.528 10.92-11.245 18.43-2.042 5.642-3.08 11.76-2.777 18.138.24 5.005 1.132 9.883 2.95 14.25"/><path clip-rule="evenodd" d="M102.502 1c7.735.99 15.467 1.48 23.104 4.29 6.76 2.49 13.274 5.683 19.47 10.274 6.62 4.905 12.357 11.54 16.91 20.337 3.98 7.697 5.737 16.407 4.98 25.97-.377 4.824-1.698 9.214-3.536 13.552-2.636 6.218-5.83 11.39-9.523 16.065M38.897 129.748c-2.302 5.907-2.792 12.383-2.398 18.987.352 5.957 2.077 11.244 4.27 16.207 3.81 8.623 9.207 14.6 15.028 19.792 5.45 4.86 11.332 8.37 17.446 10.857 3.873 1.576 7.872 2.466 11.81 3.706 4.207 1.327 8.463 1.74 12.756 1.7 1.562-.013 7.44.01 8.817-.006 6.1-.066 12.06-1.38 18.025-3.28 7.707-2.453 15.045-6.158 21.938-11.826 7.592-6.244 14.3-13.883 18.39-25.692 2.392-6.91 3.086-14.13 2.09-21.793-.548-4.174-1.94-7.59-3.287-11.26-2.556-6.97-6.223-12.117-10.25-16.94"/><path clip-rule="evenodd" d="M164.227 128.912c.062 2.326.095 4.655.193 6.98.24 5.796-1.34 10.693-3.386 15.36-3.385 7.718-8.407 12.478-13.693 16.758-6.89 5.578-14.255 9.023-21.94 11.236-4.546 1.308-9.082 2.433-13.706 2.73-2.877.183-5.754.37-8.63.557 0 0-11.325-.488-15.76-1.143-2.883-.425-5.835-.638-8.613-1.746-5.745-2.292-11.545-4.578-17.052-7.866-6.326-3.78-12.303-8.845-16.9-16.646-4.18-7.086-6.39-15.187-4.9-24.827"/><path clip-rule="evenodd" d="M46.216 116.343c-.062.56-.038 1.183-.2 1.667-2.786 8.258-1.146 15.358 2.652 21.775 3.394 5.736 7.743 9.463 12.364 12.606 5.486 3.73 11.2 6.507 17.09 8.272 4.002 1.2 8.114 1.628 12.186 2.303 2.808.466 5.624.812 8.44 1.113 1.246.132 2.5.022 3.754.022M157.472 86.46c.314-2.235.503-4.526.964-6.69 1.025-4.823.04-9.183-1.576-13.095-2.964-7.184-7.65-11.675-12.555-15.305-5.905-4.37-12.216-7.216-18.726-9.066-4.66-1.326-9.333-2.26-14.068-2.865-5.95-.764-11.914-.97-17.823-.335-10.2 1.092-20.253 3.83-29.825 9.42-6.76 3.945-13.005 9.274-17.232 18.43-2.445 5.302-2.7 11.244-.997 17.28.245.86.27 1.855.395 2.784"/><path clip-rule="evenodd" d="M163.475 74.17c.188-2.047.447-4.087.55-6.144.435-8.57-1.964-15.413-5.783-21.53-5.27-8.438-11.878-13.705-18.995-17.452-5.365-2.824-10.94-4.85-16.5-6.72-3.29-1.106-6.73-1.348-10.117-1.74-3.743-.433-7.505-.898-11.254-.794-4.317.12-8.643.705-12.943 1.363-3.33.51-6.665 1.212-9.94 2.248-3.91 1.238-7.816 2.66-11.625 4.467-7.262 3.445-13.962 8.495-19.73 16.11-3.565 4.71-6.26 10.17-7.468 17.075-.73 4.175-.666 8.397.168 12.56M157.66 116.343c.374 2.142.687 4.312 1.137 6.418.913 4.276-.02 8.075-1.338 11.727-2.8 7.754-7.546 12.3-12.57 16.164-7.137 5.485-14.758 8.738-22.68 10.73-6.54 1.646-13.11 2.303-19.708 2.722"/><path clip-rule="evenodd" d="M182.426 51.55c.248 8.572-2.51 15.198-6.193 21.225-5.5 9-12.493 14.597-19.89 19.257-.876.55-1.803.91-3.022 1.515.7-5.02-.325-8.703-2.034-12.118-3.443-6.882-8.15-11.164-13.32-14.528-4.84-3.145-9.865-5.37-15.02-6.945-2.665-.814-5.36-1.542-8.066-1.936-4.428-.643-8.873-1.275-13.317-1.353-3.813-.066-7.645.457-11.44 1.086-3.337.553-6.677 1.345-9.94 2.505-9.548 3.393-18.927 7.466-26.072 18.4-2.222 3.404-4.103 7.178-4.135 12.27-.003.745.062 1.494.11 2.51-.35.08-.876.46-1.228.24-6.81-4.26-13.583-8.685-19.13-16.188-3.756-5.082-7.076-10.733-8.26-18.407-.353-2.292-.515-4.65-.767-6.977"/><path clip-rule="evenodd" d="M154.094 111.316c-1.03 9.21-5.213 14.896-10.15 19.504-6.777 6.33-14.28 9.887-22.113 12.09-3.796 1.065-7.554 2.223-11.45 2.248-2.56.016-9.19.51-9.19.51-3.817-.187-7.666.042-11.438-.666-4.54-.854-9.08-2.14-13.503-3.884-7.567-2.984-14.834-7.07-20.853-14.98-3.147-4.136-5.284-8.95-5.646-15.66h103.783V93.442M1 101.82c.875-.092 1.75-.265 2.626-.267 15.324-.016 30.645-.01 45.966-.01M153.906 100.982H201M153.154 92.324c-.624-.093-1.248-.266-1.874-.267-10.57-.016-21.138-.048-31.708-.002-10.067.046-20.136.186-30.205.267-12.696.103-25.39.187-38.085.293-.313 0-.624.175-.938.268M49.592 107.126c-4.764.802-9.58.875-14.264 2.76-9.152 3.674-16.077 11.288-20.068 24.33M15.07 69.703c4.417 13.36 11.73 20.95 21.382 24.06 2.926.942 5.824 1.706 8.826 1.67 1.5-.02 3 .336 4.502.52M188.243 68.307c-3.48 11.776-9.573 19.13-17.637 23.186-5.487 2.76-11.125 3.723-16.887 3.346"/><path clip-rule="evenodd" d="M12.82 85.9c4.44 5.34 9.427 9.056 15.01 10.868 1.92.622 3.866 1.203 5.818 1.37 4.118.355 8.25.48 12.38.578 1.247.03 2.5-.34 3.752-.526M153.906 108.802c1.376.652 2.826 1.075 4.115 1.996 5.36 3.825 10.638 7.847 15.222 13.624 3.11 3.917 5.768 8.386 7.646 13.733 1.328 3.778 2.16 7.868 1.91 12.26M49.592 109.36c-3.062 1.864-6.275 3.32-9.16 5.677-4.99 4.077-9.68 8.887-13.546 15.26-2.896 4.767-4.812 10.28-5.78 16.498-.21 1.326-.03 2.784-.03 4.18M153.906 106.568c6.303.62 12.586 1.133 18.59 4.688 7.177 4.25 12.415 11.44 15.933 21.563M190.305 85.342c-3.715 4.562-7.88 7.725-12.562 9.55-3.59 1.398-7.163 2.614-10.89 2.76-1.815.07-3.63.518-5.44.497-2.505-.027-5.004-.332-7.506-.52M49.592 104.893c-4 0-8.01-.16-12.006.03-8.51.414-16.494 3.427-23.457 11.132-.473.523-.998.938-1.5 1.404"/><path clip-rule="evenodd" d="M153.906 104.334c3.88-.093 7.76-.362 11.633-.24 6.53.207 12.894 1.87 18.742 6.435 2.235 1.74 4.27 4.046 6.396 6.09M49.592 111.037c-2.973 4.064-6.218 7.773-8.235 13.143-.68 1.81-1.143 3.804-1.71 5.724-.062-.054-.307-.255-1.076-.89l1.267-.94M39.836 75.567c-.28-.314-.564-.627-.857-.956.292-.44.482-.72.704-1.05 1.6 8.203 5.878 13.196 9.908 18.484M49.967 94c-.062 5.12-.134 10.24-.17 15.36-.003.372.232.747.36 1.118"/></g><g fill="none" stroke="#000" stroke-width="2" stroke-linecap="round" stroke-linejoin="round" stroke-miterlimit="10"><path d="M512.206 56.797c.535 1.37 1.247 2.698 1.578 4.114 1.382 5.936 2.943 11.852 3.88 17.862 1.18 7.55 1.998 15.165 1.875 22.845-.068 4.285.173 8.58-.063 12.854-.255 4.596-.757 9.19-1.416 13.748-.79 5.438-1.715 10.87-2.87 16.242-.72 3.337-1.994 6.552-2.963 9.84-.205.697-.15 1.47-.272 2.114-4.828 13.266-11.085 25.697-21.643 35.838-4.423-4.677-8.898-9.14-13.06-13.882-6.49-7.39-12.767-14.972-19.135-22.47"/><path clip-rule="evenodd" d="M419.38 18.94c-3.77-2.962-8.006-5.108-12.314-7.15-4.36-2.065-8.868-3.723-13.57-4.803-11.878-2.727-23.35-1.748-34.062 4.33-3.69 2.093-7.02 4.82-10.33 7.13-4.463-3.35-8.936-6.944-13.667-10.157-2.575-1.75-5.52-2.938-8.886-2.603-2.647.264-4.137 1.75-5.17 3.967-1.543 3.297-1.787 6.845-1.55 10.354.29 4.302.785 8.62 1.604 12.85 1.078 5.52 2.5 10.978 3.906 16.43.467 1.812 1.393 3.5 1.986 5.288.204.616.246 1.45-.003 2.026-2.587 5.948-3.68 12.288-4.852 18.59-1.64 8.843-2.64 17.766-2.516 26.78.085 6.072-.05 12.165.432 18.207.456 5.685 1.604 11.312 2.414 16.97.757 5.3 2.102 10.454 3.756 15.534.22.662.668 1.312.666 1.965-.006 1.01-.225 2.048-.505 3.03-1.155 4.06-2.51 8.064-3.517 12.156-1.12 4.542-2.244 9.12-2.814 13.75-.65 5.264-1.232 10.615.274 15.884.61 2.127 1.467 4.012 3.555 5.208 2.363 1.352 4.686.908 6.97.12 4.46-1.54 8.188-4.345 11.783-7.303 2.056-1.688 4.025-3.474 6.104-5.275 4.014 3.62 8.308 6.76 13.187 9.032 5.206 2.425 10.656 3.782 16.417 4.145 9.493.6 18.36-1.7 26.95-5.41 4.987-2.154 9.735-4.765 14.1-8 6.044 4.362 12.645 7.644 19.646 10.166 5.946 2.143 12.073 3.34 18.39 3.37 11.256.052 21.148-3.755 29.807-10.877.948-.78 1.875-1.584 2.576-2.175 4.69 3.52 9.165 7.115 13.893 10.328 2.577 1.75 5.52 2.94 8.887 2.603 2.646-.264 4.13-1.75 5.174-3.965 1.5-3.18 1.765-6.612 1.544-9.997-.28-4.36-.76-8.744-1.606-13.026-1.115-5.646-2.633-11.214-4.07-16.79-.424-1.652-1.163-3.223-1.76-4.83"/><path clip-rule="evenodd" d="M512.117 154.472c-.74-1.726-1.524-3.437-2.223-5.18-2.4-6.005-4.63-12.082-7.186-18.016-2.748-6.382-5.762-12.65-8.728-18.936-.953-2.02-2.172-3.914-3.158-5.92-.238-.477-.238-1.267-.006-1.752 3.35-7.045 6.833-14.024 10.115-21.098 2.404-5.173 4.627-10.433 6.787-15.712 1.335-3.273 2.4-6.656 3.602-9.987.167-.458.41-.89.76-1.638.024-.3-.09-1.05.15-1.656 2.496-6.277 3.982-12.84 5.48-19.39 1.167-5.1 1.912-10.287 1.962-15.528.028-3.013-.185-5.99-1.16-8.948-1.65-5.01-5.605-6.04-10.225-4.427-4.454 1.556-8.188 4.34-11.782 7.312-2.05 1.693-4.026 3.475-6.1 5.27-4.03-3.592-8.294-6.773-13.186-9.03-5.22-2.408-10.66-3.785-16.425-4.14-9.486-.582-18.372 1.65-26.95 5.41-4.848 2.126-9.318 4.918-13.8 7.768-10.244 6.52-18.888 14.835-27.227 23.5-4.007 4.16-7.617 8.702-11.254 12.894 12.45 16.395 24.775 32.625 37.11 48.848.3.398.703.72 1.06 1.076M419.738 105.902c-2.5 3.214-5.016 6.416-7.494 9.645-10.004 13.03-19.995 26.07-29.994 39.103-.205.27-.422.53-.77.956 2.63 3.117 5.267 6.437 8.114 9.557 3.404 3.728 6.935 7.348 10.52 10.9 5.453 5.398 11.302 10.34 17.657 14.663.562.38 1.074.827 1.61 1.245"/><path clip-rule="evenodd" d="M420.273 19.12c3.987 3.155 8.166 6.098 11.913 9.514 5.532 5.045 10.856 10.332 16.08 15.697 3.44 3.535 6.553 7.387 9.697 10.965l-38.394 50.247 38.317 50.154c-9.638 11.94-20.23 23.128-32.618 32.52-1.7 1.286-3.45 2.504-5.175 3.755M381.535 55.904c-2.32 2.917-4.708 5.782-6.948 8.76-7.388 9.825-13.9 20.223-20.004 30.883-1.67 2.914-3.33 5.834-5.007 8.745-.125.21-.35.362-.53.54M490.43 106.26c-1.37 2.262-2.796 4.49-4.097 6.79-8.228 14.534-17.244 28.54-27.685 41.6-.154.195-.35.36-.53.537M458.118 55.904c3.45 4.584 6.95 9.13 10.343 13.758 6.342 8.646 11.804 17.856 17.148 27.135 1.436 2.495 2.85 5 4.294 7.495.12.21.35.362.528.54"/><path clip-rule="evenodd" d="M327.446 56.618c.95 2.38 1.898 4.764 2.857 7.143 2.14 5.3 4.184 10.64 6.453 15.883 2.746 6.355 5.66 12.642 8.56 18.93.844 1.836 1.843 3.604 2.846 5.36 4.387 7.69 8.643 15.458 13.24 23.015 6.002 9.86 12.574 19.34 19.956 28.238M349.046 106.26c-1.188 2.023-2.52 3.98-3.542 6.084-2.756 5.674-5.565 11.337-8.017 17.147-3.274 7.78-6.23 15.696-9.333 23.55-.193.494-.47.955-.708 1.43M381.535 155.9c-2.082 2.44-4.15 4.892-6.25 7.32-5.05 5.84-10.043 11.73-15.195 17.48-3.508 3.916-7.242 7.63-10.943 11.505-5.77-5.417-10.107-11.615-13.845-18.27-2.88-5.134-5.1-10.565-7.15-16.068-.165-.444-.467-.837-.705-1.253M512.117 54.475c-.623-1.37-1.32-2.71-1.862-4.11-4.427-11.45-10.294-21.996-19.102-30.72-.21-.207-.264-.57-.545-1.208-4.984 5.352-9.65 10.155-14.075 15.173-5.472 6.206-10.736 12.594-16.095 18.902-.765.9-1.548 1.786-2.32 2.68M327.446 54.475c.833-1.963 1.716-3.908 2.49-5.895 4.188-10.738 11.4-22.768 19.32-29.643 4.327 4.578 8.812 9.037 12.964 13.784 6.146 7.026 12.055 14.26 18.075 21.39.35.414.826.723 1.24 1.08"/></g><g clip-rule="evenodd" fill="none" stroke="#000" stroke-width="2" stroke-linecap="round" stroke-linejoin="round" stroke-miterlimit="10"><circle cx="-194.518" cy="102.288" r="99.994"/><circle cx="-194.518" cy="102.288" r="41.31"/><path d="M-194.754 1.992v200M-139.132 19.125c-16.817-10.075-28.3 13.75-55.784 13.75M-251.098 20.002c14.797-10.75 28.297 12.874 55.782 12.874M-139.132 185.552c-16.817 10.075-28.3-14.468-55.784-14.468M-251.316 184.477c16.817 10.074 28.516-13.393 56-13.393"/><g><path d="M-94.525 101.976c.748-15.048-27.614-14.66-38.138-34.92M-139.132 19.125c17.26 10.222-4.367 27.07 6.314 47.632"/><g><path d="M-94.525 101.976c.312 15.422-27.615 15.41-38.138 35.665M-138.887 185.39c15.79-9.133-4.612-26.89 6.07-47.45"/></g></g><g><path d="M-294.233 102.71c-1.85-17.108 26.6-15.828 37.28-36.39M-250.73 19.823c-17.064 9.524 4.613 25.637-6.067 46.2"/><g><path d="M-294.233 100.515c-3.01 17.102 26.6 15.827 37.28 36.39M-251.316 184.477c-16.587-10.698 5.2-26.71-5.48-47.273"/></g></g></g></svg>