<svg xmlns="http://www.w3.org/2000/svg" width="292" height="94" viewBox="0 0 292 94">
<style>
  .a{
    fill:#F6F1EF;
  }
  .b{
    fill:none;
    stroke:#000;
  }
  .c{
    fill:none;
  }
  .d{
    fill:none;
    stroke-dasharray:3;
    stroke:#000;
  }
  .e{
    fill:#3E3E3E;
  }
  .f{
    fill:none;
    stroke-linejoin:round;
    stroke-width:2;
    stroke:#000;
  }
</style>
    <rect x="-2019.7" y="-517.6" width="1212" height="874" class="a"/>
    <rect x="-2019.7" y="401.4" width="1212" height="874" class="a"/>
      <defs>
        <rect x="-1847.8" y="-337.3" width="729.8" height="456.5"/>
      </defs>
    <rect x="-1847.8" y="-337.3" width="729.8" height="456.1" class="b"/>
      <rect x="-1616.5" y="-435" width="407.3" height="58.8" style="fill:none;stroke-width:0.3;stroke:#000"/>
      <text transform="matrix(1 0 0 1 -1592.0557 -400.5894)">
        <tspan font-family="'Roboto-Bold'" font-size="17.3642" letter-spacing="3">
          POTENTIAL APP
        </tspan>
        <tspan x="176.4" font-family="'Roboto-Regular'" font-size="17.3642" letter-spacing="3">
          : WEB AUDIO VIS
        </tspan>
      </text>
      <rect x="-1540.9" y="-480.1" width="256.2" height="103.9" class="c"/>
        <path d="M-1751.9-152.1c-0.2 0.4-0.4 0.9-0.6 1.4" class="b"/>
        <path d="M-1755-145.3c-11 25.5-31.8 88 2.7 133.9" class="d"/>
        <path d="M-1750.5-9.1c0.3 0.4 0.6 0.8 1 1.2" class="b"/>
          <circle cx="-1752" cy="-151.9" r="5.6"/>
    <circle cx="-1611.5" cy="72.6" r="18.5" class="d"/>
    <circle cx="-1605.2" cy="-0.1" r="18.5" class="d"/>
    <circle cx="-1527.2" cy="41.8" r="18.5" class="d"/>
    <circle cx="-1431.4" cy="72.6" r="18.5" class="d"/>
    <polyline points="-1611.5 97.1 -1611.5 169.8 -1565.3 169.8 " class="b"/>
    <line x1="-1728.5" y1="13.6" x2="-1728.5" y2="150.5" class="b"/>
    <polyline points="-1431.4 91.4 -1431.4 169.8 -1473.8 169.8 " class="b"/>
    <text transform="matrix(1 0 0 1 -1555.3086 164.8887)">
      <tspan font-family="'Roboto-Regular'" font-size="12" letter-spacing="2">
        INSTANCE
      </tspan>
      <tspan x="12.4" y="14.4" font-family="'Roboto-Regular'" font-size="12" letter-spacing="2">
        COUNT
      </tspan>
    </text>
    <polyline points="-1728.5 189.7 -1728.5 232.5 -1657.1 232.5 " class="b"/>
    <polyline points="-1517.3 189.7 -1517.3 232.5 -1589.1 232.5 " class="b"/>
    <text transform="matrix(1 0 0 1 -1646.8022 232.4873)" font-family="'Roboto-Bold'" font-size="12" letter-spacing="2">
      WEBGL
    </text>
    <polyline points="-1383.9 215 -1383.9 283.1 -1354.4 283.1 " class="b"/>
    <polyline points="-1208.4 215 -1208.4 283.1 -1237.9 283.1 " class="b"/>
    <text transform="matrix(1 0 0 1 -1337.8398 283.0908)">
      <tspan font-family="'Roboto-Bold'" font-size="12" letter-spacing="2">
        WEB AUDIO
      </tspan>
      <tspan x="29.3" y="14.4" font-family="'Roboto-Bold'" font-size="12" letter-spacing="2">
        API
      </tspan>
    </text>
    <text transform="matrix(1 0 0 1 -1091.1885 199.6885)">
      <tspan font-family="'Roboto-Bold'" font-size="12" letter-spacing="2">
        SOURCE AUDIO
      </tspan>
      <tspan x="40.1" y="14.4" font-family="'Roboto-Bold'" font-size="12" letter-spacing="2">
        FILE
      </tspan>
    </text>
    <text transform="matrix(1 0 0 1 -1765.4912 164.8887)">
      <tspan font-family="'Roboto-Regular'" font-size="12" letter-spacing="2">
        INSTANCE
      </tspan>
      <tspan x="14.1" y="14.4" font-family="'Roboto-Regular'" font-size="12" letter-spacing="2">
        SPEED
      </tspan>
    </text>
    <text transform="matrix(1 0 0 1 -1789.4941 -308.5352)" font-family="'Roboto-Regular'" font-size="10" letter-spacing="2">
      MUSIC
    </text>
    <text transform="matrix(1 0 0 1 -1641.3521 -308.5352)" font-family="'Roboto-Regular'" font-size="10" letter-spacing="2">
      ART
    </text>
    <text transform="matrix(1 0 0 1 -1369.5098 -308.5352)" font-family="'Roboto-Regular'" font-size="10" letter-spacing="2">
      ABOUT
    </text>
    <text transform="matrix(1 0 0 1 -1237.9336 -308.5352)" font-family="'Roboto-Regular'" font-size="10" letter-spacing="2">
      CONTACT
    </text>
        <path d="M-1624.2 248.2c-5 19.6-2.9 81.6 240.4 49.7" class="d"/>
          <path d="M-1622.2 242.5c-1.9 2.3-4.8 5.1-7.3 6.5l5.1-0.1 3.9 3.2C-1621.6 249.4-1622.1 245.5-1622.2 242.5z"/>
    <text transform="matrix(1 0 0 1 -1115.3721 233.9189)">
      <tspan font-family="'Roboto-Regular'" font-size="10">
        indi. - In Caves (compilation 12-16) -
      </tspan>
      <tspan x="18.6" y="12" font-family="'Roboto-Regular'" font-size="10">
        01 Chrysaora Colorata.mp3
      </tspan>
    </text>
        <line x1="-1185.8" y1="233.9" x2="-1137.8" y2="233.9" class="d"/>
          <path d="M-1191.8 233.9c2.8 1.1 6.4 2.9 8.5 4.8l-1.7-4.8 1.7-4.8C-1185.4 231.1-1189 232.9-1191.8 233.9z"/>
        <path d="M-1217.9 245.4c-0.1 1.2-0.6 2.3-1 3.4 -0.9-0.9-1.3-1.8-1.4-2.6 -1.1-8.2-2.1-16.4-3.2-24.6 -0.3-2.2-0.7-4.4-1.4-6.5 -0.3-0.8-1.4-1.4-2.1-2 -0.8 0.7-2 1.2-2.3 2 -0.9 2.3-1.4 4.7-2.1 7 -0.7 2.5-1.5 5-2.2 7.5 -0.4 0-0.9 0-1.3 0 -0.4-2.1-0.9-4.2-1.1-6.3 -1.3-10.4-2.4-20.8-3.7-31.2 -0.2-1.5-1.1-2.8-1.8-4.2 -0.5 0-1 0.1-1.5 0.1 -0.5 1.7-1.4 3.4-1.6 5.2 -1.4 11.9-2.6 23.9-4 35.8 -0.1 1.3-0.6 2.5-1 3.7 -1.4-2.6-1.9-5-2.2-7.5 -1.1-8.5-1.9-17.1-3.1-25.6 -0.2-1.7-1.3-3.3-2-4.9 -0.5 0-1 0.1-1.5 0.1 -5.1 8.2-2.6 18-7.1 26.5 -1-1.7-1.6-3.4-2-5.2 -0.9-4-1.5-8.1-2.6-12 -0.4-1.4-1.9-2.6-3-3.8 -0.8 1.3-2.2 2.5-2.4 3.8 -1 5.4-1.6 10.9-2.4 16.4 -0.7 4.6-1.4 9.3-2.1 13.9 -0.4 0-0.8 0-1.3 0 -0.5-2.7-1.2-5.3-1.5-8 -1.1-9.2-2-18.4-3.2-27.6 -0.2-1.6-1.3-3.2-2-4.7 -0.6 0.1-1.3 0.1-1.9 0.2 -4.1 17-2.5 34.6-6.3 51.7 -0.6-0.8-0.9-1.5-1-2.3 -0.5-5.2-1-10.3-1.4-15.5 -1.1-13.1-2.1-26.1-3.2-39.2 -0.1-1.6-1-3.1-1.5-4.7 -0.4 0-0.9 0-1.4 0 -0.5 1-1.2 2.1-1.4 3.1 -0.6 3.4-1.2 6.8-1.5 10.2 -1.1 12.6-2.1 25.3-3.1 37.9 -0.1 1.4-0.5 2.8-0.8 4.2 -1.3-2.9-2-5.7-2.3-8.6 -1.1-9.5-2-19.1-3.1-28.6 -0.2-1.7-1.2-3.4-1.9-5.1 -0.5 0-1.1 0-1.6-0.1 -0.7 1.9-1.7 3.7-2 5.6 -1 7.2-1.7 14.5-2.6 21.7 -0.4 3.2-1.1 6.3-1.7 9.4 -0.4 0-0.8 0-1.1 0 -0.4-1.7-0.9-3.3-1.1-5 -1.1-7.5-2.1-15.1-3.3-22.6 -0.3-1.6-1.2-3.1-1.9-4.7 -0.6 0-1.2 0-1.8 0 -0.6 2-1.5 4-1.7 6 -1.2 12-2.2 23.9-3.4 35.9 -0.3 2.9-0.8 5.7-1.2 8.6 -0.4 0-0.8 0-1.1 0 -0.5-3.7-1.1-7.4-1.5-11.1 -1.1-10.3-2-20.6-3.1-30.9 -0.2-1.6-1.2-3.2-1.9-4.8 -0.6 0-1.1 0.1-1.7 0.1 -0.6 2.2-1.5 4.3-1.8 6.5 -1 7.2-1.6 14.5-2.5 21.7 -0.4 3-1 5.9-1.5 8.9 -0.4 0-0.8 0-1.1 0 -0.4-2.8-0.9-5.6-1.2-8.4 -1.3-13.7-2.5-27.4-3.8-41.2 -0.1-1.5-1-3-1.5-4.4 -0.6 0-1.1 0-1.7 0 -0.6 2.1-1.5 4.2-1.7 6.4 -1.2 11.4-2.1 22.8-3.2 34.2 -0.3 3.2-0.9 6.4-1.3 9.6 -0.4 0-0.8 0-1.2 0 -0.5-2.1-1.1-4.2-1.5-6.4 -0.9-5.3-1.5-10.7-2.6-16 -0.3-1.7-1.5-3.2-2.3-4.8 -0.2 2.2 0.5 3.9 0.8 5.7 1.2 6.4 2.1 12.9 3.3 19.3 0.3 1.5 1.5 2.9 2.2 4.4 0.5-0.1 1-0.1 1.6-0.2 0.6-2.1 1.5-4.1 1.7-6.2 1-10.4 1.8-20.9 2.8-31.3 0.4-4 1.1-8.1 1.6-12.1 0.4 0 0.8 0 1.2 0 0.5 4 1 8.1 1.4 12.1 1.1 12.2 2.1 24.4 3.3 36.6 0.2 1.7 1 3.4 1.6 5.1 0.5 0 1 0 1.5 0 0.6-1.3 1.5-2.6 1.7-4 0.9-5.6 1.5-11.2 2.2-16.7 0.7-5.6 1.5-11.1 2.2-16.7 0.5 0 0.9 0 1.4 0 0.6 4.5 1.3 9.1 1.8 13.6 0.9 9 1.6 18 2.6 27 0.2 2.2 1.2 4.4 1.9 6.6 0.6 0 1.3 0 1.9-0.1 0.6-2.3 1.5-4.5 1.8-6.8 0.9-9 1.6-18 2.4-27 0.5-5.6 1.2-11.2 1.9-16.7 0.5 0 0.9 0 1.4 0 0.4 2.4 1 4.7 1.3 7.1 0.9 6.2 1.5 12.5 2.5 18.7 0.4 2.2 1.5 4.3 2.3 6.4 0.7-0.1 1.4-0.1 2.1-0.2 4.3-11.9 2.5-24.7 6.4-37.7 0.6 1.7 1 2.5 1.1 3.3 0.6 4 1.1 8.1 1.6 12.1 0.9 8.1 1.8 16.2 2.8 24.3 0.2 1.4 1.1 2.7 1.7 4 0.6 0 1.1 0 1.7-0.1 0.6-2.4 1.5-4.7 1.7-7.1 1.1-12.7 2.1-25.5 3.2-38.2 0.3-3.2 0.9-6.4 1.3-9.6 0.5 0 0.9 0 1.4 0 0.7 9.1 1.4 18.2 2.1 27.3 0.8 9.9 1.6 19.8 2.5 29.6 0.1 1.6 1 3.1 1.5 4.7 0.5 0 1.1 0 1.6 0 0.5-1.6 1.4-3.2 1.6-4.8 1.4-13.8 2.6-27.7 3.9-41.5 0.2-2 0.7-4.1 1-6.1 0.3 0 0.7 0 1 0.1 0.4 2.2 0.8 4.3 1.1 6.5 1.1 9.5 2.2 19.1 3.4 28.6 0.2 1.7 1.2 3.3 1.8 5 0.5 0 1 0 1.5 0 0.6-1.2 1.5-2.4 1.7-3.7 1-6.4 1.8-12.9 2.8-19.3 0.6-3.8 1.3-7.6 1.9-11.4 0.5 0 1 0 1.4 0 0.6 2.6 1.3 5.1 1.9 7.7 0.7 3.4 1.2 6.8 2.2 10.1 0.3 1.2 1.9 2.1 2.8 3.2 0.9-1 2.1-1.9 2.5-3 0.7-2.2 1.1-4.5 1.5-6.8 1-5.5 1.9-10.9 2.8-16.4 0.5 0 0.9 0 1.4 0 0.7 3.9 1.4 7.7 1.9 11.6 1 7.4 1.7 14.9 2.7 22.4 0.2 1.6 1.3 3 1.9 4.6 0.4 0 0.9-0.1 1.3-0.1 0.5-1.2 1.3-2.3 1.5-3.5 1.3-10.9 2.4-21.9 3.7-32.9 0.3-2.8 0.9-5.6 1.4-8.3 1 0.5 1.2 1 1.3 1.4 1 7.9 1.9 15.8 2.9 23.6 0.6 4.7 1.4 9.4 2.2 14.1 0.1 0.7 1.2 1.7 1.9 1.7 0.7 0 1.9-0.8 2.2-1.5 1-2.6 1.6-5.3 2.4-8 0.7-2.3 1.5-4.7 2.2-7 0.4 0 0.7 0.1 1.1 0.1 0.3 1.2 0.7 2.3 0.9 3.5 1.3 9.3 2.4 18.6 3.8 27.9 0.2 1.7 1.2 3.4 1.9 5 0.6 0 1.1 0 1.7 0 0.7-2 1.8-3.9 2-5.9 1.1-8.5 2-17 3-25.5 -0.4-0.3-0.8-0.6-1.2-0.9C-1215.7 227.6-1216.7 236.5-1217.9 245.4z"/>
      <path d="M-1743 703.8c-1.3 4.5-2.6 8.7-3.9 13.2 0.5 0.2 1.3 0.4 2 0.6 1.3 0.3 1.9 0.9 1.2 2.4 -0.2 0.4-0.3 1-0.1 1.5 0.5 1.9-0.5 2-1.9 1.8 -1.4-0.2-2.8-0.2-4.6-0.3 0.3 1.3 0.2 2.4 0.8 3 1.4 1.4 0.8 2.4 0.2 4 -0.4 1.2 0.8 3.5 1.9 4.8 3.1 3.5 3.2 7.5 2.9 11.9 1.6-0.3 3.5-0.6 3.2 2.5 0 0.4 2.2 1.1 2.7 1.3 1.5-1.4 2.7-2.2 3.4-3.4 1-1.7 1.8-3.6 2.5-5.5 1.4-3.6 1.7-3.7 4.9-2.6 0.6-1.2 0.9-2.7 1.8-3.4 0.7-0.5 2.2 0.1 3.3 0.2 -0.2 1.4 0.1 3-0.6 4.2 -1.1 1.9-2.7 3.6-4.3 5.1 -0.7 0.6-2 0.5-3.3 0.8 -0.2 2.1-1.2 4.6-0.6 6.7 0.8 2.6 1.2 5.9 4.8 7 2.7 0.8 3.4 3.2 3.3 6 -0.2 3.3-1 6.8 2 9.6 1.5 1.4 2.7 3.2 3.6 5 0.7 1.3 0.8 2.9 1.2 4.8 2.1 1 3.5-0.9 4.6-1.8 -0.2-1.5-0.8-3.2-0.3-3.6 0.9-0.7 2.4-0.7 3.9-1.1 0.9-1.1 2-2.6 3.2-4.2 -0.7-0.3-1.4-0.5-2-0.8 -0.4-0.2-1.1-0.6-1-0.7 0.7-1.6 1.3-3.1 2.2-4.6 0.2-0.4 1.7-0.5 1.9-0.3 0.6 0.9 0.8 2 1.4 3.6 1.8-1 3.7-2.2 5.7-3.3 -0.7-2.1-3.8-3.6-0.9-5.5 2.1-1.4 3 0.5 3.6 2.2 1.1-0.1 1.9-0.2 2.7-0.2 1.2-3.1 2.3-6 3.9-10.2 -0.7-3.7 1.6-7.7 5.1-11.1 -0.9-1.9-1.5-3.7-4-3.5 -0.4 0-0.9-0.9-1.3-1.4 -0.4-0.5-0.7-1.4-1.2-1.7 -2.4-1-2.2-2.3-0.5-3.9 -1.6-1.3-3.6-2.3-2.2-4.7 0.3-0.5 1-1.2 1.5-1.3 0.5 0 1.3 0.6 1.6 1.1 1.6 2.7 3.1 5.4 4.7 8.2 1.1-0.6 2.1-1.2 3.2-1.8 -3.4-5.4 2.6-2.8 4-4.6 -1.4-1.2-3.3-2.1-1-3.9 0.2-0.1 0.2-0.9 0.1-1 -2.6-1.6-1.2-4.1-1.5-6.2 -0.3-2.3-0.1-4.6-0.1-7.1 -4 0-2.8-3.9-4.3-5.9 -0.8-1.1-1.5-2.3-2-3.6 -0.3-0.8-0.5-2-0.1-2.7 0.6-0.9 1.7-1.9 2.7-2.1 0.8-0.2 2.1 0.6 2.6 1.4 0.4 0.7 0.2 2 0.1 2.9 -0.5 3.5 1.1 6 3.8 8 1.2-0.6 2.4-1.2 3.5-1.8 -0.3 1.7-0.1 3.7-1.1 5 -0.9 1.3-1.9 2-1.1 3.9 0.6 1.5 0.1 3.5 0.4 5.2 0.3 1.7 0.9 3.3 1.4 5.1 3.7 1.5 5.7-1.8 8.5-3.5 0.6-0.4 1.4-0.5 2.1-0.7 0.2 0.8 0.5 1.6 0.9 3.1 1.2-0.5 2.6-1.1 4.1-1.8 -0.1-0.9-0.2-1.5-0.3-2.1 -0.3-1.6 0.6-2.3 1.8-1.5 1.9 1.3 3.5 0.1 5.1-0.2 0.8-0.2 1.5-1.4 2-2.3 2.3-3.8 3-8.6 6.7-11.6 1.4-1.1 1.6-2-0.1-3.1 -0.8-0.5-1-1.9-1.5-2.9 1-0.1 1.9-0.2 2.9-0.3 1.1-0.1 2.2-0.1 3.3-0.2 -0.5-1-0.8-2-1.4-2.9 -0.8-1.2-2.1-2-2.8-3.3 -0.4-0.6-0.2-2 0.3-2.6 0.3-0.4 1.6-0.4 2.4-0.2 1.2 0.3 2.3 0.8 3.4 1.4 1 0.5 2.4 0.9 2.7 1.7 0.3 0.7-0.8 1.9-1.5 3.2 1.1 1 2.5 2.5 4.1 3.8 1.9 1.5 3.1 0.9 3.7-1.6 0.9-3.5 1.8-4.4 4.3-3.7 0.6 0.2 1.5 1.9 1.3 2.2 -1.7 2.9-3.3 6.1-6.9 7.1 -0.9 0.3-2.3 0.1-3-0.5 -1.7-1.5-3.5-1.7-5.3-0.3 0.5 1.1 1.5 2.3 1.2 2.9 -0.5 1-1.8 1.9-2.8 2.1 -2.4 0.3-3.7 1.2-3.8 3.8 0 0.6-1.1 1.2-1.7 1.8 -1.2 1.3-2.3 2.6-3.5 3.8 0.2 0.2 0.3 0.4 0.5 0.6 0.6 0 1.2-0.1 1.8-0.1 2.2-0.2 4.8 2 4.6 4.2 0 0.6-0.6 1.6-1.1 1.7 -0.7 0.1-1.8-0.1-2.4-0.6 -2.5-2.2-4.3-2.3-6.7-0.8 -1.3 0.9-1.3 1.7-0.7 3 0.5 1 0.9 2 1.3 3 0.6 1.4 0.8 2.8-1 3.3 -1.8 0.5-2.4-0.8-2.8-2.2 -0.5-1.3-1-2.6-1.9-3.9 -1.5 2.8-3.5 2.6-6 2.6 -2.2-0.1-4.8-0.9-6.8 1.4 -0.9 1-2.9 1.1-4.2 1.8 -2.1 1.1-4.4 2.1-6 3.7 -1 1-1 3.1-1.6 5.5 1.6-0.7 2.4-1.1 3.3-1.3 0.9-0.2 1.8-0.3 2.7-0.3 0.4 0 0.8 0.3 1.1 0.3 0.8-0.1 1.5-0.3 2.3-0.4 0.1 1 0.4 2 0.1 2.8 -0.3 0.7-1.4 1.2-2.2 1.6 -0.4 0.2-1.1-0.1-1.6 0.1 -1.2 0.5-2.2 1.1-3.4 1.7 -0.6 0.3-1.4 1-1.8 0.8 -1.8-0.8-2.5 0.6-2.8 1.7 -0.7 2.6-1.1 5.4-1.5 7.6 1.6 1.1 2.9 1.9 3.9 3 0.3 0.3 0.2 1.7-0.2 2.1 -0.4 0.4-1.5 0.4-2.2 0.2 -0.9-0.2-1.8-0.7-2.7-1.1 -0.5 1.2-1 2.4-1.5 3.6 -0.1 0.3 0.1 0.7 0.1 1.2 1.9-0.2 4.2-3 5.4 0.8 1.6-1 3.1-2 3.9 0.8 0.1 0.4 0.9 0.8 1.4 1 1.5 0.5 3 1.2 4.5 1.3 1.5 0.1 3.1-0.5 4.6-0.8 0.1 0 0.1-0.2 0.2-0.2 4.8 0 9.5 0 14.7 0 0.1-0.1 0.3-0.5 0.6-0.9 1.3-1.6 2.7-1.5 3.6 0.3 1.3 2.5 2.7 2.9 5.2 1.9 1.4-0.6 2.9-0.7 3.7-2.4 0.3-0.7 2-0.7 3-1 0.1 1 0.1 2 0.2 3.7 0.8 0.1 2.3 0 3.7 0.5 0.8 0.3 1.4 1.3 2.3 2.2 0.4-0.5 0.9-1.3 1.5-2 1.1-1.2 2.1-2.6 3.4-3.6 0.5-0.4 1.8-0.2 2.3 0.2 0.7 0.5 1 1.6 1.5 2.4 -0.7 0.4-1.5 0.7-2.1 1.2 -1.2 0.8-3.1 0.9-2.7 3.3 0.1 0.6-1.2 1.5-2.2 2.6 1.8 1.6 4 3.6 6.2 5.6 0.6 0.5 1.1 1.2 1.6 1.8 -0.8 0.6-1.5 1.4-2.4 1.6 -0.6 0.1-1.4-0.7-2.1-1.1 -0.6-0.4-1.3-0.9-1.8-1.4 -1-0.9-2.3-1.8-3-2.9 -1.5-2.3-2.4-5-5.8-5.5 -1.1-0.2-1.9-1.7-3.3-3.1 -0.3 2.5-0.3 4.4-2.9 3.9 -0.2 0-0.5 0.4-0.8 0.5 -0.9 0.5-1.8 1.3-2.6 1.2 -0.6-0.1-1.1-1.4-1.4-2.2 -0.4-1.6-0.9-2.9-3-2.5 -2.5 0.4-4.8-1.6-7.6-0.4 -1.9 0.8-4.2 1.1-6.3 1.3 -1.2 0.1-2.4-0.2-3.5-0.7 -2.2 0.7-2.7 2.4-1.3 4.4 0.5 0.7 1.4 1.4 1.3 2 -0.2 1.2-0.9 2.4-1.4 3.6 -0.7-0.7-1.4-1.5-2.2-2.1 -1.4-1.1-1.6-2.3-1.4-4.1 0.3-2.2-4.1-5.7-6.5-5.7 -0.9 0-1.8-0.3-2.8-0.5 -0.9 1.8-0.2 3.3 0.9 4.8 0.6 0.8 1.1 1.9 1.1 2.8 -0.1 0.9-0.9 1.8-1.4 2.6 -0.7-0.7-1.7-1.2-2.1-2.1 -2.5-5-2.9-6.4-2.6-9 -0.3-0.3-0.7-0.7-1-1 -0.1 0.6 0 1.4-0.3 1.8 -0.8 0.8-1.8 1.3-2.7 1.9 -0.5-0.9-1-1.9-1.7-3.1 -1.8 0-3.7-0.1-4.9 2.7 -0.7 1.5-3.4 2.1-5.5 3.3 1.2 3-2.5 4-4.2 6.3 0.7 0.5 1.4 0.7 1.6 1.1 0.2 0.6 0 1.4 0 2 -1.8-0.4-3.1 1.7-4.1 1.6 -2.9-0.4-4 1.4-5.5 3 -2.7 3-5.4 6.2-4.7 10.7 0.1 1-0.1 2 0.2 2.9 0.2 0.7 0.8 1.9 1.3 1.9 3.3 0.2 6.7 1.1 9.8-0.8 1.4-0.8 2.6-1.8 4-2.7 0.5-0.3 1-0.5 1.6-0.7 0.2 0.6 0.5 1.3 0.6 1.9 0.2 2-0.9 4.5 2.7 4.8 1.2-1.3 2.7-2.2 4.6-0.4 0.3 0.3 1.4 0.2 1.9-0.1 1.6-1 2.6-0.6 3.5 1 1.5 2.5 4 3.4 6.8 3.9 1 0.2 1.9 0.5 3 0.8 0.4-0.8 0.6-1.9 1.3-2.3 0.8-0.5 2-0.4 3-0.6 0 1 0.3 2.1 0 2.8 -0.6 1.3-1.7 2.4-2.6 3.5 1.8 0.7 3.3 1.3 4.8 1.8 0.2 0.1 0.5 0.2 0.7 0.1 3.4-0.8 3.4-0.9 3.5 2.5 0 0.2 0.2 0.5 0.4 0.8 2.5-0.4 4.4-1.1 5.1-4 0.4-1.6 1.6-2.9 2.6-4.6 -0.7-1.3-1.9-3.2 0.9-3.7 0.9-0.2 2.3 1.2 3.1 2.2 0.4 0.5 0.3 1.8 0 2.4 -0.4 0.8-1.4 1.4-2.1 2.1 -0.5 0.5-1 1-1.8 1.8 3.7 0.5 6.8 0.8 9.8 1.4 0.9 0.2 1.8 1.2 2.5 2 0.3 0.4 0.1 1.3 0.1 2 -0.7 0-1.6 0.2-2.2-0.1 -3-1.5-6-1.7-9.2-0.7 -1.5 0.4-2 1-0.9 2.5 1.1 1.4 1.9 2.9 3.3 4.2 0.9 0.8 0.6 3.8-0.2 5.3 -0.7 1.4-2.5 0.5-2.7-1 -0.3-2.4-1.5-1.9-2.8-1.1 -1.5 0.9-2.9 1-3.5-0.9 -0.6-1.7 0.4-2.5 2.1-2.8 0.7-0.1 1.3-0.8 2.9-1.7 -2.3-1-3.8-1.9-5.4-2.3 -2.7-0.7-5.9 0.4-7.9-2.8 -0.7-1.2-5.4-0.2-6.4 0.9 -1.1 1.3-2.3 2.5-3.5 3.7 -0.4 0.3-1.3 0.4-1.8 0.2 -0.5-0.2-1-1.1-0.9-1.4 0.4-1.1 0.9-2.4 1.7-3.2 0.7-0.8 1.9-1 2.7-1.8 0.7-0.7 1.1-1.8 1.8-3 -2.5 0.7-3.8 0-4.6-2.4 -0.3-1-2.1-1.7-3.4-2 -2.8-0.8-5.6-1.3-8.8-1.9 1 3.3-0.8 5.2-3.1 6.7 -0.3 0.2-0.4 0.8-0.7 1.1 -0.5 0.5-1 0.9-1.5 1.4 -0.5-1-1.6-2.2-1.3-2.9 0.6-2 1.8-3.8 3.1-6.3 -2.4-1-4.7-1.9-7.2-3 0 0.8 0 1.1 0 1.3 -0.2 1-0.4 2-0.7 3.1 -1-0.4-2.6-0.6-2.9-1.3 -0.9-2.3-2.8-2.4-4.6-2.1 -1 0.2-2 1.1-2.9 1.7 -0.2 0.1-0.2 0.6-0.4 0.7 -2.6 0.7-3.3 2.8-3.7 4.7 0.8 1.3 2.2 2.7 1.9 3.4 -1.2 3.1-3.1-1.2-4.8 0.4 0.5 1.6 1.2 3.7-2.8 3.3 1.4 1.7 2.3 2.8 3.1 3.9 0.3 0.4 0.4 1.1 0.5 1.6 -0.5 0.1-1 0.3-1.4 0.3 -1.3-0.2-2.6-0.7-3.8-0.6 -0.8 0.1-2.2 0.9-2.2 1.5 -0.2 1.9-1 2.2-2.7 2.2 -1.3 0-2.6 0.5-4 0.8 0.5 2.7-0.5 5.3 1.9 7.4 0.7 0.7 0 3-0.1 4.6 1.4 0 2.4 0 3.1 0 -0.7-1.1-1.5-2.1-1.9-3.2 -0.1-0.3 1.3-1.4 2.1-1.6 1.6-0.3 3.3-1.3 4.6 0.8 0.7 1.1 2 1.8 2.9 2.8 0.5 0.5 0.8 1.5 0.7 2.1 -0.1 0.5-1.3 1.2-1.5 1.1 -2.9-2.1-4.8 1.5-6.6 1.1 -0.9 1.9-1.5 3.4-2.3 4.8 -1.1 1.9-2.5 3.7-3.6 5.7 -0.3 0.6-0.2 1.6 0.1 2.2 0.2 0.4 1.2 0.4 1.8 0.4 0.5 0 1.1-0.2 1.6-0.4 1.6-0.5 3.1-0.6 3.5 1.3 0.4 1.9-0.9 2.6-2.6 2.7 -0.2 0-0.3 0.2-0.7 0.5 0.4 1.3 0.9 2.8 1.4 4.2 0.1 0.3 0.6 0.7 0.5 0.9 -1 3.4 2 4.6 3.5 6.6 1.2-0.8 2.5-1.5 3.7-2.3 0-2.8 1-3.5 3.5-2.5 3.4 1.4 6.4 0.2 7.8-3.2 0.1-0.2 0.3-0.5 0.2-0.7 -2-3.7 1.4-5.1 3.2-7 1.1-1.2 2.6-1 3.4 0.6 0.6 1.2 0.7 2.6 1 3.8 -1.2 0.2-2.4 0.3-3.7 0.5 -0.3-0.2-0.6-0.4-0.8-0.5 -0.1 1.7-0.2 3.5-0.3 5.3 3.3-0.8 3.6-0.6 4.5 2.6 1.8-0.6 3.6-1.5 5.4-1.7 0.9-0.1 1.8 1.3 3 2.3 0.4-0.5 1.4-1.2 1.4-2 0.3-2.8 2-2.4 3.9-2.2 1.2 0.1 2.5-0.3 3.7-0.6 0.7-0.1 1.3-0.5 1.9-0.8 0.7-0.3 1.4-0.6 1.9-1.1 0.8-0.8 1.5-1.7 2.3-2.6 0.8 0.9 1.6 1.8 2.4 2.7 0.2 0.3 0.2 0.7 0.3 0.8 1.3 0.1 2.5 0.3 3.7 0.2 0.6 0 1.1-0.4 1.7-0.6 1.2-0.3 2.5-0.7 3.8-0.6 0.5 0 1.3 1 1.4 1.7 0.1 0.4-0.7 1.1-1.3 1.5 -0.8 0.7-1.9 1.1-2.5 1.9 -1.6 1.9-4.9 1.3-6.2-1.9 -0.7 1.3-1.3 2-1.6 2.9 -0.7 1.7-1.3 3.4-0.8 5.4 0.1 0.5-1.2 1.4-1.8 2.1 -0.6-0.7-1.4-1.4-1.6-2.2 -0.3-1.1-0.1-2.3-0.1-4.1 -2.4-0.2-4.9-0.5-7.4-0.7 -0.4 0-0.9 0.4-1.2 0.8 -1.5 2.6-3.4 4.4-6.8 4.8 0.5 0.3 1 0.7 1.5 1 1.3 0.7 2.2 1.8 1 3 -0.5 0.5-2.4 0.6-2.9 0 -1.2-1.1-2.3-2.6-2.6-4.2 -0.5-2.1-1.9-3.3-3.4-3.5 -4.8-0.6-9.8-1-14.4 1 -1.7 0.7-3.2 1.9-4.5 2.6 1.1 1.6 2.4 2.9 3 4.4 0.4 1 0 2.3-0.1 3.5 -1.1-0.2-2.2-0.4-3.7-0.7 -1.5 1.2-3.5 2.8-5.5 4.4 0.2 0.5 0.8 1.8 0.6 2.1 -1.9 1.8-3 5.4-7 3.2 0.8-1.1 1.7-2.3 2.5-3.6 -2.6-2.2-5-0.9-7.5-0.4 -1.1 0.3-2.3 0.7-3.4 0.5 -0.8-0.2-1.5-1.2-2.3-1.8 0.7-0.7 1.3-1.9 2.1-2 2.5-0.4 5.1-0.5 7.6-0.6 1.6 0 2.6-0.2 3.6-2 0.6-1.2 2.8-1.5 4.4-2.2 0.5-0.2 1-0.3 1.3-0.4 -0.3-1.6-0.6-3-0.9-4.4 -0.1 0.1-0.2 0.2-0.2 0.2 -1.6-2.8-3.1-5.6-4.7-8.6 -2.1 0.7-4.2 1.5-6.4 2.1 -0.7 0.2-1.6 0.2-2.4 0 -0.5-0.1-1.3-0.6-1.3-1.1 -0.1-0.4 0.4-1.4 0.8-1.5 2.6-1 5.3-1.8 8.3-2.8 -0.1-1.7-0.2-3.9-3.2-4.6 -0.7-0.1-1.5-1.1-1.6-1.8 -0.7-3.9-4.9-6.4-7.7-5.4 -0.9 1.4-1.4 2.3-1.9 3.1 -0.9-1-1.8-2-2.7-3 0.2-0.2 0.3-0.5 0.5-0.7 -1.8 0-3.6-0.1-5.3 0 -2 0.1-2.5 1.2-1.4 2.8 0.5 0.6 1.5 1 1.8 1.6 0.4 0.9 0.2 2.1 0.3 3.1 -1-0.1-2.8 0.2-3-0.3 -0.6-1.3-1.3-1.3-2.5-1.3 -0.5 0-1.4-1.4-1.4-2.2 0.1-1.5 0.7-3 1-4.5 -3.4-0.2-5.3 0.7-6.1 3.8 -0.3 1.1-2.4 1.7-3.9 2.6 -0.3 1.4-1 3.1-1.1 4.8 -0.1 0.7 1 1.4 1.6 2.1 0.5 0.7 1.1 1.4 1.6 2.1 -0.7 0.5-1.5 1-2.2 1.5 -0.9 0.6-1.7 1.3-2.9 2.2 1.1 0.5 1.4 0.6 1.7 0.8 0.8 0.5 1.6 1 2.2 1.7 0.1 0.1-0.4 1.3-0.8 1.4 -1.1 0.2-2.5 0.6-3.3 0.1 -3.6-2-3.5-2.1-2.2-6.1 0.6-1.8-0.6-3.1-2.6-3 -2.5 0.2-4.9 0.3-7.4 0.4 -1.7 0-2.9 0.4-2.9 2.4 0 0.4 0 0.9-0.2 1 -2.4 1.3-3.7 3.6-5.1 5.8 -0.1 0.2-0.9 0.3-1 0.2 -1.1-1.5-2-3.1-3-4.6 0.9-0.5 2-0.8 2.7-1.5 0.9-0.8 1.4-1.9 2.1-2.8 0.5-0.7 1-1.7 1.7-1.9 3.7-0.8 4.2-1.4 3.8-4.8 -0.1-0.9 0.7-2 1.1-2.9 0.8 0.7 1.9 1.2 2.2 2.1 1.1 3.1 1.8 3.6 5.4 3.2 1.1-0.1 2.3 0.4 3.4 0.6 0.5-1.7 0.9-3 1.3-4.6 -3.7-0.6-4.5-4.1-5.8-6.9 -0.3-0.5 0.5-2 1.1-2.3 0.6-0.3 2.1 0.1 2.5 0.6 0.9 1.3 1.5 3 2 4.3 1.9-0.3 3.6-0.7 4.6-0.8 -0.5-1.2-1-2.4-1.5-3.6 -0.2-0.5-0.3-1-0.4-1.5 0-0.8 0-1.7 0.1-2.5 0.8 0.3 1.7 0.5 2.5 1 1.9 1.1 3.6 3.1 5.6 1.5 0.1-2.3 0.1-4.1 0.4-5.9 0.1-0.4 1.1-1.1 1.6-1 0.5 0.1 1.3 1 1.2 1.4 -0.7 3.1 0.6 5.1 3.2 6.3 0.7-0.7 1.3-2 2.1-2.2 0.8-0.2 2 0.6 2.6 1.4 2.1 2.5 4.6 1.4 6.7 0.6 1.6-0.6 2-0.4 3 0.8 1.1 1.3 2.8 2.6 4.5 2.9 0.9 0.2 2.2-1.8 3.2-2.8 0.2-0.2 0.2-0.8 0.5-1 2.1-1.9 2.5-3.6 0.4-6 -0.9-1.1-0.7-3.2-1.2-5.4 -0.8 0.9-1.3 1.3-1.7 1.9 -1.1 1.9-2.3 1.6-3.8 0.5 -1.8-1.3-0.7-1.9 0.4-2.8 1.2-1 2.2-2.2 3.4-3.5 -1-1.2-2.6-2.8 1.6-4.1 -5-2.2-9.4-4-10.1-10.3 -1.4 1.9-2 3.2-2.9 4 -0.8 0.6-2.5 1.3-3.1 0.9 -1.3-0.8-1.1-2.2 0-3.5 0.8-0.8 1.3-1.9 1.8-2.6 0.1 0-0.6 0.4-1.1 0.3 -0.8-0.2-2.1-0.9-2.1-1 0.8-2.6-1.4-2.9-2.3-3.6 -1.3 0.9-2.4 1.7-3.4 2.5 -0.5-1.3-1-2.6-1.5-4 -1.8-0.6-3.9-1.3-5.9-2 -0.5 2.4-0.7 4.9-1.7 7 -0.5 1.1-2.5 1.6-3.9 2.2 -0.3 0.1-1.1-0.5-1.2-0.8 -0.1-0.5 0-1.4 0.4-1.7 2.2-1.9 3.2-3.6-0.2-5.4 -0.4-0.2-0.7-1.5-0.5-1.9 0.4-0.7 1.4-1.5 2-1.4 2.1 0.2 2.1-0.5 1.6-2.2 -1.1-4.1-2.5-5-6.9-4.7 -1.6 0.1-3.4-0.5-4.9-0.1 -1.6 0.5-2.9 1.8-4.5 2.9 3.7 1.3 3.9 1.8 2.1 5 -0.4 0.7-1.7 1.3-2.4 1.2 -0.7-0.2-1.6-1.4-1.6-2.1 0.2-2.3-0.8-2.5-2.7-2.5 -3.4 0.1-5.8 1.9-8.4 3.6 -2.1 1.4-3.6 2.4-2.6 5.1 0.2 0.4 0.3 1.1 0.6 1.2 3.2 1.2 2 3.5 1.6 5.6 -0.2 1 0.2 2.3-0.3 3.1 -0.5 0.9-1.7 1.4-2.7 2.1 -0.5-0.9-1.7-2.4-1.4-2.8 2.9-3.9-0.5-6.3-1.6-9.1 -1.8 0.9-3.2 1.6-4.7 2.4 -0.6 0.3-1.5 0.8-1.5 1.1 0.3 2.8-1.7 2.5-3.4 2.9 -1.8 0.4-3.7 1-5.4 1.7 -0.6 0.2-0.8 1.3-1.2 1.9 -0.4 0.8-0.7 1.6-1.2 2.3 -0.8 1.2-1.8 2-3.1 0.8 -1.3-1.2-0.6-2.2 0.6-3.1 0.6-0.5 0.9-1.4 1.3-2.2 -1.1-0.5-2.2-1.2-3.3-1.6 -0.8-0.2-1.8 0.2-2.6 0 -0.7-0.3-1.6-1-1.8-1.7 -0.2-0.5 0.5-1.4 1-2 0.4-0.5 1.1-0.9 1.6-1.4 1.2-1.1 2.2-1.1 3.3 0.2 0.9 1.1 1.9 2.3 3.1 2.9 0.8 0.4 2.2 0.2 3.1-0.2 2.3-0.9 4.7-1.9 6.8-3.3 1.2-0.8 1.9-2.4 2.8-3.6 0.5-0.6 1.1-1.6 1.7-1.5 4.2 0.2 5.5-0.1 6.4-3.7 0.8-3.5 3.2-2.9 5.4-3.3 0.3-0.1 0.7 0 0.5 0 0-1.5-0.5-3.6 0.1-4.1 1-0.8 3-0.8 4.3-0.4 0.6 0.2 0.6 2.2 1 3.9 3.3-3.5 7.9-4.4 12.6-4.8 0-2.1 0-3.9 0-5.9 -0.7-0.3-1.5-0.6-2.3-1 -3-1.1-3-1.2-1.2-3.9 0.3-0.4 0.2-1.5-0.1-1.9 -1.1-1.3-2.5-2.4-3.8-3.7 -2.8 1.4-3.3 1.2-4.3-2.5 -0.5-1.8-0.8-2.7-2.8-1.4 -0.5 0.3-1.8 0.2-2.1-0.3 -0.5-0.6-0.4-1.6-0.5-2.5 -0.1-0.6-0.1-1.2-0.1-1.7 -1.3 1.1-2.2 2.4-3.1 2.4 -1.3 0.1-3.3 0.3-3.5-2.1 0-0.3-1-0.8-1.4-0.8 -3.7 0.4-7.2 1.3-10 4 -0.8 0.7-1.8 1.1-2.8 1.7 0.2 0.2 1.1 0.6 1.2 1.1 0.2 0.8 0.1 1.9-0.4 2.6 -0.2 0.3-1.8 0.1-2.3-0.3 -1.1-1.1-1.8-2.5-2.7-3.8 -0.6 0.3-1.1 0.6-1.6 0.7 -0.9 0.2-1.8 0.3-2.7 0.3 -0.1 0-0.4-1.1-0.2-1.4 0.6-0.9 1.4-1.8 2.3-2.3 0.8-0.5 1.9-0.4 2.9-0.6 4.8-0.5 8.9-2.7 12.2-6.1 1.5-1.5 2.5-1.4 3.8 0 1.4 1.5 2 0.6 2.2-0.9 0.5-3-1.4-5.7-5-7.6 -0.7-0.3-1-1.4-1.4-2.1 -0.6-1-1-2.2-1.8-2.9 -0.8-0.7-1.9-1-2.9-1.3 -2.4-0.6-2.8-1.6-1.3-3.6 0.4-0.6 0.2-2-0.2-2.7 -1.5-2.7-3.3-5.2-4.8-7.8 -0.3-0.5-0.1-1.6 0.3-1.8 0.4-0.3 1.5-0.2 1.9 0.2 2.5 2.6 5.9 4.6 5.9 9 0 1.4 1.3 2.8 2 4.3 1-0.6 2.4-1.5 3.9-2.2 0.5-0.2 1.3 0.1 1.9 0.1 -0.1 0.7 0 1.4-0.4 1.9 -0.5 0.7-1.4 1.2-2.7 2.2 1.2 1 2.3 1.9 3.3 2.7 1.3 1.2 3.5 1.8 2.8 4.4 -0.2 0.7 0.7 1.8 1.1 2.6 0.4 0.8 1 1.5 1.3 2.4 0.5 1.7-0.1 4.5 3.4 3 0 0 0.8 1.5 1.3 2.4 0.8 0.8 1.6 1.8 2.5 2.6 0.7 0.6 1.7 0.8 2.5 1.3 1.1 0.8 1.9 2 3 2.5 2 0.8 4.7-1.8 4.5-3.9 -0.1-1.2-0.1-2.6 0.1-3.8 0.3-1.4 0.9-2.8 1.6-4 0.4-0.6 1.7-1.2 2.2-0.9 2.2 1.1 4.3 2 6.9 2.2 0.8 0 1.5 1.5 2.3 2.3 -0.9 0.4-1.7 0.9-2.6 1 -1.5 0.3-3.1 0.3-4.9 0.4 0.8 0.6 2.1 1.1 2.2 1.8 0.1 1-0.5 2.3-1.3 3 -0.6 0.5-1.9 0.3-3.1 0.5 -1.3 1.6-2.9 3.6-4.1 5.1 1.8 2.5 3.3 4.7 4.8 6.9 0.6 0.9 1.2 2 1.9 2.9 0.6 0.8 1.4 1.4 2.1 2 -0.8 0.8-1.5 1.5-2.7 2.8 -0.7 2.9 3.9 0.6 4 3.2 0.3 0 0.6-0.1 0.9-0.1 0.1-1.5 0.3-3 0.4-4.5 0-0.1 0-0.2 0-0.3 0.6-0.7 1.4-2 1.9-1.9 1.7 0.4 3.4 1.3 5 2 -0.5 0.9-0.8 1.9-1.4 2.6 -0.9 1-2.3 1.6-3.1 2.7 -0.9 1.2-1.4 2.5 0.4 3.9 1.6 1.3 2.6 3.3 4.1 5.4 0.9-2.3 1.4-4.1 2.3-5.6 0.5-0.8 1.7-1.3 2.7-1.8 0.2-0.1 1.3 1.2 1.2 1.7 -0.2 1.3-1 2.4-1.2 3.7 -0.1 0.6 0.3 1.6 0.8 2.1 1.3 1.1 2.8 2 4.2 2.9 1 0.7 2.5 2 3.1 1.7 3.6-1.8 3.6 0.3 3.3 3 2.5 0 3.5-1.4 3.4-3.4 0-1.3-0.5-2.7 1.3-2.4 0.9 0.2 1.9 1.8 2.1 2.9 0.3 2.7 0 5.4-3.7 5.3 1.2 1.7 2.1 3.2 3.3 4.4 0.5 0.5 1.7 0.5 2.6 0.4 0.6 0 1.1-0.6 1.7-0.9 0.2 0.7 0.5 1.4 0.7 2.1 0.1 0.4 0.1 0.9 0.2 1.4 1.7 0.1 3 0.1 4.3-1.6 0.9-1.3 2.9-1.7 4.9-2.8 0.4-0.7 1.2-2.1 1.9-3.5 0.3-0.6 0.5-1.5 0.2-1.9 -1.6-2.6 0-2.8 2.5-2.5 -0.8-0.8-1.4-1.1-1.7-1.6 -0.4-0.6-0.8-1.6-0.6-2.1 0.3-0.5 1.3-0.6 2-0.8 0.6-0.2 1.5-0.1 1.7-0.5 0.8-1.4 1.1-3.1 3.3-3.1 0.2 0 0.5-1.1 0.5-1.6 0-0.4-0.6-0.7-0.9-1 -0.2-0.1-0.6 0.1-0.8 0 -1.1-1.1-2.2-2.2-3.2-3.2 1.2-0.5 2.4-1.1 3.7-1.6 0.3 0.2 0.6 0.4 0.9 0.7 -0.1-2-0.4-4-0.3-5.9 0-0.9 0.6-1.9 1.3-2.5 0.8-0.7 1.9-0.9 3.5-1.6 -1.2-1.7-2.5-3.2-3.5-4.8 -0.5-0.8-0.8-1.9-1-2.9 -0.1-0.6 0-1.3 0-2 -0.8 0.4-2.2 0.7-2.3 1.3 -0.4 1.6-0.9 2.9-2.6 2.1 -0.8-0.4-1-2.1-1.6-3.7 0 0-0.8 0.1-1.4-0.2 -0.9-0.4-1.7-1.2-2.5-1.7 1.1-0.8 2.1-1.9 3.3-2.3 0.6-0.3 1.7 0.6 2.5 0.8 0.6 0.1 1.7 0 1.9-0.4 0.3-0.4 0.1-1.5-0.2-2 -1.2-1.7-2.5-3.2-3.8-4.8 -1-1.2-0.8-2.2 0.5-2.9 1.6-0.8 1.3-1.4 0.2-2.5 -2.1-2.2-3.9-4.7-5.8-7.1 -0.1-0.1-0.2-0.4-0.3-0.4 -2.3-1-4.7-2-7.3-3.1 1.7 3.9-2.3 4.1-3.6 6 -0.2 0.3-1.7 0-2.1-0.4 -0.4-0.4-0.6-1.5-0.4-2.2 0.7-1.9 2.5-3.9 2.3-5.6 -0.2-1.8-2.3-3.3-3.6-5.1 -2.5 0.9-4.7 1.8-7 2.5 -0.4 0.1-1.4-0.3-1.5-0.7 -0.4-1.5-0.6-3.1-0.6-4.6 0-0.3 1.3-1 1.7-0.8 0.9 0.3 1.6 1.1 2.6 1.8 1.2-2.9 3.5-0.9 5.8-0.7 0.1-3.4-1.6-5.5-3.3-7.6 -1-1.2-2.3-2.2-3.1-3.5 -0.3-0.5 0-1.7 0.4-2.4 1.3-2.2 1-3.4-1.3-4.4 -1.7-0.7-3.3-1.4-5.2-2.2 0 0.1-0.1 0.4-0.4 0.6 -1 0.8-2 1.5-3.1 2.2 -0.3-1.3-0.7-2.6-0.9-3.9 -0.1-0.7 0.1-1.5 0.2-2.4 -1.7 1.1-3.1 2.3-4.7 3.1 -0.7 0.3-1.8-0.2-2.8-0.4 0.5-0.8 0.8-1.8 1.5-2.4 0.5-0.5 1.4-0.6 2.9-1.7 -1-0.7-2.2-1.2-3.1-2.1 -1.7-1.8-3.2-3.9-4.9-5.7 -0.5-0.5-1.4-1.1-2.1-0.9 -4.6 0.8-6-3.1-6.7-5.8 -1-3.4-1.7-6.6-4.6-9 -0.3-0.3-0.3-1.4 0-2 0.2-0.4 1.1-0.8 1.6-0.7 1.7 0.3 3.3 0.4 3.8 3 0.6 3.2 2.2 6.3 3.4 9.3 2.3-1.6 2.7-1.3 4.3 0.7 1.4 1.8 3.6 2.9 5.3 4.4 1.1 1 2.3 2.1 2.7 3.4 0.8 2.7 3 2.7 4.9 3 3.4 0.5 3.6 0.4 2.3 4.1 2.3 0.7 4.5 1.4 7.2 2.2 -1.7-3.5-1.2-4.3 2.1-4.5 -1.8-3.8-1.7-4 1.7-5.3 0.5-3.3 0.4-6.7 3.1-9.4 0.5-0.5 0.3-1.9 0.3-2.9 0-1-0.4-1.9-0.4-2.9 0-1.6 0.7-2.8 2.4-2.5 1.7 0.3 2.1 1.5 1.4 3.1 -0.2 0.5-0.2 1.2-0.3 2.4 1.1-0.7 1.7-1.2 2.4-1.5 0.9-0.3 2.2-0.8 2.9-0.4 0.6 0.4 0.5 1.8 0.6 2.8 0 0.7-0.5 1.4-0.3 2.1 0.3 1.5-0.1 2.3-1.6 2.5 -1.4 0.2-2.6 0.2-2.8-1.7C-1742 704.3-1742.8 703.9-1743 703.8z"/>
        <path d="M-1532.8 708.7c-1.7-2.5-3.5-4.9-5-7.5 -1-1.7-1.8-3.5-2.4-5.4 -1.1-3.7 0.5-6.2 4.2-7.1 4.1-1 8.3-0.3 12.3 0.6 4.2 1 8.3 2.3 12.5 3.4 1 0.2 2.1 0.3 3 0 13.4-4.2 27.2-5 41.1-4.3 10.1 0.6 20 2.2 29.9 4.5 0.8 0.2 1.7 0.1 2.5-0.1 14.4-3.4 29-5.1 43.8-4.6 9.1 0.3 18.1 1.7 26.8 4.4 0.9 0.3 2.1 0.2 3 0 5.6-1.4 11.2-3 16.9-4.1 2.5-0.5 5.3-0.3 7.9 0.1 3.8 0.6 5.6 3.5 4.2 7.1 -1.4 3.6-3.6 6.9-5.5 10.2 -0.5 0.9-1.2 1.6-1.3 2.2 1.9 4 4.1 7.9 5.5 12.1 3.1 9.4 1.8 18.8-1.2 28.1 -1.2 3.6-2.7 7-4.2 10.5 -0.5 1.1-0.6 2 0 3.1 5 10.5 7.5 21.5 7.1 33.2 -0.4 9.7-2.8 18.9-6.9 27.7 -0.6 1.4-0.6 2.4 0 3.8 4.2 9 7.2 18.3 6.9 28.4 -0.2 7.5-2.4 14.3-6.8 20.5 -0.3 0.4-0.5 0.8-0.8 1.2 1.7 2.5 3.5 4.9 5 7.5 1 1.7 1.8 3.5 2.3 5.4 1.1 3.7-0.5 6.2-4.2 7.1 -4.1 1-8.3 0.3-12.3-0.6 -4.2-1-8.3-2.3-12.5-3.4 -0.9-0.2-2.1-0.3-3 0 -13.4 4.2-27.2 5-41.1 4.3 -10.1-0.6-20-2.2-29.9-4.5 -0.8-0.2-1.7-0.1-2.5 0.1 -14.5 3.4-29.2 5.2-44.2 4.6 -8.9-0.4-17.6-1.7-26.1-4.3 -1.1-0.3-2.6-0.3-3.7 0 -6.5 2-13 4.1-19.9 4.3 -1.5 0-3.1-0.1-4.6-0.4 -3.8-0.8-5.6-3.5-4.2-7.2 1.4-3.6 3.6-6.9 5.5-10.2 0.5-0.8 1.2-1.6 1.3-2.2 -1.8-4-4.1-7.9-5.5-12.1 -3.1-9.4-1.8-18.8 1.2-28.1 1.2-3.6 2.7-7 4.2-10.5 0.5-1.1 0.6-2 0.1-3.1 -5-10.5-7.5-21.5-7.1-33.2 0.4-9.7 2.8-18.9 6.9-27.7 0.6-1.4 0.6-2.4 0-3.8 -4.2-8.9-7.2-18.2-6.9-28.2 0.2-7.6 2.4-14.6 6.9-20.8C-1533.2 709.3-1533 709-1532.8 708.7zM-1475.1 760.6c13.2 10.7 26.2 21.1 39.2 31.6 13.1-10.6 26-21 39-31.5 -0.3-0.3-0.4-0.5-0.5-0.6 -12-9.8-24.4-18.8-37.3-27.3 -1.1-0.7-1.8-0.3-2.6 0.2 -8.5 6-17.1 12-25.6 18.1C-1467.1 754.1-1470.9 757.3-1475.1 760.6zM-1474.9 824.7c0.3 0.3 0.4 0.5 0.5 0.6 12 9.8 24.4 18.8 37.3 27.3 1.1 0.7 1.8 0.3 2.6-0.2 12.6-8.2 24.8-17.1 36.5-26.6 0.4-0.3 0.8-0.5 1.4-0.9 -13.3-10.8-26.3-21.2-39.3-31.7C-1449 803.8-1461.9 814.2-1474.9 824.7zM-1436.8 792.8c-0.3-0.4-0.5-0.6-0.7-0.7 -12.4-10-24.9-20.1-37.3-30.1 -0.9-0.7-1.5-0.5-2.2 0.2 -8.7 8-17.4 16-26 24.1 -2.1 2-3.9 4.2-6 6.4 0.8 0.9 1.5 1.7 2.2 2.5 9.1 10 19 19.1 29.4 27.8 1.2 1 1.9 1 3.1 0 7.1-5.8 14.2-11.6 21.3-17.3C-1447.5 801.4-1442.2 797.2-1436.8 792.8zM-1362.9 793c-0.6-0.7-0.9-1.1-1.2-1.5 -9.6-10.6-20-20.3-30.9-29.4 -1.1-0.9-1.7-0.4-2.5 0.2 -12 9.7-24.1 19.5-36.1 29.2 -0.5 0.4-0.9 0.8-1.4 1.3 0.4 0.4 0.7 0.7 1 1 12.2 9.9 24.5 19.7 36.7 29.7 0.9 0.7 1.5 0.7 2.4 0 4.9-4.4 10.1-8.6 14.9-13.2C-1374.2 804.6-1368.7 798.8-1362.9 793zM-1435.1 731.5c0.4 0.4 0.6 0.5 0.7 0.6 12.8 8.4 25.3 17.4 37.2 27.1 1 0.8 1.6 0.5 2.4-0.2 5.2-4.4 10.5-8.7 15.6-13.1 5.4-4.6 10.7-9.3 16.1-14.1 -0.4-0.4-0.7-0.8-1-1.1 -9.4-8.3-19.8-15.2-30.9-21 -0.6-0.3-1.7-0.2-2.3 0.1 -6.3 3.4-12.7 6.7-18.9 10.3C-1422.5 723.7-1428.6 727.6-1435.1 731.5zM-1437 731.6c-0.3-0.3-0.5-0.4-0.7-0.6 -12.3-7.1-24.6-14.2-37-21.3 -0.6-0.4-1.8-0.3-2.5 0.1 -6.4 3.8-12.9 7.6-19.1 11.7 -4.4 2.9-8.4 6.5-12.8 10 0.7 0.5 1 0.8 1.4 1 10.3 8.8 20.6 17.6 30.8 26.5 1 0.9 1.6 0.5 2.5-0.2 6.5-5 13-10.1 19.6-15C-1448.9 739.7-1443 735.7-1437 731.6zM-1363 854c-0.7-0.7-1.2-1.2-1.8-1.7 -10-8.5-19.9-17.1-29.8-25.6 -1.1-1-1.8-0.9-3 0 -11.4 9.4-23.4 18-35.8 26.2 -0.5 0.3-0.9 0.7-1.5 1.1 0.3 0.2 0.4 0.4 0.6 0.4 12.4 7.2 24.8 14.4 37.3 21.5 0.5 0.3 1.6 0.2 2.2-0.1 8.3-4.2 16.1-9.1 23.5-14.9C-1368.6 858.6-1365.9 856.3-1363 854zM-1508.9 854c0.5 0.4 0.8 0.5 1 0.7 9.5 8.4 19.9 15.3 31.1 21.1 0.6 0.3 1.7 0.2 2.3-0.1 12.1-6.9 24.2-13.9 36.3-20.9 0.4-0.2 0.8-0.6 1.2-0.9 -0.2-0.2-0.4-0.3-0.5-0.4 -12.9-8.4-25.3-17.4-37.2-27.1 -1-0.8-1.6-0.5-2.4 0.2 -6.3 5.3-12.6 10.6-18.9 15.9C-1500.2 846.1-1504.4 849.9-1508.9 854zM-1477 825.1c-11-10.4-21.9-20.8-32.9-31.2 -8 9.2-15.5 19.1-21.2 30.2 -0.3 0.5 0 1.5 0.3 2.2 4.4 8.5 10.2 15.9 16.9 22.7 1.4 1.4 2.9 2.8 4.3 4.1C-1498.5 843.6-1487.6 834.2-1477 825.1zM-1509.9 791.6c11.2-10.6 22.1-20.9 32.9-31.3 -10.7-9.1-21.6-18.5-32.6-28 -8.5 7.9-15.7 16.6-21.1 26.7 -0.6 1.1-0.6 2 0 3 4.5 6.8 8.8 13.7 13.5 20.4C-1515 785.8-1512.2 788.8-1509.9 791.6zM-1362 791.5c-0.1 0.1 0.1-0.1 0.3-0.2 8-9.1 15.2-18.8 20.8-29.5 0.3-0.7 0.3-1.8-0.1-2.5 -3.5-6.9-8-13.1-13.2-18.8 -2.6-2.8-5.4-5.4-8-8.1 -11 9.5-22 18.8-32.6 27.9C-1384 770.7-1373.1 781-1362 791.5zM-1362.3 853.1c0.3-0.3 0.6-0.5 0.9-0.7 8.1-7.6 15-16.1 20.3-25.9 0.6-1.1 0.6-1.9 0-3.1 -5.6-10.5-12.7-20.1-20.5-29 -0.2-0.3-0.5-0.5-0.4-0.4 -11 10.5-22 20.8-32.8 31.2C-1384.2 834.3-1373.3 843.6-1362.3 853.1zM-1474.6 708.4c0.5 0.4 0.7 0.5 0.9 0.6 12.2 7.1 24.5 14.1 36.7 21.3 1.1 0.7 1.8 0.2 2.6-0.3 11.9-6.9 23.8-13.8 35.8-20.7 0.4-0.2 0.8-0.5 1.3-0.8 -0.5-0.3-0.8-0.5-1.1-0.6 -11.6-5.7-23.7-10.2-36.3-13.3 -0.9-0.2-2-0.2-2.9 0.1 -8.4 2.8-16.9 5.5-25.3 8.5C-1466.8 704.6-1470.6 706.6-1474.6 708.4zM-1397 877.2c-0.7-0.5-0.8-0.7-1-0.7 -12.3-7.1-24.6-14.2-36.9-21.4 -1-0.6-1.6-0.2-2.5 0.2 -12 7-24 13.9-35.9 20.8 -0.4 0.2-0.8 0.5-1.2 0.8 0.4 0.3 0.7 0.4 1 0.6 11.7 5.7 23.8 10.2 36.5 13.4 1 0.2 2.1 0.1 3.1-0.2 5.7-1.7 11.5-3.3 17.1-5.4C-1410.3 882.9-1403.8 880-1397 877.2zM-1340.2 876.6c-7.3-7.4-14.6-14.8-22-22.2 -10.1 9.1-21 16.3-32.8 22.5 0.8 0.4 1.3 0.8 1.9 1 7.9 3.6 15.8 7.3 23.8 10.7 7.4 3.1 7.4 3 14.6-0.7C-1349.2 885.1-1344.4 881.7-1340.2 876.6zM-1509.7 854.3c-7.4 7.5-14.7 14.9-22 22.3 0.7 0.8 1.1 1.3 1.5 1.8 5.2 5.6 11.6 9.3 18.7 12.1 1.3 0.5 2.5 0.7 3.9 0.1 9.8-4.3 19.6-8.6 29.3-12.9 0.4-0.2 0.7-0.5 1.3-0.8C-1488.7 870.6-1499.6 863.4-1509.7 854.3zM-1395 708.3c6 3.7 11.7 6.9 17.1 10.6 5.4 3.7 10.5 7.8 15.8 11.9 7.5-7 15-14.1 21.6-22.1 -0.3-0.4-0.4-0.6-0.6-0.8 -5.6-6.3-12.7-10.4-20.5-13.2 -0.6-0.2-1.5-0.1-2.1 0.2 -3.1 1.2-6.3 2.3-9.3 3.6C-1380.3 701.6-1387.5 704.9-1395 708.3zM-1531.6 708.9c7.3 7.4 14.6 14.8 22 22.2 10.1-9.1 21-16.3 32.8-22.5 -0.9-0.5-1.5-0.8-2.1-1.1 -7.1-3.3-14.2-6.6-21.4-9.7 -9.8-4.2-10.6-4.1-19.8 1.4C-1524.4 701.7-1528.2 704.7-1531.6 708.9zM-1361.6 792.6c4 5.1 8 9.9 11.6 15 3.6 5.1 6.9 10.5 10.2 15.7 9.6-14.2 9.6-48.3-0.2-61.4C-1345.8 773.1-1353.4 783.1-1361.6 792.6zM-1532 761.6c-4.9 10.1-7.5 20.3-7.5 31.1 0 10.8 2.6 21.1 7.5 31.1 6-11.5 13.6-21.5 21.9-31.1C-1518.4 783.2-1526 773.2-1532 761.6zM-1339.6 709.6c-7.4 7.4-14.6 14.8-21.9 22.1 8.6 8 16 17 21.7 27.8 5.2-10.8 8.6-21.5 7.1-33.3C-1333.4 720.1-1335.8 714.5-1339.6 709.6zM-1339.8 825.9c-5.7 10.8-13.1 19.8-21.6 27.7 7.3 7.4 14.5 14.7 21.9 22.2 0.9-1.4 2-2.9 2.9-4.5 4.5-8.2 5.1-16.9 3.6-25.9C-1334.3 838.7-1336.6 832.4-1339.8 825.9zM-1510.3 853.7c-8.5-8-16-17-21.7-27.8 -0.7 1.6-1.3 2.8-1.8 4 -4.3 9.9-6.9 20.1-5 31 1 5.6 3.2 10.6 6.6 14.9C-1524.9 868.4-1517.7 861.1-1510.3 853.7zM-1510.3 731.8c-7.4-7.4-14.6-14.8-21.9-22.2 -5.5 7.1-7.7 15.4-7.2 24.4 0.4 7.9 2.7 15.3 6 22.4 0.4 0.9 0.9 1.8 1.5 3C-1526.3 748.8-1518.9 739.8-1510.3 731.8zM-1433.1 891.5c22.9 5.4 45.8 7.1 69.1 0.3 -0.8-0.4-1.2-0.6-1.5-0.8 -9.8-4.4-19.6-8.7-29.5-13 -0.7-0.3-1.7-0.2-2.3 0.1 -10.9 5.3-22.1 9.6-33.8 12.8C-1431.8 891-1432.4 891.3-1433.1 891.5zM-1433.1 693.6c0.2 0.3 0.2 0.4 0.3 0.5 0.5 0.2 0.9 0.3 1.4 0.5 11.8 3.2 23.2 7.6 34.2 13 0.7 0.3 1.8 0.2 2.5-0.1 9.6-4.2 19.2-8.5 28.8-12.7 0.5-0.2 1.1-0.5 2-0.9C-1387.3 686.8-1410.2 688.6-1433.1 693.6zM-1507.8 693.6c0.6 0.4 0.9 0.6 1.2 0.7 9.9 4.4 19.8 8.8 29.8 13.2 0.6 0.3 1.6 0.2 2.2-0.1 11-5.4 22.3-9.7 34.1-12.9 0.6-0.2 1.2-0.4 1.8-0.6C-1461.7 688.6-1484.5 686.8-1507.8 693.6zM-1438.7 891.5c-0.5-0.2-1-0.4-1.5-0.5 -11.9-3.3-23.4-7.6-34.4-13 -0.6-0.3-1.7-0.2-2.3 0.1 -9.8 4.3-19.5 8.6-29.3 12.9 -0.4 0.2-0.8 0.4-1.6 0.8C-1484.5 898.6-1461.6 896.9-1438.7 891.5zM-1339.7 708c1.8-2.7 3.7-5.2 5.2-7.9 1-1.7 1.6-3.6 2.1-5.5 0.5-2.3-0.6-4.2-2.8-4.7 -2.1-0.5-4.3-0.9-6.4-0.6 -5.3 0.9-10.5 2.2-15.7 3.3 -1 0.2-2 0.7-3.5 1.2C-1352.5 697.1-1345.5 701.3-1339.7 708zM-1511.4 694c0-0.3 0-0.5 0.1-0.8 -5.5-1.3-10.9-2.8-16.4-3.7 -2.7-0.5-5.6-0.2-8.2 0.2 -2.8 0.5-3.9 2.4-3.3 5.2 1 5 4.3 8.8 7.3 12.9C-1526.3 701.3-1519.3 697.1-1511.4 694zM-1532.1 877.5c-1.8 2.7-3.7 5.2-5.2 7.9 -1 1.7-1.6 3.6-2.1 5.5 -0.5 2.3 0.6 4.2 2.8 4.7 2.1 0.5 4.3 0.9 6.4 0.6 5.3-0.9 10.5-2.2 15.7-3.3 1-0.2 2-0.6 3.5-1.2C-1519.3 888.4-1526.3 884.2-1532.1 877.5zM-1360.4 891.4c0 0.3 0 0.5 0 0.8 5.5 1.3 11 2.8 16.6 3.7 2.7 0.5 5.5 0.2 8.2-0.3 2.6-0.4 3.6-2.4 3.1-5 -1-5.1-4.3-8.9-7.3-13C-1345.5 884.2-1352.6 888.4-1360.4 891.4z"/>
        <path d="M-1206.1 833.8c-1.1 7.2-2.9 10-6.2 9.8 -3.7-0.3-4.8-3.4-5.5-6.3 -1-3.7 1.2-6 7-7.8 1.1-8.3 3-10.6 8.4-10.3 4.7 0.3 8.8 3.8 8.6 7.4C-1193.9 830.7-1198.6 833.5-1206.1 833.8z"/>
        <path d="M-1035.2 778c-5.1-1.6-6.5-4.8-6.5-8.4 0-4.4 3.7-5.4 7.1-6.1 1.1-8.4 3-10.7 8.5-10.4 4.5 0.2 8.3 3.4 8.5 6.9 0.2 4.3-3.7 6.8-12.1 7.8 -0.6 2-0.9 4.2-1.8 6C-1032.4 775.4-1034 776.7-1035.2 778z"/>
        <path d="M-1166.4 763.7c0.3-7.8 2.4-10.6 7.5-10.6 4.6 0 8.9 3.2 9.2 6.7 0.3 4.4-4 7.1-12.6 7.9 -0.6 3.9-0.6 8.4-5.9 9.8 -3.7-0.9-5.3-3.8-5.3-7.3C-1173.6 766-1170.1 764.6-1166.4 763.7z"/>
        <path d="M-1206.6 745.4c0.2 6.2-1 8.2-5.6 10.2 -4-1.8-6.4-5.4-5.7-8.7 0.7-3.4 3-4.6 8.6-4.7 -0.8-6.9 1.1-10.5 5.9-11 4.5-0.5 9.4 2.9 9.7 6.7C-1193.4 742.4-1197.9 745-1206.6 745.4z"/>
        <path d="M-1096.6 877.1c0.2 6.6-1.9 10.5-5.5 10.5 -2.7 0-5.6-3.6-5.8-7.2 -0.2-3.9 2.6-5.9 7.7-6.2 0.9-3.1 1.3-6.2 2.7-8.8 0.8-1.3 3.4-2 5.2-2.1 4.5-0.2 8.7 3.7 8.5 7.3C-1084 875.4-1089.4 878.1-1096.6 877.1z"/>
        <path d="M-1119 767.6c-0.8 3.6 0.8 8.9-5.3 9.1 -2.7 0.1-4.3-1.9-4.6-4.4 -0.7-4.8 3.2-5.5 7-6.5 -0.1-1.9-0.3-3.4-0.3-5 -0.1-4.2 2.4-7.2 6.2-7.6 4.6-0.5 9.5 2.4 10.3 6.1 0.7 3.3-2.3 7-6.7 7.8C-1114.6 767.5-1116.7 767.4-1119 767.6z"/>
        <path d="M-1055.7 785.6c-0.8-3.8-0.5-7.3 3-9.4 3.2-1.9 6.5-1.2 9.4 0.7 4.7 3 4.7 8.2-0.2 10.7 -2.7 1.4-6 1.6-9.7 2.4 -0.1 0.9 0.2 2.5-0.3 3.7 -0.9 1.8-2 4-3.6 4.6 -1.2 0.5-3.7-0.8-4.9-2 -1.8-1.9-1.6-4.5 0.3-6.3C-1060 788.4-1058 787.2-1055.7 785.6z"/>
        <path d="M-1121.8 719.8c-0.9-4.3-0.4-7.8 3.1-9.7 3.3-1.9 6.8-1 9.8 1.1 4.2 2.9 4.3 7.6-0.2 10.1 -2.7 1.6-6.2 1.9-9.9 2.9 -0.1 0.8-0.3 2.2-0.5 3.7 -0.3 2.5-1.5 4.9-4.2 4.7 -1.7-0.1-3.8-1.7-4.9-3.2 -1.5-2.2-0.4-4.5 1.7-6.1C-1125.2 722.1-1123.5 721-1121.8 719.8z"/>
        <path d="M-1140.8 833.8c-1.2 7.4-2.7 9.6-6.1 9 -2.9-0.5-4.1-3-3.6-7.7 2.2-1.6 4.5-3.3 6.9-4.9 -0.9-4-0.7-7.4 2.7-9.7 2.9-2 6-1.3 9 0.1 2.5 1.3 4.9 3.3 4.1 6.1 -0.6 2.2-2.7 4.6-4.8 5.7C-1135.1 833.6-1138.2 833.4-1140.8 833.8z"/>
        <path d="M-1180.7 899.8c-3.9 0.1-7.4-3.1-7.6-7 -0.2-4 2.9-7.3 6.9-7.5 4.8-0.2 9.4 3.1 9.6 6.9C-1171.5 895.8-1176 899.6-1180.7 899.8z"/>
        <path d="M-1070.8 863.2c4.6 0 9 3.3 9.1 6.9 0.2 3.7-4.4 7.5-9.1 7.5 -4 0-7.4-3.3-7.3-7.3C-1078 866.3-1074.9 863.2-1070.8 863.2z"/>
        <path d="M-1092.8 833.5c-3.7 0.1-7.4-3.3-7.5-7.1 -0.1-4 3-7.1 7.1-7.2 4.8-0.1 9.3 3.2 9.5 7C-1083.5 829.8-1087.9 833.4-1092.8 833.5z"/>
        <path d="M-1070.7 855.7c-3.7 0-7.4-3.6-7.5-7.2 -0.1-3.9 3.1-7.2 7.2-7.3 4.7-0.1 9.4 3.3 9.5 7C-1061.5 851.9-1066.1 855.6-1070.7 855.7z"/>
        <path d="M-1158.7 811.5c-4 0-7.3-3.1-7.4-7.1 -0.1-4.1 3-7.1 7.2-7.2 4.8-0.1 9.3 3.5 9.1 7.3C-1149.8 808-1154.2 811.5-1158.7 811.5z"/>
        <path d="M-1071 745.2c-4.2 0-6.9-2.7-7-6.8 -0.1-4.1 3.1-7.2 7.2-7.2 4.8 0.1 8.9 3.2 9 6.9C-1061.7 741.9-1066 745.3-1071 745.2z"/>
        <path d="M-1114 775.2c4.6 0.3 8.6 4 8.2 7.6 -0.4 3.8-5.1 6.9-9.8 6.5 -4.2-0.4-6.6-3.1-6.4-7.3C-1121.8 777.7-1118.5 774.9-1114 775.2z"/>
        <path d="M-1180.4 877.6c-3.9 0.1-7.4-3.3-7.4-7.2 0-3.7 3.1-6.9 7-7.1 4.3-0.2 9 3.3 9.1 6.9C-1171.5 873.7-1175.9 877.5-1180.4 877.6z"/>
        <path d="M-1070.6 789.4c-4 0-7.3-3.5-7.2-7.3 0.1-4.2 3.2-7 7.5-6.9 4.5 0.1 8.8 3.7 8.7 7.3C-1061.7 786-1066.2 789.5-1070.6 789.4z"/>
        <path d="M-1180.3 855.6c-3.9 0.1-7.5-3.4-7.5-7.2 0-3.8 3.1-6.9 6.9-7.1 4.2-0.2 9 3.3 9.2 6.8C-1171.5 851.6-1176 855.5-1180.3 855.6z"/>
        <path d="M-1136.3 723.3c-4.2 0-7.3-2.9-7.3-7.1 0-4.2 3-7.1 7.3-7.1 4.5 0 8.7 3.6 8.5 7.3C-1127.9 719.9-1132 723.2-1136.3 723.3z"/>
        <path d="M-1180.6 767.4c-4.1-0.1-7.2-3.4-7.1-7.4 0.1-4 3.5-6.9 7.7-6.8 4.2 0.2 8.4 3.8 8.3 7.1C-1171.8 763.9-1176.3 767.5-1180.6 767.4z"/>
        <path d="M-1095.6 744.7c-4.4-4.1-5.2-7-2.9-10.5 2-3 6.1-3.9 9.8-2.2 3.8 1.7 5.6 4.8 4.6 7.8C-1085.3 743.7-1089.5 745.5-1095.6 744.7z"/>
        <path d="M-1048.4 709.1c4.5 0 8.8 3.4 8.8 7.1 0 3.5-4.1 6.9-8.4 7 -4.4 0.1-7.3-2.6-7.4-6.9C-1055.6 712.1-1052.6 709.2-1048.4 709.1z"/>
        <path d="M-1114.3 811.4c-4.1 0.1-7.3-3-7.3-7.1 0-3.9 2.9-6.9 6.8-7.1 4.3-0.2 8.8 3.3 9.1 6.9C-1105.5 807.5-1109.9 811.4-1114.3 811.4z"/>
        <path d="M-1070.5 811.4c-4.2-0.1-7.1-3.2-6.9-7.4 0.2-4.2 3.3-7 7.6-6.8 4.3 0.2 8.3 3.7 8.2 7.1C-1061.7 808-1066.1 811.5-1070.5 811.4z"/>
        <path d="M-1070.2 701.2c-4.2 0-7.3-2.9-7.3-7 0-4.2 3-7.1 7.3-7 4.5 0 8.7 3.7 8.6 7.3C-1061.7 697.9-1065.9 701.2-1070.2 701.2z"/>
        <path d="M-1047.7 855.2c-4.1 0-7-2.7-7.1-6.7 -0.1-3.9 2.8-6.9 6.8-7 4-0.2 8.4 3.5 8.4 7C-1039.7 851.8-1043.8 855.1-1047.7 855.2z"/>
        <path d="M-1136 877.2c-4.1-0.1-7-2.9-7-6.8 0-3.9 2.9-6.8 7-6.9 4.1-0.1 8.4 3.7 8.3 7.1C-1128 874-1132 877.3-1136 877.2z"/>
        <path d="M-1207.9 766c-0.4-1.6-0.9-3.2-1.1-4.8 -0.5-4.3 1.7-7.1 5.8-7.7 4-0.6 8.5 2.3 9.2 5.8 0.7 3.8-3.1 7.8-7.8 7.7 -2.1 0-4.2-0.8-6.3-1.2L-1207.9 766z"/>
        <path d="M-1157.9 833.2c-4.1 0-7-2.7-7.2-6.6 -0.1-4.1 3-7.3 7.1-7.2 4.1 0.1 8.3 3.7 8.2 7.2C-1149.9 829.8-1154 833.2-1157.9 833.2z"/>
        <path d="M-1150.3 716c0.1 3.7-3.2 6.6-7.7 6.9 -3.6 0.2-6.8-2.6-7-6.3 -0.2-3.6 2.7-7 6.2-7.1C-1154.5 709.3-1150.5 712.3-1150.3 716z"/>
        <path d="M-1094 841.7c6.9 1.3 9.4 3.3 9.2 7 -0.2 3.1-3.1 5.5-7.5 6 -3.4 0.4-5.9-1.2-6.8-4.4C-1100.2 846.3-1098.7 843.7-1094 841.7z"/>
        <path d="M-1027.2 832.8c-3.4-0.1-6-3.1-5.8-6.7 0.1-3.5 2.7-6.2 5.8-6.2 4.4-0.1 8.6 3.3 8.4 6.8C-1018.9 829.8-1023.2 832.9-1027.2 832.8z"/>
        <path d="M-1097.1 694c0.1-3.5 3.1-6.4 6.4-6.2 3.3 0.2 6.6 3.4 6.6 6.3 0 3.2-3.6 6.5-7 6.5C-1094.4 700.6-1097.2 697.6-1097.1 694z"/>
        <path d="M-1112.7 842.2c3.5 0.1 6.5 3.1 6.5 6.3 -0.1 3.3-3.6 6.4-7.1 6.3 -3.3-0.1-5.7-2.8-5.7-6.3C-1118.9 844.7-1116.3 842.1-1112.7 842.2z"/>
        <path d="M-1185.1 782.2c0-3.6 2.8-6.2 6.4-6.1 3.5 0.1 6.4 3.1 6.4 6.3 -0.1 3.2-3.2 6.2-6.5 6.2C-1182.2 788.7-1185.1 785.6-1185.1 782.2z"/>
        <path d="M-1230.7 892.3c0-3.3 2.4-5.8 5.6-5.9 3.5-0.1 7.6 3 7.7 5.8 0.1 2.8-3.9 6.2-7.4 6.2C-1227.9 898.6-1230.7 895.6-1230.7 892.3z"/>
        <path d="M-1230.6 848.3c0-3.4 2.7-6 6.1-5.8 3.4 0.2 7 3.2 7.1 5.9 0 2.9-4.4 6.3-7.9 6.2C-1228.2 854.4-1230.6 851.5-1230.6 848.3z"/>
        <path d="M-1217.4 782.3c0 2.8-4 6.1-7.4 6.1 -3.1 0-6-3-5.9-6.1 0.1-3 3.2-5.8 6.3-5.8C-1221.1 776.5-1217.5 779.6-1217.4 782.3z"/>
        <path d="M-1026.7 854.3c-3.1-0.1-5.5-2.5-5.6-5.8 -0.1-3.5 2.5-6.2 5.7-6.1 3.6 0.1 7.3 3.1 7.3 6.1C-1019.3 851.4-1023.1 854.4-1026.7 854.3z"/>
        <path d="M-1230.4 738.4c0-3.4 2.1-5.9 5.3-6.1 3.4-0.2 7.6 3 7.6 5.8 0 2.8-3.9 6-7.5 6.1C-1228 744.3-1230.3 741.9-1230.4 738.4z"/>
        <path d="M-1118.4 857.9c0.1 4-2.6 7.7-5.6 7.7 -2.9 0-6-3.9-5.9-7.6 0-3.1 2.7-5.7 5.8-5.7C-1120.9 852.3-1118.5 854.6-1118.4 857.9z"/>
        <path d="M-1058.4 711.6c-4.3-2.6-6.2-6.1-5.1-9.4 1-2.9 3-4.3 6.1-4 2.8 0.3 4.5 1.9 5 4.7C-1051.8 706.5-1054.2 710-1058.4 711.6z"/>
        <path d="M-1151.9 814.1c0.1-3.2 2.5-5.7 5.6-5.7 3.3 0 5.9 2.6 5.8 6 -0.1 3.8-2.6 7-5.6 7.1C-1148.9 821.5-1152 817.7-1151.9 814.1z"/>
        <path d="M-1107.9 725.8c0.7-4.1 3.2-5.8 7.6-5.9 1.2 1.1 2.5 2.2 3.6 3.2 0.4 5.7-1.4 9.6-4.5 10.2C-1104.4 734-1106.4 731.8-1107.9 725.8z"/>
        <path d="M-1030.6 723.3c0.6 5.1-0.9 8.4-4.8 10.4 -4.5-1.6-6.8-4.9-6.3-8.5 0.5-3.4 2.6-4.7 7.8-5C-1032.9 721.1-1031.7 722.2-1030.6 723.3z"/>
        <path d="M-1074.4 726c0.1 3.7-2.4 7.2-5.3 7.4 -3 0.2-6.1-3.6-6-7.3 0-3.3 2.5-5.8 5.7-5.7C-1076.9 720.3-1074.5 722.7-1074.4 726z"/>
        <path d="M-1210.4 720.3c3.9 3.2 4.6 5.8 2.7 9.5 -1.1 2.3-2.8 3.8-5.5 3.2 -2.4-0.5-4.7-4.2-4.5-7.1C-1217.5 722.8-1215.5 721.2-1210.4 720.3z"/>
        <path d="M-1207.9 766l-0.2-0.2c0.3 2.2 1.1 4.6 0.7 6.7 -0.6 3.7-3.1 5.3-5.8 4.7 -2.6-0.6-4.9-4.6-4.4-7.6 0.5-3.2 3.4-5.3 6.5-4.8C-1210 765-1209 765.6-1207.9 766z"/>
        <path d="M-1224.4 798.6c3.3 0 6.6 2.8 6.7 5.6 0.1 2.8-3.7 6-7 5.9 -3-0.1-5.4-3-5.3-6.2C-1229.8 800.9-1227.4 798.6-1224.4 798.6z"/>
        <path d="M-1014.1 777.4c-4.2-2-5.9-4.8-5.1-8.4 0.7-2.8 2.5-4.4 5.3-4.3 2.9 0 4.5 1.9 5.2 4.6C-1007.9 772.5-1010.1 775.8-1014.1 777.4z"/>
        <path d="M-1052.6 748.7c-0.1 3.4-2.9 6.5-5.8 6.3 -2.8-0.2-5.3-3.5-5.1-6.9 0.2-3.1 2.6-5.5 5.4-5.4C-1055 742.8-1052.5 745.6-1052.6 748.7z"/>
        <path d="M-1069.2 765.6c-5.9-1.7-6.7-3.5-3.9-9.4 4-1.9 7.4-1 8.8 2.1C-1063.2 761.4-1064.7 763.7-1069.2 765.6z"/>
      <path d="M43.1 66.7c-0.4 0-0.8 0.1-1.2 0.1 -1.1 0-2.2 0-3.2 0.1 -1.6 0.1-2.6 1.2-2.7 2.7 -0.1 1.3 0.8 2.7 2.2 3.1 0.6 0.2 1.2 0.2 1.8 0.2 2.4 0.1 4.7 0.1 7.1 0.2 0.4 0 0.8 0 1.1 0 1.1-0.1 2-0.6 2.7-1.5 0.3-0.4 0.7-0.8 1.2-1.1 1-0.7 1.4-1.6 1.4-2.8 -0.1-1-0.5-1.8-1.3-2.4 -1.4-1-2.8-2-4.3-3 -0.7-0.4-0.9-0.9-0.9-1.7 0.1-1.8 0.2-3.6 0.3-5.4 0-0.2 0.1-0.5 0.1-0.7 0-1.1 0.1-2.3 0.1-3.4 0-0.9-0.3-1.6-0.9-2.3 -0.2-0.2-0.3-0.4-0.5-0.7 0.4-0.3 0.7-0.5 1-0.8 1-0.9 1.3-2.2 0.6-3.4 -0.6-1.1-1.8-1.7-3-1.3 -1.4 0.4-2.2 1.5-2.1 2.9 0.1 0.6 0.4 1.2 0.7 1.7 0.4 0.7 0.4 0.7-0.2 1.2 -1 0.8-1.5 1.8-1.5 3 -0.1 2.1-0.2 4.2-0.2 6.4 0 1.2-0.2 2.2-0.8 3.3 -0.9 1.4-0.5 3.1 0.9 4.1 0.4 0.3 0.8 0.5 1.2 0.8 0.3 0.2 0.5 0.4 0.7 0.7C43.1 66.6 43.1 66.6 43.1 66.7zM48.4 69.9c0.1 1.2-0.4 2-1.6 2.1 -0.7 0.1-1.4 0.1-2.1 0 -1.2 0-2.4-0.1-3.5-0.2 -0.2 0-0.4 0-0.6 0 -1.3-0.1-1.9-0.8-1.9-1.9 0-1.1 0.6-1.8 1.9-1.8 1.6 0 3.2 0.1 4.8 0.1 0.5 0 1.1 0 1.9 0 -0.3-0.3-0.5-0.5-0.7-0.7 -1.1-0.8-2.2-1.5-3.3-2.3 -0.5-0.3-0.9-0.7-1-1.3 -0.1-0.8 0-1.5 0.7-2 0.7-0.5 1.4-0.5 2.1-0.1 0.4 0.3 0.9 0.6 1.3 0.9 1.2 0.8 2.4 1.7 3.6 2.5 0.5 0.4 0.9 0.8 1 1.4 0.2 1.1-0.4 2-1.5 2.1 -0.3 0-0.6 0-1.1 0.1C48.3 69.3 48.3 69.6 48.4 69.9zM45.7 59c-0.1 1.1-0.7 1.7-1.7 1.7 -1 0-1.8-0.7-1.8-1.8 0-2.2 0.1-4.3 0.2-6.5 0-0.3 0.1-0.5 0.3-0.8 0.3-0.6 1.1-1 1.8-0.9 0.7 0.1 1.3 0.6 1.4 1.3 0.1 0.9 0.1 1.7 0.1 2.8C45.9 56.1 45.8 57.6 45.7 59z" class="e"/>
      <path d="M248.6 66.4c0.3-0.2 0.5-0.4 0.8-0.6 0.4-0.3 0.9-0.6 1.3-0.9 1.4-1.1 1.7-2.7 0.7-4.2 -0.5-0.7-0.7-1.5-0.7-2.4 0-2.3-0.1-4.5-0.2-6.8 0-0.3 0-0.6-0.1-0.8 -0.2-1-0.6-1.9-1.6-2.4 -0.2-0.1-0.3-0.3-0.5-0.5 0.3-0.4 0.5-0.6 0.7-1 0.7-1.1 0.7-2.4-0.1-3.3 -0.9-1-2.2-1.4-3.3-0.8 -1.8 0.8-2.2 3.3-0.6 4.6 0.3 0.3 0.6 0.5 1 0.9 -1.6 1.2-1.6 2.8-1.5 4.4 0.1 2.6 0.2 5.1 0.4 7.7 0.1 1-0.2 1.6-1 2.2 -1.5 0.9-2.9 1.9-4.3 3 -1.8 1.4-1.7 3.6 0.1 4.9 0.4 0.3 0.9 0.7 1.2 1.2 0.7 0.9 1.5 1.4 2.6 1.5 0.6 0.1 1.3 0 1.9 0 0.9 0 1.7-0.1 2.6-0.1 1.4 0 2.8 0 4.2 0 0.6 0 1.1-0.1 1.6-0.2 2.1-0.7 2.7-3.2 1.3-4.8 -0.6-0.7-1.4-1-2.2-1 -1 0-2 0-3 0 -0.4 0-0.7-0.1-1.1-0.1C248.7 66.6 248.7 66.5 248.6 66.4zM242.3 68.9c-1.4-0.3-2-1.8-1.1-3 0.2-0.3 0.5-0.5 0.8-0.7 1.4-1 2.8-1.9 4.1-2.8 0.3-0.2 0.6-0.4 0.9-0.5 0.8-0.3 1.7-0.1 2.2 0.6 0.5 0.6 0.5 1.6 0 2.2 -0.2 0.3-0.6 0.6-0.9 0.8 -0.8 0.6-1.7 1.2-2.5 1.7 -0.3 0.2-0.6 0.5-1.1 0.8 1 0.3 1.8 0.2 2.6 0.2 1.1 0 2.3-0.1 3.4-0.1 0.4 0 0.9 0.1 1.3 0.3 0.8 0.3 1.2 1.2 1.1 2 -0.1 0.8-0.7 1.3-1.6 1.5 -0.3 0-0.7 0-1 0.1 -1.3 0.1-2.6 0.1-4 0.2 -0.5 0-1 0-1.5 0 -1.3-0.2-1.9-1-1.8-2.3 0-0.2 0-0.4 0.1-0.7C242.9 69 242.6 68.9 242.3 68.9zM245.7 52.5c0.1-0.9 0.5-1.4 1.3-1.6 0.7-0.2 1.6 0.1 1.9 0.9 0.2 0.5 0.4 1.1 0.4 1.6 0.1 1.7 0.2 3.3 0.2 5 0 1.4-0.7 2.3-1.8 2.4 -1.1 0-1.8-0.8-1.9-2.2 -0.1-1.4-0.2-2.8-0.3-4.2 0 0 0 0 0.1 0C245.7 53.7 245.6 53.1 245.7 52.5z" class="e"/>
      <path d="M255.7 28.6c0 1.2-0.6 2-1.6 2.5 -0.5 0.3-1.1 0.6-1.6 1 -1.3 0.9-2.6 0.8-3.7-0.3 -0.6-0.6-1.2-1.1-2-1.5 -0.9-0.3-1.3-1.1-1.6-1.9 -0.2-0.6-0.4-1.2-0.7-1.8 -0.6-1.3-0.4-2.7 0.7-3.5 1.1-0.9 2.5-0.9 3.5 0.1 0.6 0.5 1.2 0.9 2 1.1 0.4 0.1 0.8 0.3 1.1 0.6 0.6 0.5 1.2 0.9 2 1.1C255 26.3 255.7 27.3 255.7 28.6z" class="e"/>
      <path d="M47.4 25.5c-0.5 1.1-1 2.6-1.7 4.1 -0.2 0.4-0.7 0.6-1.2 0.8 -0.6 0.3-1.1 0.6-1.5 1.1 -1.2 1.5-2.6 1.6-4.1 0.5 -0.4-0.3-0.9-0.6-1.4-0.8 -1.6-0.8-2.2-2.5-1.3-4 0.4-0.6 0.9-1 1.5-1.2 0.7-0.2 1.3-0.7 2-1.1 1.3-0.8 2.7-1.5 4-2.3C45.5 21.7 47.4 23.2 47.4 25.5z" class="e"/>
      <path d="M95.1 58.3c0 0.1 0 0.1 0 0.2 0 0.5 0 1 0.2 1.4 0.3 1.3 1.3 2.1 2.6 2.2 1.4 0.1 2.5-0.5 3-1.8 0.2-0.5 0.3-1.1 0.3-1.7 0-2.5 0-5 0-7.5 0-0.8-0.1-1.5-0.3-2.3 -0.4-1.4-1.7-2.2-3-2 -1.4 0.2-2.4 1.2-2.6 2.6 0 0.3 0 0.7 0 1 0 1.3 0 2.6 0 3.9C95.1 55.6 95.1 57 95.1 58.3zM96.2 51.5c0-0.7 0.3-1.3 1-1.6 1.1-0.5 2.4 0.1 2.5 1.3 0.2 2.1 0.2 4.3 0.2 6.5 0 0.2-0.1 0.4-0.1 0.6 -0.2 0.9-0.9 1.4-1.7 1.4 -0.9 0-1.6-0.6-1.8-1.5 -0.1-0.4-0.1-0.8-0.1-1.1 0-0.1 0-0.1 0-0.2 0-0.8 0-1.5 0-2.3 0 0 0 0 0 0C96.2 53.5 96.2 52.5 96.2 51.5z" class="e"/>
      <path d="M195.7 39.1c0.8 2.2 1.5 4.5 2.3 6.7 0.2 0.5 0.4 1 0.6 1.4 0.7 1.3 2.1 1.9 3.5 1.4 1.4-0.5 2.2-1.9 2-3.4 -0.1-0.3-0.2-0.7-0.3-1 -0.9-2.6-1.8-5.2-2.7-7.8 -0.1-0.4-0.3-0.8-0.5-1.1 -0.7-1.2-2-1.6-3.4-1.2 -1.2 0.4-2 1.5-2.1 2.9C195.3 37.7 195.5 38.4 195.7 39.1zM198.1 36.8c0.8-0.2 1.5 0 2 0.7 0.2 0.3 0.3 0.6 0.5 0.9 0.6 1.7 1.1 3.4 1.7 5 0.1 0.2 0.1 0.5 0.2 0.7 0.1 0.8-0.3 1.6-0.9 1.9 -0.7 0.4-1.7 0.2-2.2-0.4 -0.3-0.3-0.5-0.6-0.6-1 -0.6-1.7-1.2-3.4-1.7-5.1 -0.1-0.3-0.1-0.7-0.2-0.9C196.9 37.6 197.3 37 198.1 36.8z" class="e"/>
      <path d="M196.1 29c-1.9-1.6-3.7-3.2-5.6-4.8 -0.7-0.6-1.5-1.2-2.3-1.6 -1.1-0.6-2.3-0.3-3.2 0.6 -0.8 0.8-1.1 2.1-0.6 3.2 0.3 0.6 0.7 1.1 1.2 1.5 2.1 1.8 4.2 3.6 6.4 5.4 0.4 0.3 0.8 0.6 1.2 0.8 2 0.8 4.1-0.6 4.1-2.7C197.3 30.4 196.8 29.6 196.1 29zM193.4 32.2c-0.7 0.1-1.3-0.1-1.8-0.5 -1.3-1.1-2.7-2.2-4-3.4 -0.3-0.2-0.6-0.5-0.8-0.9 -0.5-0.8-0.4-1.8 0.2-2.4 0.6-0.6 1.6-0.7 2.3-0.1 1.6 1.3 3.3 2.7 4.8 4.2 0.4 0.3 0.6 0.9 0.7 1.2C194.9 31.5 194.3 32.1 193.4 32.2z" class="e"/>
      <path d="M123.6 57.3c-1.1-0.4-2.4-0.1-3.2 0.8 -0.3 0.3-0.5 0.7-0.7 1 -1.4 2.5-2.9 4.9-4.3 7.4 -0.2 0.4-0.4 0.8-0.5 1.2 -0.4 1.8 0.9 3.5 2.7 3.6 1.3 0 2.2-0.6 2.8-1.6 1.5-2.6 3-5.2 4.5-7.9 0.3-0.5 0.4-1.1 0.5-1.4C125.6 58.9 124.8 57.7 123.6 57.3zM123 63.2c-0.8 1.4-1.6 2.8-2.5 4.3 -0.2 0.3-0.3 0.5-0.6 0.8 -0.6 0.7-1.4 0.8-2.2 0.4 -0.8-0.4-1.2-1.3-0.9-2.1 0.1-0.4 0.3-0.8 0.5-1.1 0.8-1.4 1.6-2.8 2.4-4.2 0.1-0.2 0.2-0.4 0.4-0.6 0.6-0.7 1.4-0.9 2.1-0.7 0.7 0.3 1.1 1 1.2 2.1C123.4 62.2 123.2 62.7 123 63.2z" class="e"/>
      <path d="M178.9 47.8c1.9-2.6 3.8-5.2 5.7-7.8 0.5-0.7 0.7-1.5 0.4-2.4 -0.3-1.1-1.1-1.9-2.2-2.1 -1.2-0.3-2.3 0.1-3.1 1.1 -1.8 2.5-3.6 5-5.4 7.4 -0.3 0.4-0.5 0.8-0.6 1.2 -0.5 1.8 1 3.7 2.9 3.7C177.5 48.9 178.3 48.6 178.9 47.8zM182.4 41.2c-1 1.5-2.2 3-3.2 4.5 -0.1 0.1-0.2 0.2-0.3 0.3 -0.7 0.7-1.7 0.9-2.5 0.3 -0.7-0.5-1-1.6-0.6-2.4 0.1-0.3 0.3-0.5 0.4-0.7 1-1.4 2.1-2.9 3.1-4.3 0.2-0.3 0.5-0.6 0.8-0.7 1.3-0.6 2.6 0.2 2.7 1.7C182.8 40.4 182.7 40.8 182.4 41.2z" class="e"/>
      <path d="M200.3 67.1c0.8 0 1.7 0 2.5 0 0.4 0 0.9 0.1 1.3 0.2 0.7 0.3 1.1 1 1.1 1.7 -0.1 0.7-0.6 1.4-1.3 1.4 -2.3 0-4.5 0-6.8-0.1 -1-0.1-1.5-1-1.4-1.9 0.1-0.9 0.7-1.4 1.8-1.4 0.9 0 1.9 0 2.8 0V67.1z" class="e"/>
      <path d="M179.9 70.2c-1.5-0.1-2.9-0.1-4.4-0.3 -1-0.1-1.7-0.7-1.7-1.6 -0.1-0.9 0.5-1.6 1.6-1.8 0.5-0.1 1.1-0.1 1.7-0.1 1.2 0 2.4 0.1 3.7 0.2 0.4 0 0.8 0 1.2 0.1 0.8 0.2 1.4 0.9 1.4 1.6 0 0.8-0.6 1.5-1.4 1.7 -0.1 0-0.2 0-0.3 0 -0.6 0-1.1 0-1.7 0C179.9 70.2 179.9 70.2 179.9 70.2z" class="e"/>
      <path d="M189.2 66.9c1.2 0 2.1 0 2.9 0 0.4 0 0.9 0.1 1.3 0.3 0.7 0.3 1 1 0.9 1.7 -0.1 0.8-0.5 1.3-1.3 1.4 -0.1 0-0.2 0-0.3 0 -2.1 0-4.2 0.2-6.3-0.2 -0.9-0.2-1.5-0.8-1.5-1.6 0-0.8 0.5-1.5 1.4-1.7 0.3-0.1 0.7-0.1 1-0.1C188 66.8 188.8 66.8 189.2 66.9z" class="e"/>
      <path d="M202.7 57c0 1.5-1.3 2.8-2.8 2.8 -1.5 0-2.8-1.3-2.8-2.7 0-1.6 1.1-2.8 2.8-2.8C201.4 54.3 202.6 55.4 202.7 57z" class="e"/>
      <path d="M101.3 66.8c0 1.5-1.2 2.7-2.7 2.7 -1.5 0-2.8-1.2-2.8-2.8 0-1.5 1.3-2.8 2.8-2.8C100.1 64.1 101.3 65.4 101.3 66.8z" class="e"/>
      <path d="M97.3 45.2c-1.5 0-2.8-1.3-2.7-2.8 0-1.4 1.4-2.7 2.8-2.7 1.5 0 2.8 1.4 2.8 2.9C100.1 43.9 98.7 45.3 97.3 45.2z" class="e"/>
      <path d="M122.9 41.2c0 1.5-1.2 2.8-2.7 2.8 -1.5 0-2.9-1.3-2.9-2.7 0-1.4 1.3-2.8 2.7-2.8C121.5 38.4 122.9 39.7 122.9 41.2z" class="e"/>
      <path d="M124.1 55.3c-1.5 0-2.8-1.4-2.8-2.9 0-1.4 1.4-2.7 2.8-2.7 1.5 0 2.7 1.2 2.7 2.7C126.9 53.9 125.6 55.3 124.1 55.3z" class="e"/>
      <path d="M174.1 20.6c0-1.6 1.2-2.8 2.8-2.7 1.5 0 2.8 1.4 2.7 2.8 0 1.4-1.4 2.8-2.7 2.8C175.6 23.4 174 22.2 174.1 20.6z" class="e"/>
      <path d="M114.8 73.3c0.1 1.7-1.7 2.9-2.7 2.8 -1.4 0-2.7-1.3-2.7-2.8 0-1.6 1.2-2.8 2.8-2.8C113.7 70.6 114.8 71.7 114.8 73.3z" class="e"/>
      <path d="M109.7 42.7c-1.5 0-2.8-1.2-2.8-2.7 0-1.4 1.3-2.8 2.7-2.8 1.5 0 2.8 1.3 2.8 2.8C112.5 41.6 111.3 42.7 109.7 42.7z" class="e"/>
      <path d="M181.1 57.4c0 1.5-1.2 2.8-2.7 2.8 -1.5 0-2.9-1.3-2.8-2.8 0-1.4 1.3-2.7 2.7-2.8C179.9 54.6 181.1 55.8 181.1 57.4z" class="e"/>
        <path d="M-1444 998.4c-0.2-0.3-0.5-0.5-0.6-0.8 -3.1-6.1-6.1-12.3-9.3-18.4 -4.1-7.6-8.2-15.1-13.5-21.9 -2.3-2.9-4.6-5.6-7.9-7.4 -2.9-1.7-6-1.7-8.7 0.9 -2.1 2-3.3 4.5-4.4 7.1 -1.6 4.1-2.7 8.3-3.4 12.7 -0.7 4.4-1.2 8.9-1.7 13.3 -0.2 2.2-0.3 4.4-0.4 6.6 -0.1 3.6-0.2 7.1-0.2 10.7 0.1 5.5 0.4 11 0.9 16.5 0.6 5.2 1.3 10.4 2.6 15.5 0.9 3.8 2.1 7.5 4.2 10.8 0.8 1.3 2 2.6 3.2 3.5 2.4 1.8 5.1 1.5 7.6 0 2.8-1.6 5-3.9 7-6.3 3.2-3.9 6-8.2 8.6-12.6 3.5-5.9 6.8-12 9.8-18.2 1.7-3.5 3.6-7 5.4-10.5 0.2-0.3 0.4-0.5 0.6-0.8" class="f"/>
        <path d="M-1443.9 999.1c1.3 2.4 2.5 4.9 3.8 7.3 2.5 4.8 4.9 9.6 7.5 14.4 3.3 6.1 6.7 12.1 10.9 17.7 2.4 3.2 4.9 6.3 8.2 8.6 1.3 0.9 2.8 1.6 4.4 1.7 1.9 0.2 3.5-0.5 4.9-1.8 1.6-1.5 2.7-3.2 3.7-5.2 2.2-4.6 3.5-9.5 4.3-14.5 0.7-4.2 1.2-8.4 1.7-12.7 0.3-2.8 0.4-5.5 0.5-8.3 0.1-3.4 0.2-6.7 0.2-10.1 -0.1-5.5-0.4-11-0.9-16.4 -0.6-5.2-1.3-10.4-2.6-15.5 -0.9-3.8-2.2-7.4-4.2-10.8 -0.9-1.5-2-2.7-3.5-3.7 -2-1.3-4-1.4-6.1-0.5 -2.9 1.1-5 3.2-7.1 5.4 -3.7 4.1-6.6 8.7-9.5 13.4 -3.9 6.4-7.3 13.1-10.7 19.8 -1.8 3.5-3.6 7-5.4 10.5 -0.1 0.1 0 0.4 0 0.5" class="f"/>
      <path d="M-1618 938.9v79.2c0.4-0.1 0.9-0.1 0.9 0.1 0.6 0.9 0.8 2 1.4 3.6 1.8-1 3.7-2.2 5.7-3.3 -0.7-2.1-3.8-3.6-0.9-5.5 2.1-1.4 3 0.5 3.6 2.2 1.1-0.1 1.9-0.2 2.7-0.2 1.2-3.1 2.3-6 3.9-10.2 -0.7-3.7 1.6-7.7 5.1-11.1 -0.9-1.9-1.5-3.7-4-3.5 -0.4 0-0.9-0.9-1.3-1.4 -0.4-0.5-0.7-1.4-1.2-1.7 -2.4-1-2.2-2.3-0.5-3.9 -1.6-1.3-3.6-2.3-2.2-4.7 0.3-0.5 1-1.2 1.5-1.3 0.5 0 1.3 0.6 1.6 1.1 1.6 2.7 3.1 5.4 4.7 8.2 1.1-0.6 2.1-1.2 3.2-1.8 -3.4-5.4 2.6-2.8 4-4.6 -1.4-1.2-3.3-2.1-1-3.9 0.2-0.1 0.2-0.9 0.1-1 -2.6-1.6-1.2-4.1-1.5-6.2 -0.3-2.3-0.1-4.6-0.1-7.1 -4 0-2.8-3.9-4.3-5.9 -0.8-1.1-1.5-2.3-2-3.6 -0.3-0.8-0.5-2-0.1-2.7 0.6-0.9 1.7-1.9 2.7-2.1 0.8-0.2 2.1 0.6 2.6 1.4 0.4 0.7 0.2 2 0.1 2.9 -0.5 3.5 1.1 6 3.8 8 1.2-0.6 2.4-1.2 3.5-1.8 -0.3 1.7-0.1 3.7-1.1 5 -0.9 1.3-1.9 2-1.1 3.9 0.6 1.5 0.1 3.5 0.4 5.2 0.3 1.7 0.9 3.3 1.4 5.1 3.7 1.5 5.7-1.8 8.5-3.5 0.6-0.4 1.4-0.5 2.1-0.7 0.2 0.8 0.5 1.6 0.9 3.1 1.2-0.5 2.6-1.1 4.1-1.8 -0.1-0.9-0.2-1.5-0.3-2.1 -0.3-1.6 0.6-2.3 1.8-1.5 1.9 1.3 3.5 0.1 5.1-0.2 0.8-0.2 1.5-1.4 2-2.3 2.3-3.8 3-8.6 6.7-11.6 1.4-1.1 1.6-2-0.1-3.1 -0.8-0.5-1-1.9-1.5-2.9 1-0.1 1.9-0.2 2.9-0.3 1.1-0.1 2.2-0.1 3.3-0.2 -0.5-1-0.8-2-1.4-2.9 -0.8-1.2-2.1-2-2.8-3.3 -0.4-0.6-0.2-2 0.3-2.6 0.3-0.4 1.6-0.4 2.4-0.2 1.2 0.3 2.3 0.8 3.4 1.4 1 0.5 2.4 0.9 2.7 1.7 0.3 0.7-0.8 1.9-1.5 3.2 1.1 1 2.5 2.5 4.1 3.8 1.9 1.5 3.1 0.9 3.7-1.6 0.9-3.5 1.8-4.4 4.3-3.7 0.6 0.2 1.5 1.9 1.3 2.2 -1.7 2.9-3.3 6.1-6.9 7.1 -0.9 0.3-2.3 0.1-3-0.5 -1.7-1.5-3.5-1.7-5.3-0.3 0.5 1.1 1.5 2.3 1.2 2.9 -0.5 1-1.8 1.9-2.8 2.1 -2.4 0.3-3.7 1.2-3.8 3.8 0 0.6-1.1 1.2-1.7 1.8 -1.2 1.3-2.3 2.6-3.5 3.8 0.2 0.2 0.3 0.4 0.5 0.6 0.6 0 1.2-0.1 1.8-0.1 2.2-0.2 4.8 2 4.6 4.2 0 0.6-0.6 1.6-1.1 1.7 -0.7 0.1-1.8-0.1-2.4-0.6 -2.5-2.2-4.3-2.3-6.7-0.8 -1.3 0.9-1.3 1.7-0.7 3 0.5 1 0.9 2 1.3 3 0.6 1.4 0.8 2.8-1 3.3 -1.8 0.5-2.4-0.8-2.8-2.2 -0.5-1.3-1-2.6-1.9-3.9 -1.5 2.8-3.5 2.6-6 2.6 -2.2-0.1-4.8-0.9-6.8 1.4 -0.9 1-2.9 1.1-4.2 1.8 -2.1 1.1-4.4 2.1-6 3.7 -1 1-1 3.1-1.6 5.5 1.6-0.7 2.4-1.1 3.3-1.3 0.9-0.2 1.8-0.3 2.7-0.3 0.4 0 0.8 0.3 1.1 0.3 0.8-0.1 1.5-0.3 2.3-0.4 0.1 1 0.4 2 0.1 2.8 -0.3 0.7-1.4 1.2-2.2 1.6 -0.4 0.2-1.1-0.1-1.6 0.1 -1.2 0.5-2.2 1.1-3.4 1.7 -0.6 0.3-1.4 1-1.8 0.8 -1.8-0.8-2.5 0.6-2.8 1.7 -0.7 2.6-1.1 5.4-1.5 7.6 1.6 1.1 2.9 1.9 3.9 3 0.3 0.3 0.2 1.7-0.2 2.1 -0.4 0.4-1.5 0.4-2.2 0.2 -0.9-0.2-1.8-0.7-2.7-1.1 -0.5 1.2-1 2.4-1.5 3.6 -0.1 0.3 0.1 0.7 0.1 1.2 1.9-0.2 4.2-3 5.4 0.8 1.6-1 3.1-2 3.9 0.8 0.1 0.4 0.9 0.8 1.4 1 1.5 0.5 3 1.2 4.5 1.3 1.5 0.1 3.1-0.5 4.6-0.8 0.1 0 0.1-0.2 0.2-0.2 4.8 0 9.5 0 14.7 0 0.1-0.1 0.3-0.5 0.6-0.9 1.3-1.6 2.7-1.5 3.6 0.3 1.3 2.5 2.7 2.9 5.2 1.9 1.4-0.6 2.9-0.7 3.7-2.4 0.3-0.7 2-0.7 3-1 0.1 1 0.1 2 0.2 3.7 0.8 0.1 2.3 0 3.7 0.5 0.8 0.3 1.4 1.3 2.3 2.2 0.4-0.5 0.9-1.3 1.5-2 1.1-1.2 2.1-2.6 3.4-3.6 0.5-0.4 1.8-0.2 2.3 0.2 0.7 0.5 1 1.6 1.5 2.4 -0.7 0.4-1.5 0.7-2.1 1.2 -1.2 0.8-3.1 0.9-2.7 3.3 0.1 0.6-1.2 1.5-2.2 2.6 1.8 1.6 4 3.6 6.2 5.6 0.6 0.5 1.1 1.2 1.6 1.8 -0.8 0.6-1.5 1.4-2.4 1.6 -0.6 0.1-1.4-0.7-2.1-1.1 -0.6-0.4-1.3-0.9-1.8-1.4 -1-0.9-2.3-1.8-3-2.9 -1.5-2.3-2.4-5-5.8-5.5 -1.1-0.2-1.9-1.7-3.3-3.1 -0.3 2.5-0.3 4.4-2.9 3.9 -0.2 0-0.5 0.4-0.8 0.5 -0.9 0.5-1.8 1.3-2.6 1.2 -0.6-0.1-1.1-1.4-1.4-2.2 -0.4-1.6-0.9-2.9-3-2.5 -2.5 0.4-4.8-1.6-7.6-0.4 -1.9 0.8-4.2 1.1-6.3 1.3 -1.2 0.1-2.4-0.2-3.5-0.7 -2.2 0.7-2.7 2.4-1.3 4.4 0.5 0.7 1.4 1.4 1.3 2 -0.2 1.2-0.9 2.4-1.4 3.6 -0.7-0.7-1.4-1.5-2.2-2.1 -1.4-1.1-1.6-2.3-1.4-4.1 0.3-2.2-4.1-5.7-6.5-5.7 -0.9 0-1.8-0.3-2.8-0.5 -0.9 1.8-0.2 3.3 0.9 4.8 0.6 0.8 1.1 1.9 1.1 2.8 -0.1 0.9-0.9 1.8-1.4 2.6 -0.7-0.7-1.7-1.2-2.1-2.1 -2.5-5-2.9-6.4-2.6-9 -0.3-0.3-0.7-0.7-1-1 -0.1 0.6 0 1.4-0.3 1.8 -0.8 0.8-1.8 1.3-2.7 1.9 -0.5-0.9-1-1.9-1.7-3.1 -1.8 0-3.7-0.1-4.9 2.7 -0.7 1.5-3.4 2.1-5.5 3.3 1.1 2.8-2 3.8-3.8 5.8v0.7c0.6 0.3 1.1 0.5 1.2 0.9 0.2 0.6 0 1.4 0 2 -0.4-0.1-0.8 0-1.2 0.1v4.1h100v-100H-1618z" class="c"/>
      <path d="M-1616.8 1034.7c0-0.7 0.2-1.5 0-2 -0.2-0.4-0.7-0.6-1.2-0.9v3C-1617.6 1034.6-1617.2 1034.6-1616.8 1034.7z"/>
      <path d="M-1614.2 1025.2c2.1-1.2 4.8-1.8 5.5-3.3 1.3-2.9 3.2-2.7 4.9-2.7 0.7 1.2 1.2 2.2 1.7 3.1 0.9-0.6 1.9-1.1 2.7-1.9 0.4-0.3 0.2-1.2 0.4-1.8 0.3 0.3 0.7 0.7 1 1 -0.3 2.6 0 4 2.6 9 0.4 0.8 1.4 1.4 2.1 2.1 0.5-0.9 1.3-1.7 1.4-2.6 0.1-0.9-0.5-2-1.1-2.8 -1.1-1.5-1.8-3-0.9-4.8 1 0.2 1.9 0.5 2.8 0.5 2.3 0 6.7 3.5 6.5 5.7 -0.2 1.8 0 3 1.4 4.1 0.8 0.6 1.5 1.4 2.2 2.1 0.5-1.2 1.2-2.3 1.4-3.6 0.1-0.6-0.8-1.3-1.3-2 -1.4-2-0.9-3.8 1.3-4.4 1.2 0.5 2.4 0.8 3.5 0.7 2.1-0.3 4.4-0.5 6.3-1.3 2.7-1.2 5 0.8 7.6 0.4 2.1-0.3 2.6 0.9 3.1 2.5 0.2 0.9 0.8 2.2 1.4 2.3 0.8 0.1 1.7-0.7 2.6-1.2 0.3-0.2 0.6-0.6 0.8-0.5 2.6 0.6 2.6-1.4 2.9-3.9 1.4 1.4 2.3 2.9 3.3 3.1 3.4 0.5 4.3 3.2 5.8 5.5 0.8 1.1 2 2 3 2.9 0.6 0.5 1.2 1 1.8 1.4 0.7 0.4 1.5 1.3 2.1 1.1 0.9-0.2 1.6-1 2.4-1.6 -0.5-0.6-1-1.2-1.6-1.8 -2.2-2-4.4-3.9-6.2-5.6 1-1.1 2.3-2 2.2-2.6 -0.4-2.3 1.5-2.5 2.7-3.3 0.7-0.5 1.4-0.8 2.1-1.2 -0.5-0.8-0.8-1.9-1.5-2.4 -0.5-0.4-1.9-0.6-2.3-0.2 -1.3 1-2.3 2.3-3.4 3.6 -0.6 0.7-1.1 1.5-1.5 2 -0.9-0.9-1.5-2-2.3-2.2 -1.4-0.4-2.9-0.4-3.7-0.5 -0.1-1.7-0.2-2.7-0.2-3.7 -1.1 0.3-2.7 0.3-3 1 -0.8 1.7-2.3 1.8-3.7 2.4 -2.5 1.1-3.9 0.7-5.2-1.9 -0.9-1.8-2.3-1.9-3.6-0.3 -0.3 0.4-0.6 0.8-0.6 0.9 -5.1 0-9.9 0-14.7 0 -0.1 0-0.1 0.1-0.2 0.2 -1.5 0.3-3.1 0.8-4.6 0.8 -1.5-0.1-3-0.8-4.5-1.3 -0.5-0.2-1.3-0.6-1.4-1 -0.8-2.8-2.3-1.8-3.9-0.8 -1.2-3.8-3.5-1-5.4-0.8 -0.1-0.5-0.3-0.9-0.1-1.2 0.4-1.2 1-2.4 1.5-3.6 0.9 0.4 1.8 0.9 2.7 1.1 0.7 0.1 1.8 0.2 2.2-0.2 0.4-0.4 0.6-1.8 0.2-2.1 -1-1.1-2.4-1.9-3.9-3 0.4-2.2 0.8-5 1.5-7.6 0.3-1.1 1-2.5 2.8-1.7 0.4 0.2 1.2-0.5 1.8-0.8 1.1-0.6 2.2-1.2 3.4-1.7 0.5-0.2 1.2 0.1 1.6-0.1 0.8-0.4 1.9-0.8 2.2-1.6 0.3-0.8 0-1.9-0.1-2.8 -0.8 0.1-1.5 0.4-2.3 0.4 -0.4 0-0.8-0.3-1.1-0.3 -0.9 0.1-1.8 0.1-2.7 0.4 -0.8 0.2-1.6 0.6-3.3 1.3 0.7-2.5 0.6-4.5 1.6-5.5 1.6-1.6 3.9-2.6 6-3.7 1.4-0.7 3.3-0.7 4.2-1.8 2.1-2.3 4.6-1.4 6.8-1.4 2.4 0.1 4.5 0.2 6-2.6 0.9 1.3 1.5 2.6 1.9 3.9 0.5 1.4 1.1 2.7 2.8 2.2 1.8-0.5 1.6-1.9 1-3.3 -0.4-1-0.8-2-1.3-3 -0.6-1.2-0.6-2.1 0.7-3 2.4-1.6 4.2-1.4 6.7 0.8 0.6 0.5 1.6 0.7 2.4 0.6 0.5-0.1 1.1-1.1 1.1-1.7 0.2-2.2-2.4-4.4-4.6-4.2 -0.6 0.1-1.2 0.1-1.8 0.1 -0.2-0.2-0.3-0.4-0.5-0.6 1.2-1.3 2.3-2.6 3.5-3.8 0.6-0.6 1.6-1.2 1.7-1.8 0.1-2.6 1.4-3.5 3.8-3.8 1.1-0.1 2.4-1.1 2.8-2.1 0.3-0.6-0.7-1.9-1.2-2.9 1.8-1.4 3.6-1.2 5.3 0.3 0.7 0.6 2.1 0.8 3 0.5 3.6-1.1 5.2-4.2 6.9-7.1 0.2-0.4-0.7-2.1-1.3-2.2 -2.4-0.7-3.4 0.2-4.3 3.7 -0.6 2.5-1.9 3.1-3.7 1.6 -1.6-1.3-3-2.8-4.1-3.8 0.7-1.4 1.8-2.6 1.5-3.2 -0.3-0.8-1.7-1.2-2.7-1.7 -1.1-0.5-2.2-1.1-3.4-1.4 -0.8-0.2-2-0.2-2.4 0.2 -0.5 0.6-0.7 1.9-0.3 2.6 0.7 1.2 2 2.1 2.8 3.3 0.6 0.9 1 1.9 1.4 2.9 -1.1 0.1-2.2 0.1-3.3 0.2 -1 0.1-1.9 0.2-2.9 0.3 0.5 1 0.7 2.4 1.5 2.9 1.7 1.2 1.5 2 0.1 3.1 -3.7 3-4.4 7.8-6.7 11.6 -0.5 0.9-1.2 2.2-2 2.3 -1.6 0.3-3.2 1.5-5.1 0.2 -1.2-0.8-2.1-0.1-1.8 1.5 0.1 0.6 0.2 1.2 0.3 2.1 -1.5 0.7-3 1.3-4.1 1.8 -0.4-1.5-0.7-2.3-0.9-3.1 -0.7 0.2-1.5 0.3-2.1 0.7 -2.7 1.7-4.8 5-8.5 3.5 -0.5-1.8-1.1-3.5-1.4-5.1 -0.3-1.7 0.2-3.6-0.4-5.2 -0.7-1.9 0.2-2.5 1.1-3.8 0.9-1.3 0.7-3.3 1.1-5 -1.2 0.6-2.4 1.2-3.5 1.8 -2.7-2-4.3-4.4-3.8-8 0.1-1 0.4-2.2-0.1-2.9 -0.5-0.7-1.8-1.5-2.6-1.4 -1 0.2-2.1 1.1-2.7 2.1 -0.4 0.6-0.2 1.8 0.1 2.7 0.5 1.3 1.2 2.5 2 3.6 1.5 2 0.3 6 4.3 5.9 0 2.5-0.3 4.9 0.1 7.1 0.3 2.1-1.1 4.6 1.5 6.2 0.1 0.1 0.1 0.8-0.1 1 -2.4 1.8-0.4 2.8 1 3.9 -1.4 1.7-7.4-0.8-4 4.6 -1.2 0.7-2.2 1.2-3.2 1.8 -1.6-2.8-3.1-5.6-4.7-8.2 -0.3-0.5-1.1-1.1-1.6-1.1 -0.5 0-1.1 0.7-1.5 1.3 -1.4 2.4 0.6 3.4 2.2 4.7 -1.7 1.6-1.9 2.9 0.5 3.9 0.5 0.2 0.8 1.1 1.2 1.7 0.4 0.5 0.9 1.4 1.3 1.4 2.6-0.2 3.1 1.6 4 3.5 -3.6 3.4-5.9 7.4-5.1 11.1 -1.6 4.2-2.7 7.1-3.9 10.2 -0.7 0.1-1.6 0.1-2.7 0.2 -0.6-1.7-1.6-3.6-3.6-2.2 -2.8 1.9 0.3 3.4 0.9 5.5 -1.9 1.1-3.9 2.3-5.6 3.3 -0.6-1.6-0.9-2.7-1.4-3.6 -0.1-0.1-0.5-0.1-0.9 0v13C-1616.2 1029-1613.1 1028-1614.2 1025.2z"/>
      <path d="M-1253.3 1035c0-4.1-3.4-7.5-7.5-7.5 -4.1 0-7.5 3.4-7.5 7.5 0 4.1 3.4 7.5 7.5 7.5C-1256.6 1042.5-1253.3 1039.2-1253.3 1035z"/>
      <path d="M-1253.3 1020.8c0-4.1-3.4-7.5-7.5-7.5 -4.1 0-7.5 3.4-7.5 7.5 0 4.1 3.4 7.5 7.5 7.5C-1256.6 1028.3-1253.3 1025-1253.3 1020.8z"/>
      <path d="M-1268.3 1013.3c0-4.1-3.4-7.5-7.5-7.5 -4.1 0-7.5 3.4-7.5 7.5 0 4.1 3.4 7.5 7.5 7.5C-1271.6 1020.8-1268.3 1017.5-1268.3 1013.3z"/>
      <path d="M-1275.8 998.7c0-4.1-3.4-7.5-7.5-7.5 -4.1 0-7.5 3.4-7.5 7.5 0 4.1 3.4 7.5 7.5 7.5C-1279.1 1006.2-1275.8 1002.9-1275.8 998.7z"/>
      <path d="M-1309.2 995.9c0-4.1-3.4-7.5-7.5-7.5 -4.1 0-7.5 3.4-7.5 7.5 0 4.1 3.4 7.5 7.5 7.5C-1312.6 1003.4-1309.2 1000-1309.2 995.9z"/>
      <path d="M-1253.3 976.7c0-4.1-3.4-7.5-7.5-7.5 -4.1 0-7.5 3.4-7.5 7.5 0 4.1 3.4 7.5 7.5 7.5C-1256.6 984.2-1253.3 980.8-1253.3 976.7z"/>
      <path d="M-1338.3 978.2c0-4.1-3.4-7.5-7.5-7.5 -4.1 0-7.5 3.4-7.5 7.5 0 4.1 3.4 7.5 7.5 7.5C-1341.6 985.7-1338.3 982.3-1338.3 978.2z"/>
      <path d="M-1323.7 963.8c0-4.1-3.4-7.5-7.5-7.5 -4.1 0-7.5 3.4-7.5 7.5 0 4.1 3.4 7.5 7.5 7.5C-1327.1 971.2-1323.7 967.9-1323.7 963.8z"/>
      <path d="M-1309.2 949.3c0-4.1-3.4-7.5-7.5-7.5 -4.1 0-7.5 3.4-7.5 7.5 0 4.1 3.4 7.5 7.5 7.5C-1312.6 956.8-1309.2 953.5-1309.2 949.3z"/>
      <path d="M-1295.8 971.3c0-4.1-3.4-7.5-7.5-7.5 -4.1 0-7.5 3.4-7.5 7.5 0 4.1 3.4 7.5 7.5 7.5C-1299.1 978.7-1295.8 975.4-1295.8 971.3z"/>
      <path d="M-1294.2 984.2c0-4.1-3.4-7.5-7.5-7.5 -4.1 0-7.5 3.4-7.5 7.5 0 4.1 3.4 7.5 7.5 7.5C-1297.6 991.7-1294.2 988.3-1294.2 984.2z"/>
      <path d="M-1338.3 1035.8c0-4.1-3.4-7.5-7.5-7.5 -4.1 0-7.5 3.4-7.5 7.5 0 4.1 3.4 7.5 7.5 7.5C-1341.6 1043.3-1338.3 1040-1338.3 1035.8z"/>
      <path d="M-1323.8 1027.5c0-4.1-3.4-7.5-7.5-7.5 -4.1 0-7.5 3.4-7.5 7.5 0 4.1 3.4 7.5 7.5 7.5C-1327.2 1035-1323.8 1031.7-1323.8 1027.5z"/>
      <path d="M-1316.7 1028.3c0-4.1-3.4-7.5-7.5-7.5 -4.1 0-7.5 3.4-7.5 7.5 0 4.1 3.4 7.5 7.5 7.5C-1320.1 1035.8-1316.7 1032.5-1316.7 1028.3z"/>
      <path d="M-1338.3 1007.5c0-4.1-3.4-7.5-7.5-7.5 -4.1 0-7.5 3.4-7.5 7.5 0 4.1 3.4 7.5 7.5 7.5C-1341.6 1015-1338.3 1011.7-1338.3 1007.5z"/>
      <rect x="-1353.3" y="942.5" width="100" height="100" class="c"/>
    <radialGradient cx="-698.4" cy="-109.2" r="304.3" gradientUnits="userSpaceOnUse">
      <stop offset="0.0018" stop-color="#E4E6E5"/>
      <stop offset="1" stop-color="#D8E5E5"/>
    </radialGradient>
    <rect x="-1063.3" y="-337.3" width="729.8" height="456.1" fill="url(#SVGID_3_)"/>
</svg>
